<svg width="1877" height="543" viewBox="0 0 1877 543" fill="none" xmlns="http://www.w3.org/2000/svg">
<path fill-rule="evenodd" clip-rule="evenodd" d="M0 110.919C0 102.081 7.1663 94.9164 16.0047 94.919L286.286 94.998C290.581 94.9993 294.695 93.2739 297.705 90.21L381.61 4.78806C384.619 1.72529 388.732 0 393.025 0H475C475 2.20914 476.791 4 479 4H489C491.209 4 493 2.20914 493 0H498C498 2.20914 499.791 4 502 4H512C514.209 4 516 2.20914 516 0H939L949.804 7.55581C951.148 8.49584 952.748 9 954.389 9L1521.9 9.00001C1523.58 9.00001 1525.21 8.47393 1526.57 7.49597L1537 1.4687e-05L940 0H1861C1869.84 0 1877 7.16344 1877 16V50L1662 50C1659.24 50 1657 52.2386 1657 55V63C1657 65.7614 1659.24 68 1662 68L1877 68V133L1662 133C1659.24 133 1657 135.239 1657 138V146C1657 148.761 1659.24 151 1662 151L1877 151V209L1869.5 219.428C1868.53 220.789 1868 222.422 1868 224.098V361.611C1868 363.252 1868.5 364.852 1869.44 366.196L1877 377V445.414C1877 454.251 1869.84 461.414 1861 461.414H1526C1525.95 459.245 1524.18 457.5 1522 457.5H1512C1509.82 457.5 1508.05 459.245 1508 461.414H1443C1442.95 459.245 1441.18 457.5 1439 457.5H1429C1426.82 457.5 1425.05 459.245 1425 461.414H930.897C926.622 461.414 922.525 463.125 919.519 466.165L848.242 538.25C845.236 541.289 841.139 543 836.865 543H681L670.196 535.444C668.852 534.504 667.252 534 665.611 534H528.098C526.422 534 524.789 534.526 523.428 535.504L513 543H363.275C359.997 543 356.798 541.993 354.11 540.115L305.13 505.886C302.442 504.007 299.241 503 295.962 503.001L16.0027 503.049C7.16512 503.05 0 495.886 0 487.049V413C2.20914 413 4 411.209 4 409V399C4 396.791 2.20914 395 0 395V377L7.5558 366.196C8.49584 364.852 9 363.252 9 361.611L9.00001 224.098C9.00001 222.422 8.47392 220.789 7.49597 219.428L7.34351e-06 209L0 377V189C2.20914 189 4 187.209 4 185V175C4 172.791 2.20914 171 0 171V110.919ZM234 95H66L76.6899 102.684C77.8804 103.54 79.3095 104 80.7756 104H218.926C220.362 104 221.762 103.559 222.938 102.736L234 95ZM234 503H66L76.4284 495.504C77.7889 494.526 79.4222 494 81.0977 494H218.611C220.252 494 221.852 494.504 223.196 495.444L234 503Z" fill="#79ADE4"/>
</svg>
