<svg width="1877" height="543" viewBox="0 0 1877 543" fill="none" xmlns="http://www.w3.org/2000/svg">
<path fill-rule="evenodd" clip-rule="evenodd" d="M0 110.919C0 102.081 7.1663 94.9164 16.0047 94.919L286.286 94.998C290.581 94.9993 294.695 93.2739 297.705 90.21L381.61 4.78806C384.619 1.72529 388.732 0 393.025 0H475C475 2.20914 476.791 4 479 4H489C491.209 4 493 2.20914 493 0H498C498 2.20914 499.791 4 502 4H512C514.209 4 516 2.20914 516 0H939L949.804 7.55581C951.148 8.49584 952.748 9 954.389 9L1521.9 9.00001C1523.58 9.00001 1525.21 8.47393 1526.57 7.49597L1537 1.4687e-05L940 0H1861C1869.84 0 1877 7.16344 1877 16V50L1662 50C1659.24 50 1657 52.2386 1657 55V63C1657 65.7614 1659.24 68 1662 68L1877 68V133L1662 133C1659.24 133 1657 135.239 1657 138V146C1657 148.761 1659.24 151 1662 151L1877 151V209L1869.5 219.428C1868.53 220.789 1868 222.422 1868 224.098V361.611C1868 363.252 1868.5 364.852 1869.44 366.196L1877 377V445.414C1877 454.251 1869.84 461.414 1861 461.414H1526C1525.95 459.245 1524.18 457.5 1522 457.5H1512C1509.82 457.5 1508.05 459.245 1508 461.414H1443C1442.95 459.245 1441.18 457.5 1439 457.5H1429C1426.82 457.5 1425.05 459.245 1425 461.414H930.897C926.622 461.414 922.525 463.125 919.519 466.165L848.242 538.25C845.236 541.289 841.139 543 836.865 543H681L670.196 535.444C668.852 534.504 667.252 534 665.611 534H528.098C526.422 534 524.789 534.526 523.428 535.504L513 543H363.275C359.997 543 356.798 541.993 354.11 540.115L305.13 505.886C302.442 504.007 299.241 503 295.962 503.001L16.0027 503.049C7.16512 503.05 0 495.886 0 487.049V413C2.20914 413 4 411.209 4 409V399C4 396.791 2.20914 395 0 395V377L7.5558 366.196C8.49584 364.852 9 363.252 9 361.611L9.00001 224.098C9.00001 222.422 8.47392 220.789 7.49597 219.428L7.34351e-06 209L0 377V189C2.20914 189 4 187.209 4 185V175C4 172.791 2.20914 171 0 171V110.919ZM234 95H66L76.6899 102.684C77.8804 103.54 79.3095 104 80.7756 104H218.926C220.362 104 221.762 103.559 222.938 102.736L234 95ZM234 503H66L76.4284 495.504C77.7889 494.526 79.4222 494 81.0977 494H218.611C220.252 494 221.852 494.504 223.196 495.444L234 503Z" fill="#79ADE4"/>
<rect x="1444" y="382" width="63" height="63" rx="31.5" fill="white" fill-opacity="0.5"/>
<path d="M1476 424C1481.52 424 1486 419.523 1486 414C1486 408.477 1481.52 404 1476 404C1470.48 404 1466 408.477 1466 414C1466 419.523 1470.48 424 1476 424Z" stroke="white" stroke-width="2" stroke-linecap="round" stroke-linejoin="round"/>
<path d="M1466 414H1486" stroke="white" stroke-width="2" stroke-linecap="round" stroke-linejoin="round"/>
<path d="M1476 404C1478.5 406.738 1479.92 410.292 1480 414C1479.92 417.708 1478.5 421.262 1476 424C1473.5 421.262 1472.08 417.708 1472 414C1472.08 410.292 1473.5 406.738 1476 404Z" stroke="white" stroke-width="2" stroke-linecap="round" stroke-linejoin="round"/>
<rect x="1789" y="382" width="63" height="63" rx="31.5" fill="white" fill-opacity="0.5"/>
<path d="M1820 404L1830 410.5V417.5L1820 424L1810 417.5V410.5L1820 404Z" stroke="white" stroke-width="2" stroke-linecap="round" stroke-linejoin="round"/>
<path d="M1820 424V417.5" stroke="white" stroke-width="2" stroke-linecap="round" stroke-linejoin="round"/>
<path d="M1830 410.5L1820 417.5L1810 410.5" stroke="white" stroke-width="2" stroke-linecap="round" stroke-linejoin="round"/>
<path d="M1810 417.5L1820 410.5L1830 417.5" stroke="white" stroke-width="2" stroke-linecap="round" stroke-linejoin="round"/>
<path d="M1820 404V410.5" stroke="white" stroke-width="2" stroke-linecap="round" stroke-linejoin="round"/>
<rect x="1718" y="382" width="63" height="63" rx="31.5" fill="white" fill-opacity="0.5"/>
<path d="M1758 417.998V409.998C1758 409.647 1757.91 409.303 1757.73 408.999C1757.56 408.695 1757.3 408.443 1757 408.268L1750 404.268C1749.7 404.092 1749.35 404 1749 404C1748.65 404 1748.3 404.092 1748 404.268L1741 408.268C1740.7 408.443 1740.44 408.695 1740.27 408.999C1740.09 409.303 1740 409.647 1740 409.998V417.998C1740 418.349 1740.09 418.693 1740.27 418.997C1740.44 419.3 1740.7 419.553 1741 419.728L1748 423.728C1748.3 423.903 1748.65 423.996 1749 423.996C1749.35 423.996 1749.7 423.903 1750 423.728L1757 419.728C1757.3 419.553 1757.56 419.3 1757.73 418.997C1757.91 418.693 1758 418.349 1758 417.998Z" stroke="white" stroke-width="2" stroke-linecap="round" stroke-linejoin="round"/>
<path d="M1744.5 406.211L1749 408.811L1753.5 406.211" stroke="white" stroke-width="2" stroke-linecap="round" stroke-linejoin="round"/>
<path d="M1744.5 421.79V416.6L1740 414" stroke="white" stroke-width="2" stroke-linecap="round" stroke-linejoin="round"/>
<path d="M1758 414L1753.5 416.6V421.79" stroke="white" stroke-width="2" stroke-linecap="round" stroke-linejoin="round"/>
<path d="M1740.27 408.961L1749 414.011L1757.73 408.961" stroke="white" stroke-width="2" stroke-linecap="round" stroke-linejoin="round"/>
<path d="M1749 424.08V414" stroke="white" stroke-width="2" stroke-linecap="round" stroke-linejoin="round"/>
<path d="M953.85 445.1C953.477 445.1 953.14 445.043 952.84 444.93C952.547 444.817 952.303 444.647 952.11 444.42C951.917 444.187 951.78 443.897 951.7 443.55H952.64C952.733 443.783 952.88 443.96 953.08 444.08C953.287 444.2 953.543 444.26 953.85 444.26C954.17 444.26 954.457 444.18 954.71 444.02C954.97 443.86 955.177 443.59 955.33 443.21C955.49 442.83 955.577 442.31 955.59 441.65C955.403 441.977 955.143 442.21 954.81 442.35C954.483 442.483 954.163 442.55 953.85 442.55C953.383 442.55 952.977 442.463 952.63 442.29C952.29 442.11 952.023 441.853 951.83 441.52C951.643 441.18 951.55 440.77 951.55 440.29V440.19C951.55 439.743 951.657 439.35 951.87 439.01C952.083 438.663 952.367 438.393 952.72 438.2C953.08 438 953.473 437.9 953.9 437.9C954.427 437.9 954.88 438.013 955.26 438.24C955.64 438.467 955.933 438.817 956.14 439.29C956.347 439.757 956.45 440.36 956.45 441.1V441.3C956.45 442.22 956.33 442.96 956.09 443.52C955.85 444.073 955.533 444.477 955.14 444.73C954.747 444.977 954.317 445.1 953.85 445.1ZM953.98 441.71C954.467 441.71 954.837 441.587 955.09 441.34C955.343 441.093 955.47 440.74 955.47 440.28V440.18C955.47 439.727 955.34 439.373 955.08 439.12C954.827 438.867 954.46 438.74 953.98 438.74C953.493 438.74 953.123 438.863 952.87 439.11C952.617 439.35 952.49 439.707 952.49 440.18V440.28C952.49 440.74 952.617 441.093 952.87 441.34C953.123 441.587 953.493 441.71 953.98 441.71Z" fill="white"/>
<path d="M968.4 445L970.92 438.82H967.2V438H971.9V438.77L969.4 445H968.4ZM972.753 445V444.18H974.423V439.03L972.753 440.22V439.2L974.443 438H975.383V444.18H976.753V445H972.753ZM977.356 445V444.23L980.156 441.8C980.443 441.56 980.663 441.35 980.816 441.17C980.97 440.983 981.073 440.807 981.126 440.64C981.186 440.473 981.216 440.293 981.216 440.1C981.216 439.707 981.1 439.383 980.866 439.13C980.633 438.87 980.313 438.74 979.906 438.74C979.42 438.74 979.046 438.873 978.786 439.14C978.526 439.4 978.396 439.77 978.396 440.25H977.456C977.456 439.79 977.556 439.383 977.756 439.03C977.963 438.677 978.25 438.4 978.616 438.2C978.99 438 979.42 437.9 979.906 437.9C980.38 437.9 980.783 437.997 981.116 438.19C981.456 438.377 981.713 438.637 981.886 438.97C982.066 439.297 982.156 439.673 982.156 440.1C982.156 440.42 982.093 440.713 981.966 440.98C981.84 441.24 981.663 441.487 981.436 441.72C981.216 441.953 980.96 442.197 980.666 442.45L978.576 444.18H982.256V445H977.356ZM985.507 445.1C985 445.1 984.567 445.013 984.207 444.84C983.854 444.66 983.58 444.42 983.387 444.12C983.2 443.813 983.107 443.473 983.107 443.1H984.047C984.047 443.44 984.164 443.72 984.397 443.94C984.63 444.153 985 444.26 985.507 444.26C986.014 444.26 986.384 444.15 986.617 443.93C986.85 443.703 986.967 443.41 986.967 443.05C986.967 442.677 986.847 442.377 986.607 442.15C986.374 441.917 986.007 441.8 985.507 441.8H984.757V441H985.507C985.987 441 986.334 440.9 986.547 440.7C986.76 440.493 986.867 440.21 986.867 439.85C986.867 439.503 986.764 439.233 986.557 439.04C986.35 438.84 986 438.74 985.507 438.74C985.034 438.74 984.687 438.843 984.467 439.05C984.254 439.25 984.147 439.5 984.147 439.8H983.207C983.207 439.447 983.297 439.127 983.477 438.84C983.657 438.553 983.917 438.327 984.257 438.16C984.604 437.987 985.02 437.9 985.507 437.9C986 437.9 986.417 437.987 986.757 438.16C987.104 438.327 987.364 438.55 987.537 438.83C987.717 439.11 987.807 439.417 987.807 439.75C987.807 440.15 987.7 440.49 987.487 440.77C987.28 441.043 986.987 441.237 986.607 441.35C987.007 441.477 987.324 441.683 987.557 441.97C987.79 442.257 987.907 442.65 987.907 443.15C987.907 443.503 987.814 443.83 987.627 444.13C987.44 444.423 987.167 444.66 986.807 444.84C986.454 445.013 986.02 445.1 985.507 445.1ZM992.167 445V443.31H988.607V442.59L992.067 438H993.107V442.49H994.007V443.31H993.107V445H992.167ZM989.607 442.49H992.167V439.1L989.607 442.49Z" fill="white"/>
<path d="M1125.1 445.1C1124.76 445.1 1124.44 445.043 1124.14 444.93C1123.84 444.81 1123.57 444.613 1123.34 444.34C1123.11 444.067 1122.92 443.7 1122.79 443.24C1122.66 442.773 1122.6 442.193 1122.6 441.5V441.3C1122.6 440.653 1122.66 440.113 1122.79 439.68C1122.92 439.24 1123.11 438.89 1123.34 438.63C1123.57 438.37 1123.84 438.183 1124.14 438.07C1124.44 437.957 1124.76 437.9 1125.1 437.9C1125.44 437.9 1125.76 437.957 1126.06 438.07C1126.36 438.183 1126.63 438.37 1126.86 438.63C1127.09 438.89 1127.27 439.24 1127.4 439.68C1127.53 440.113 1127.6 440.653 1127.6 441.3V441.5C1127.6 442.193 1127.53 442.773 1127.4 443.24C1127.27 443.7 1127.09 444.067 1126.86 444.34C1126.63 444.613 1126.36 444.81 1126.06 444.93C1125.76 445.043 1125.44 445.1 1125.1 445.1ZM1125.1 444.28C1125.31 444.28 1125.51 444.243 1125.7 444.17C1125.89 444.09 1126.05 443.95 1126.19 443.75C1126.34 443.543 1126.45 443.26 1126.53 442.9C1126.62 442.533 1126.66 442.067 1126.66 441.5V441.3C1126.66 440.607 1126.59 440.073 1126.44 439.7C1126.3 439.327 1126.11 439.07 1125.87 438.93C1125.64 438.79 1125.38 438.72 1125.1 438.72C1124.82 438.72 1124.56 438.79 1124.32 438.93C1124.09 439.07 1123.9 439.327 1123.75 439.7C1123.61 440.073 1123.54 440.607 1123.54 441.3V441.5C1123.54 442.067 1123.58 442.533 1123.66 442.9C1123.75 443.26 1123.86 443.543 1124 443.75C1124.15 443.95 1124.31 444.09 1124.5 444.17C1124.69 444.243 1124.89 444.28 1125.1 444.28ZM1130.95 445.1C1130.44 445.1 1130.01 445.013 1129.65 444.84C1129.3 444.66 1129.02 444.42 1128.83 444.12C1128.64 443.813 1128.55 443.473 1128.55 443.1H1129.49C1129.49 443.44 1129.61 443.72 1129.84 443.94C1130.07 444.153 1130.44 444.26 1130.95 444.26C1131.46 444.26 1131.83 444.15 1132.06 443.93C1132.29 443.703 1132.41 443.41 1132.41 443.05C1132.41 442.677 1132.29 442.377 1132.05 442.15C1131.82 441.917 1131.45 441.8 1130.95 441.8H1130.2V441H1130.95C1131.43 441 1131.78 440.9 1131.99 440.7C1132.2 440.493 1132.31 440.21 1132.31 439.85C1132.31 439.503 1132.21 439.233 1132 439.04C1131.79 438.84 1131.44 438.74 1130.95 438.74C1130.48 438.74 1130.13 438.843 1129.91 439.05C1129.7 439.25 1129.59 439.5 1129.59 439.8H1128.65C1128.65 439.447 1128.74 439.127 1128.92 438.84C1129.1 438.553 1129.36 438.327 1129.7 438.16C1130.05 437.987 1130.46 437.9 1130.95 437.9C1131.44 437.9 1131.86 437.987 1132.2 438.16C1132.55 438.327 1132.81 438.55 1132.98 438.83C1133.16 439.11 1133.25 439.417 1133.25 439.75C1133.25 440.15 1133.14 440.49 1132.93 440.77C1132.72 441.043 1132.43 441.237 1132.05 441.35C1132.45 441.477 1132.77 441.683 1133 441.97C1133.23 442.257 1133.35 442.65 1133.35 443.15C1133.35 443.503 1133.26 443.83 1133.07 444.13C1132.88 444.423 1132.61 444.66 1132.25 444.84C1131.9 445.013 1131.46 445.1 1130.95 445.1ZM1135.25 445L1137.77 438.82H1134.05V438H1138.75V438.77L1136.25 445H1135.25ZM1141.9 445.1C1141.4 445.1 1140.96 445.013 1140.6 444.84C1140.25 444.66 1139.98 444.42 1139.78 444.12C1139.6 443.813 1139.5 443.473 1139.5 443.1H1140.44C1140.44 443.44 1140.56 443.72 1140.79 443.94C1141.03 444.153 1141.4 444.26 1141.9 444.26C1142.41 444.26 1142.78 444.15 1143.01 443.93C1143.25 443.703 1143.36 443.41 1143.36 443.05C1143.36 442.677 1143.24 442.377 1143 442.15C1142.77 441.917 1142.4 441.8 1141.9 441.8H1141.15V441H1141.9C1142.38 441 1142.73 440.9 1142.94 440.7C1143.16 440.493 1143.26 440.21 1143.26 439.85C1143.26 439.503 1143.16 439.233 1142.95 439.04C1142.75 438.84 1142.4 438.74 1141.9 438.74C1141.43 438.74 1141.08 438.843 1140.86 439.05C1140.65 439.25 1140.54 439.5 1140.54 439.8H1139.6C1139.6 439.447 1139.69 439.127 1139.87 438.84C1140.05 438.553 1140.31 438.327 1140.65 438.16C1141 437.987 1141.42 437.9 1141.9 437.9C1142.4 437.9 1142.81 437.987 1143.15 438.16C1143.5 438.327 1143.76 438.55 1143.93 438.83C1144.11 439.11 1144.2 439.417 1144.2 439.75C1144.2 440.15 1144.1 440.49 1143.88 440.77C1143.68 441.043 1143.38 441.237 1143 441.35C1143.4 441.477 1143.72 441.683 1143.95 441.97C1144.19 442.257 1144.3 442.65 1144.3 443.15C1144.3 443.503 1144.21 443.83 1144.02 444.13C1143.84 444.423 1143.56 444.66 1143.2 444.84C1142.85 445.013 1142.42 445.1 1141.9 445.1ZM1148.56 445V443.31H1145V442.59L1148.46 438H1149.5V442.49H1150.4V443.31H1149.5V445H1148.56ZM1146 442.49H1148.56V439.1L1146 442.49ZM1153.86 445.1C1153.3 445.1 1152.84 445.017 1152.47 444.85C1152.1 444.677 1151.82 444.443 1151.64 444.15C1151.45 443.85 1151.36 443.517 1151.36 443.15C1151.36 442.75 1151.48 442.393 1151.74 442.08C1151.99 441.76 1152.36 441.533 1152.86 441.4C1152.5 441.28 1152.19 441.077 1151.94 440.79C1151.68 440.503 1151.56 440.157 1151.56 439.75C1151.56 439.403 1151.64 439.09 1151.82 438.81C1152 438.53 1152.26 438.31 1152.6 438.15C1152.94 437.983 1153.36 437.9 1153.86 437.9C1154.36 437.9 1154.78 437.983 1155.12 438.15C1155.46 438.31 1155.71 438.53 1155.89 438.81C1156.07 439.09 1156.16 439.403 1156.16 439.75C1156.16 440.15 1156.03 440.49 1155.78 440.77C1155.53 441.05 1155.22 441.26 1154.86 441.4C1155.36 441.567 1155.73 441.787 1155.98 442.06C1156.23 442.333 1156.36 442.697 1156.36 443.15C1156.36 443.517 1156.26 443.85 1156.08 444.15C1155.89 444.443 1155.61 444.677 1155.24 444.85C1154.87 445.017 1154.41 445.1 1153.86 445.1ZM1153.86 444.26C1154.24 444.26 1154.55 444.207 1154.78 444.1C1155 443.993 1155.17 443.853 1155.27 443.68C1155.37 443.5 1155.42 443.303 1155.42 443.09C1155.42 442.717 1155.27 442.413 1154.98 442.18C1154.68 441.947 1154.31 441.803 1153.86 441.75C1153.4 441.803 1153.03 441.943 1152.74 442.17C1152.44 442.397 1152.3 442.703 1152.3 443.09C1152.3 443.303 1152.35 443.5 1152.45 443.68C1152.55 443.853 1152.71 443.993 1152.94 444.1C1153.16 444.207 1153.47 444.26 1153.86 444.26ZM1153.86 441.05C1154.26 440.997 1154.58 440.87 1154.84 440.67C1155.09 440.463 1155.22 440.173 1155.22 439.8C1155.22 439.46 1155.1 439.2 1154.88 439.02C1154.66 438.833 1154.32 438.74 1153.86 438.74C1153.39 438.74 1153.05 438.833 1152.83 439.02C1152.61 439.2 1152.5 439.46 1152.5 439.8C1152.5 440.173 1152.62 440.463 1152.88 440.67C1153.13 440.87 1153.46 440.997 1153.86 441.05ZM1157.21 445V444.23L1160.01 441.8C1160.3 441.56 1160.52 441.35 1160.67 441.17C1160.82 440.983 1160.93 440.807 1160.98 440.64C1161.04 440.473 1161.07 440.293 1161.07 440.1C1161.07 439.707 1160.95 439.383 1160.72 439.13C1160.49 438.87 1160.17 438.74 1159.76 438.74C1159.27 438.74 1158.9 438.873 1158.64 439.14C1158.38 439.4 1158.25 439.77 1158.25 440.25H1157.31C1157.31 439.79 1157.41 439.383 1157.61 439.03C1157.82 438.677 1158.1 438.4 1158.47 438.2C1158.84 438 1159.27 437.9 1159.76 437.9C1160.23 437.9 1160.64 437.997 1160.97 438.19C1161.31 438.377 1161.57 438.637 1161.74 438.97C1161.92 439.297 1162.01 439.673 1162.01 440.1C1162.01 440.42 1161.95 440.713 1161.82 440.98C1161.69 441.24 1161.52 441.487 1161.29 441.72C1161.07 441.953 1160.81 442.197 1160.52 442.45L1158.43 444.18H1162.11V445H1157.21Z" fill="white"/>
<path d="M1175.85 445.1C1175.34 445.1 1174.91 445.013 1174.55 444.84C1174.2 444.66 1173.92 444.42 1173.73 444.12C1173.54 443.813 1173.45 443.473 1173.45 443.1H1174.39C1174.39 443.44 1174.51 443.72 1174.74 443.94C1174.97 444.153 1175.34 444.26 1175.85 444.26C1176.36 444.26 1176.73 444.15 1176.96 443.93C1177.19 443.703 1177.31 443.41 1177.31 443.05C1177.31 442.677 1177.19 442.377 1176.95 442.15C1176.72 441.917 1176.35 441.8 1175.85 441.8H1175.1V441H1175.85C1176.33 441 1176.68 440.9 1176.89 440.7C1177.1 440.493 1177.21 440.21 1177.21 439.85C1177.21 439.503 1177.11 439.233 1176.9 439.04C1176.69 438.84 1176.34 438.74 1175.85 438.74C1175.38 438.74 1175.03 438.843 1174.81 439.05C1174.6 439.25 1174.49 439.5 1174.49 439.8H1173.55C1173.55 439.447 1173.64 439.127 1173.82 438.84C1174 438.553 1174.26 438.327 1174.6 438.16C1174.95 437.987 1175.36 437.9 1175.85 437.9C1176.34 437.9 1176.76 437.987 1177.1 438.16C1177.45 438.327 1177.71 438.55 1177.88 438.83C1178.06 439.11 1178.15 439.417 1178.15 439.75C1178.15 440.15 1178.04 440.49 1177.83 440.77C1177.62 441.043 1177.33 441.237 1176.95 441.35C1177.35 441.477 1177.67 441.683 1177.9 441.97C1178.13 442.257 1178.25 442.65 1178.25 443.15C1178.25 443.503 1178.16 443.83 1177.97 444.13C1177.78 444.423 1177.51 444.66 1177.15 444.84C1176.8 445.013 1176.36 445.1 1175.85 445.1ZM1182.51 445V443.31H1178.95V442.59L1182.41 438H1183.45V442.49H1184.35V443.31H1183.45V445H1182.51ZM1179.95 442.49H1182.51V439.1L1179.95 442.49Z" fill="white"/>
<path d="M1196.4 445L1198.92 438.82H1195.2V438H1199.9V438.77L1197.4 445H1196.4ZM1203.35 445.1C1202.58 445.1 1201.96 444.843 1201.49 444.33C1201.03 443.81 1200.8 443 1200.8 441.9V441.7C1200.8 440.78 1200.92 440.043 1201.16 439.49C1201.4 438.93 1201.72 438.527 1202.12 438.28C1202.52 438.027 1202.97 437.9 1203.45 437.9C1203.81 437.9 1204.14 437.957 1204.42 438.07C1204.71 438.183 1204.95 438.357 1205.14 438.59C1205.34 438.817 1205.47 439.103 1205.55 439.45H1204.61C1204.52 439.217 1204.38 439.04 1204.18 438.92C1203.99 438.8 1203.75 438.74 1203.45 438.74C1203.12 438.74 1202.82 438.82 1202.55 438.98C1202.29 439.14 1202.08 439.41 1201.92 439.79C1201.77 440.163 1201.68 440.683 1201.66 441.35C1201.86 441.023 1202.12 440.793 1202.44 440.66C1202.77 440.52 1203.09 440.45 1203.4 440.45C1203.87 440.45 1204.27 440.54 1204.61 440.72C1204.96 440.893 1205.23 441.147 1205.41 441.48C1205.61 441.813 1205.7 442.223 1205.7 442.71V442.81C1205.7 443.25 1205.6 443.643 1205.38 443.99C1205.17 444.337 1204.89 444.61 1204.53 444.81C1204.18 445.003 1203.79 445.1 1203.35 445.1ZM1203.27 444.26C1203.76 444.26 1204.13 444.137 1204.38 443.89C1204.64 443.643 1204.76 443.287 1204.76 442.82V442.72C1204.76 442.26 1204.64 441.907 1204.38 441.66C1204.13 441.413 1203.76 441.29 1203.27 441.29C1202.79 441.29 1202.42 441.413 1202.16 441.66C1201.91 441.907 1201.78 442.26 1201.78 442.72V442.82C1201.78 443.28 1201.91 443.637 1202.16 443.89C1202.42 444.137 1202.79 444.26 1203.27 444.26ZM1206.56 445V444.23L1209.36 441.8C1209.64 441.56 1209.86 441.35 1210.02 441.17C1210.17 440.983 1210.27 440.807 1210.33 440.64C1210.39 440.473 1210.42 440.293 1210.42 440.1C1210.42 439.707 1210.3 439.383 1210.07 439.13C1209.83 438.87 1209.51 438.74 1209.11 438.74C1208.62 438.74 1208.25 438.873 1207.99 439.14C1207.73 439.4 1207.6 439.77 1207.6 440.25H1206.66C1206.66 439.79 1206.76 439.383 1206.96 439.03C1207.16 438.677 1207.45 438.4 1207.82 438.2C1208.19 438 1208.62 437.9 1209.11 437.9C1209.58 437.9 1209.98 437.997 1210.32 438.19C1210.66 438.377 1210.91 438.637 1211.09 438.97C1211.27 439.297 1211.36 439.673 1211.36 440.1C1211.36 440.42 1211.29 440.713 1211.17 440.98C1211.04 441.24 1210.86 441.487 1210.64 441.72C1210.42 441.953 1210.16 442.197 1209.87 442.45L1207.78 444.18H1211.46V445H1206.56ZM1212.41 445V444.18H1214.08V439.03L1212.41 440.22V439.2L1214.1 438H1215.04V444.18H1216.41V445H1212.41ZM1220.37 445V443.31H1216.81V442.59L1220.27 438H1221.31V442.49H1222.21V443.31H1221.31V445H1220.37ZM1217.81 442.49H1220.37V439.1L1217.81 442.49ZM1225.47 445.1C1224.96 445.1 1224.53 445.013 1224.17 444.84C1223.81 444.66 1223.54 444.42 1223.35 444.12C1223.16 443.813 1223.07 443.473 1223.07 443.1H1224.01C1224.01 443.44 1224.12 443.72 1224.36 443.94C1224.59 444.153 1224.96 444.26 1225.47 444.26C1225.97 444.26 1226.34 444.15 1226.58 443.93C1226.81 443.703 1226.93 443.41 1226.93 443.05C1226.93 442.677 1226.81 442.377 1226.57 442.15C1226.33 441.917 1225.97 441.8 1225.47 441.8H1224.72V441H1225.47C1225.95 441 1226.29 440.9 1226.51 440.7C1226.72 440.493 1226.83 440.21 1226.83 439.85C1226.83 439.503 1226.72 439.233 1226.52 439.04C1226.31 438.84 1225.96 438.74 1225.47 438.74C1224.99 438.74 1224.65 438.843 1224.43 439.05C1224.21 439.25 1224.11 439.5 1224.11 439.8H1223.17C1223.17 439.447 1223.26 439.127 1223.44 438.84C1223.62 438.553 1223.88 438.327 1224.22 438.16C1224.56 437.987 1224.98 437.9 1225.47 437.9C1225.96 437.9 1226.38 437.987 1226.72 438.16C1227.06 438.327 1227.32 438.55 1227.5 438.83C1227.68 439.11 1227.77 439.417 1227.77 439.75C1227.77 440.15 1227.66 440.49 1227.45 440.77C1227.24 441.043 1226.95 441.237 1226.57 441.35C1226.97 441.477 1227.28 441.683 1227.52 441.97C1227.75 442.257 1227.87 442.65 1227.87 443.15C1227.87 443.503 1227.77 443.83 1227.59 444.13C1227.4 444.423 1227.13 444.66 1226.77 444.84C1226.41 445.013 1225.98 445.1 1225.47 445.1ZM1229.76 445L1232.28 438.82H1228.56V438H1233.26V438.77L1230.76 445H1229.76Z" fill="white"/>
<rect x="954.539" y="379" width="1.17917" height="54" fill="white"/>
<rect x="963.969" y="379" width="1.17917" height="54" fill="white"/>
<rect x="966.328" y="379" width="1.17917" height="54" fill="white"/>
<rect x="968.688" y="379" width="1.17917" height="54" fill="white"/>
<rect x="981.656" y="379" width="1.17917" height="54" fill="white"/>
<rect x="984.016" y="379" width="1.17917" height="54" fill="white"/>
<rect x="986.375" y="379" width="1.17917" height="54" fill="white"/>
<rect x="988.734" y="379" width="1.17917" height="54" fill="white"/>
<rect x="991.094" y="379" width="1.17917" height="54" fill="white"/>
<rect x="1169.14" y="379" width="1.17917" height="54" fill="white"/>
<rect x="993.453" y="379" width="1.17917" height="54" fill="white"/>
<rect x="1171.5" y="379" width="1.17917" height="54" fill="white"/>
<rect x="1002.88" y="379" width="1.17917" height="54" fill="white"/>
<rect x="1180.94" y="379" width="1.17917" height="54" fill="white"/>
<rect x="1005.24" y="379" width="1.17917" height="54" fill="white"/>
<rect x="1183.3" y="379" width="1.17917" height="54" fill="white"/>
<rect x="1007.6" y="379" width="1.17917" height="54" fill="white"/>
<rect x="1185.66" y="379" width="1.17917" height="54" fill="white"/>
<rect x="1017.03" y="379" width="1.17917" height="54" fill="white"/>
<rect x="1195.09" y="379" width="1.17917" height="54" fill="white"/>
<rect x="1019.39" y="379" width="1.17917" height="54" fill="white"/>
<rect x="1197.45" y="379" width="1.17917" height="54" fill="white"/>
<rect x="1021.75" y="379" width="1.17917" height="54" fill="white"/>
<rect x="1199.8" y="379" width="1.17917" height="54" fill="white"/>
<rect x="1028.83" y="379" width="1.17917" height="54" fill="white"/>
<rect x="1206.88" y="379" width="1.17917" height="54" fill="white"/>
<rect x="1038.26" y="379" width="1.17917" height="54" fill="white"/>
<rect x="1216.31" y="379" width="1.17917" height="54" fill="white"/>
<rect x="1031.19" y="379" width="1.17917" height="54" fill="white"/>
<rect x="1209.23" y="379" width="1.17917" height="54" fill="white"/>
<rect x="1040.62" y="379" width="1.17917" height="54" fill="white"/>
<rect x="1218.67" y="379" width="1.17917" height="54" fill="white"/>
<rect x="1033.55" y="379" width="1.17917" height="54" fill="white"/>
<rect x="1211.59" y="379" width="1.17917" height="54" fill="white"/>
<rect x="1042.98" y="379" width="1.17917" height="54" fill="white"/>
<rect x="1221.03" y="379" width="1.17917" height="54" fill="white"/>
<rect x="1035.9" y="379" width="1.17917" height="54" fill="white"/>
<rect x="1213.95" y="379" width="1.17917" height="54" fill="white"/>
<rect x="1045.33" y="379" width="1.17917" height="54" fill="white"/>
<rect x="1223.39" y="379" width="1.17917" height="54" fill="white"/>
<rect x="1047.69" y="379" width="1.17917" height="54" fill="white"/>
<rect x="1225.75" y="379" width="1.17917" height="54" fill="white"/>
<rect x="1061.84" y="379" width="1.17917" height="54" fill="white"/>
<rect x="995.812" y="379" width="2.35833" height="54" fill="white"/>
<rect x="1173.86" y="379" width="2.35833" height="54" fill="white"/>
<rect x="999.344" y="379" width="2.35833" height="54" fill="white"/>
<rect x="1177.4" y="379" width="2.35833" height="54" fill="white"/>
<rect x="1024.11" y="379" width="3.5375" height="54" fill="white"/>
<rect x="1202.16" y="379" width="3.5375" height="54" fill="white"/>
<rect x="1057.12" y="379" width="3.5375" height="54" fill="white"/>
<rect x="978.125" y="379" width="2.35833" height="54" fill="white"/>
<rect x="956.891" y="379" width="5.89583" height="54" fill="white"/>
<rect x="971.047" y="379" width="5.89583" height="54" fill="white"/>
<rect x="1009.95" y="379" width="5.89583" height="54" fill="white"/>
<rect x="1188.02" y="379" width="5.89583" height="54" fill="white"/>
<rect x="1050.05" y="379" width="5.89583" height="54" fill="white"/>
<rect x="1228.11" y="379" width="5.89583" height="54" fill="white"/>
<rect x="1071.27" y="379" width="1.17917" height="54" fill="white"/>
<rect x="1073.63" y="379" width="1.17917" height="54" fill="white"/>
<rect x="1075.99" y="379" width="1.17917" height="54" fill="white"/>
<rect x="1088.96" y="379" width="1.17917" height="54" fill="white"/>
<rect x="1091.32" y="379" width="1.17917" height="54" fill="white"/>
<rect x="1093.68" y="379" width="1.17917" height="54" fill="white"/>
<rect x="1096.04" y="379" width="1.17917" height="54" fill="white"/>
<rect x="1098.39" y="379" width="1.17917" height="54" fill="white"/>
<rect x="1100.75" y="379" width="1.17917" height="54" fill="white"/>
<rect x="1110.19" y="379" width="1.17917" height="54" fill="white"/>
<rect x="1112.55" y="379" width="1.17917" height="54" fill="white"/>
<rect x="1114.91" y="379" width="1.17917" height="54" fill="white"/>
<rect x="1124.34" y="379" width="1.17917" height="54" fill="white"/>
<rect x="1126.7" y="379" width="1.17917" height="54" fill="white"/>
<rect x="1129.05" y="379" width="1.17917" height="54" fill="white"/>
<rect x="1136.12" y="379" width="1.17917" height="54" fill="white"/>
<rect x="1145.56" y="379" width="1.17917" height="54" fill="white"/>
<rect x="1138.48" y="379" width="1.17917" height="54" fill="white"/>
<rect x="1147.92" y="379" width="1.17917" height="54" fill="white"/>
<rect x="1140.84" y="379" width="1.17917" height="54" fill="white"/>
<rect x="1150.28" y="379" width="1.17917" height="54" fill="white"/>
<rect x="1143.2" y="379" width="1.17917" height="54" fill="white"/>
<rect x="1152.64" y="379" width="1.17917" height="54" fill="white"/>
<rect x="1155" y="379" width="1.17917" height="54" fill="white"/>
<rect x="951" y="379" width="2.35833" height="54" fill="white"/>
<rect x="1103.11" y="379" width="2.35833" height="54" fill="white"/>
<rect x="1106.65" y="379" width="2.35833" height="54" fill="white"/>
<rect x="1131.41" y="379" width="3.5375" height="54" fill="white"/>
<rect x="1164.43" y="379" width="3.5375" height="54" fill="white"/>
<rect x="1085.42" y="379" width="2.35833" height="54" fill="white"/>
<rect x="1064.2" y="379" width="5.89583" height="54" fill="white"/>
<rect x="1078.35" y="379" width="5.89583" height="54" fill="white"/>
<rect x="1117.27" y="379" width="5.89583" height="54" fill="white"/>
<rect x="1157.36" y="379" width="5.89583" height="54" fill="white"/>
<path d="M1644.36 421L1639 421L1644.64 407L1650 407L1644.36 421Z" fill="white" fill-opacity="0.6"/>
<path d="M1599.36 421L1594 421L1599.64 407L1605 407L1599.36 421Z" fill="white" fill-opacity="0.6"/>
<path d="M1585.36 421L1580 421L1585.64 407L1591 407L1585.36 421Z" fill="white" fill-opacity="0.6"/>
<path d="M1637.36 421L1632 421L1637.64 407L1643 407L1637.36 421Z" fill="white" fill-opacity="0.6"/>
<path d="M1592.36 421L1587 421L1592.64 407L1598 407L1592.36 421Z" fill="white" fill-opacity="0.6"/>
<path d="M1578.36 421L1573 421L1578.64 407L1584 407L1578.36 421Z" fill="white" fill-opacity="0.6"/>
<path d="M1630.12 421L1601 421L1606.88 407L1636 407L1630.12 421Z" fill="white" fill-opacity="0.6"/>
</svg>
