<svg width="288" height="78" viewBox="0 0 288 78" fill="none" xmlns="http://www.w3.org/2000/svg">
<path fill-rule="evenodd" clip-rule="evenodd" d="M5 0C2.23858 0 0 2.23858 0 5V61V73C0 75.7614 2.23857 78 5 78H54L64 73H224L234 78H283C285.761 78 288 75.7614 288 73V61L285 58.5V18.5L288 16V5C288 2.23858 285.761 0 283 0H234L224 5H64L54 0H5ZM0 61L3 58.5L3 18.5L1.96701e-06 16L0 61Z" fill="#DF450F"/>
<g clip-path="url(#clip0_2154_480)">
<path d="M183.445 38.5916H175.739L184.802 26H174.594C172.911 26 171.34 26.799 170.372 28.1401L164.635 36.1129L158.898 28.1401C157.936 26.8009 156.356 26 154.682 26H144.099L144.898 27.0824L151.832 36.4953C152.798 37.8117 154.358 38.5916 156.015 38.5916H162.851L154.962 49.5549C154.705 49.9125 154.164 49.9125 153.906 49.5549L152.648 47.8028L138.495 28.142C137.535 26.8009 135.955 26 134.279 26H124.062L140.645 49.0431C141.611 50.3843 143.184 51.1833 144.867 51.1833H164.002C165.677 51.1833 167.256 50.3843 168.216 49.0431L174.315 40.5663L180.594 49.0869C181.56 50.4033 183.119 51.1833 184.777 51.1833H195.18L187.659 40.7318C186.699 39.3906 185.119 38.5916 183.445 38.5916Z" fill="white"/>
<path d="M117.81 28.1401C116.85 26.799 115.271 26 113.596 26H103.38L112.443 38.5935H104.735C103.06 38.5935 101.481 39.3925 100.521 40.7337L93 51.1852H103.403C105.058 51.1852 106.618 50.4052 107.586 49.0888L113.864 40.5663L119.964 49.0412C120.93 50.3824 122.503 51.1814 124.186 51.1814H134.388L133.222 49.5568L117.81 28.1401Z" fill="white"/>
</g>
<defs>
<clipPath id="clip0_2154_480">
<rect width="102" height="25.1852" fill="white" transform="translate(93 26)"/>
</clipPath>
</defs>
</svg>
