<svg width="1879" height="909" viewBox="0 0 1879 909" fill="none" xmlns="http://www.w3.org/2000/svg">
<path fill-rule="evenodd" clip-rule="evenodd" d="M1859 815.819C1870.05 815.819 1879 806.865 1879 795.819V765.732L1872.19 758.541C1870.79 757.055 1870 755.087 1870 753.041V116.01C1870 114.031 1870.74 112.122 1872.06 110.652L1878.96 102.996L1879 183.632V73.8939C1879 67.6616 1876.09 61.7855 1871.14 58.0017L1800.61 4.1078C1797.12 1.44344 1792.85 0 1788.46 0H1759.27L1751.81 7.06137C1750.33 8.4683 1748.36 9.25222 1746.31 9.25185L133.013 8.96386C131.034 8.9635 129.126 8.2299 127.656 6.90476L120 0H90.7928C86.3878 0 82.1061 1.45426 78.6123 4.137L7.81948 58.4958C2.88969 62.2811 0 68.1433 0 74.3588V104L7.10686 111.631C8.48576 113.112 9.25242 115.06 9.25242 117.083L9.25242 847.064C9.25242 849.11 8.46853 851.078 7.06193 852.564L0 860.023V889C0 900.046 8.95434 909 20 909H66.3485L76.6659 901.526C78.0354 900.534 79.6841 900.002 81.3752 900.005L218.07 900.284C219.692 900.287 221.275 900.784 222.609 901.708L233.136 909H279.507C284.818 909 289.912 906.887 293.664 903.127L375.746 820.873C379.498 817.113 384.591 815 389.903 815H417.501L424.957 807.941C426.445 806.533 428.416 805.749 430.464 805.75L1805.99 806.995C1807.97 806.997 1809.88 807.73 1811.35 809.054L1818.85 815.819H1859ZM1612.21 815.819L1507.93 815.748L1516.98 815.819H1612.21Z" fill="#D9D9D9"/>
</svg>
