<svg width="1880" height="543" viewBox="0 0 1880 543" fill="none" xmlns="http://www.w3.org/2000/svg">
<path fill-rule="evenodd" clip-rule="evenodd" d="M0 110.919C0 102.081 7.16629 94.9164 16.0047 94.919L286.762 94.998C291.052 94.9993 295.163 93.2775 298.172 90.2191L382.229 4.77896C385.237 1.72175 389.346 0 393.635 0H941.502H1880V50L1664.65 50C1661.89 50 1659.65 52.2386 1659.65 55V63C1659.65 65.7614 1661.89 68 1664.65 68L1880 68V72L1664.65 72C1661.89 72 1659.65 74.2386 1659.65 77V85C1659.65 87.7614 1661.89 90 1664.65 90L1880 90V445.414C1880 454.251 1872.84 461.414 1864 461.414H1528.44C1528.39 459.245 1526.62 457.5 1524.44 457.5H1514.41C1512.23 457.5 1510.46 459.245 1510.41 461.414H1445.31C1445.26 459.245 1443.49 457.5 1441.31 457.5H1431.28C1429.1 457.5 1427.32 459.245 1427.28 461.414H932.366C928.096 461.414 924.003 463.121 920.998 466.155L849.589 538.259C846.584 541.293 842.491 543 838.22 543H682.088L671.267 535.444C669.921 534.504 668.318 534 666.675 534H528.942C527.264 534 525.628 534.526 524.265 535.504L513.82 543H363.841C360.567 543 357.372 541.995 354.686 540.122L305.608 505.879C302.921 504.005 299.725 503 296.45 503.001L16.0027 503.049C7.16507 503.05 0 495.886 0 487.049V413C2.21267 413 4.00639 411.206 4.00639 408.994V399.006C4.00639 396.794 2.21267 395 0 395V377L7.56788 366.196C8.50941 364.852 9.01439 363.252 9.01439 361.611L9.01439 224.098C9.01439 222.422 8.48746 220.789 7.50795 219.428L7.35525e-06 209L0 377V189C2.21267 189 4.00639 187.206 4.00639 184.994V175.006C4.00639 172.794 2.21267 171 0 171V110.919ZM234.374 503H66.1055L76.5506 495.504C77.9133 494.526 79.5491 494 81.2273 494H218.961C220.604 494 222.207 494.504 223.553 495.444L234.374 503ZM1872.43 366.196L1880 377V209L1872.49 219.428C1871.51 220.789 1870.99 222.422 1870.99 224.098V361.611C1870.99 363.252 1871.49 364.852 1872.43 366.196Z" fill="#21B48C"/>
<rect x="950" y="342" width="285" height="33" rx="7" fill="white" fill-opacity="0.5"/>
<path d="M960.112 363L964.214 354.768H967.854L971.942 363H968.932L968.246 361.502H963.822L963.052 363H960.112ZM964.592 359.57H967.462L966.104 356.588H965.964L964.592 359.57ZM972.619 363V354.768H975.307V363H972.619ZM975.86 363L976.392 362.16L979.36 358.884L975.86 354.768H979.374L981.096 357.302H981.25L982.972 354.768H986.486L985.94 355.594L982.986 358.884L986.486 363H982.972L981.25 360.452H981.096L979.374 363H975.86ZM987.044 363L987.184 361.88V354.768H989.872V361.082H994.828L995.668 362.846C995.668 362.883 995.542 362.921 995.29 362.958C995.038 362.986 994.604 363 993.988 363H987.044ZM995.224 363L999.326 354.768H1002.97L1007.05 363H1004.04L1003.36 361.502H998.934L998.164 363H995.224ZM999.704 359.57H1002.57L1001.22 356.588H1001.08L999.704 359.57ZM1007.87 363V355.888L1007.73 354.768H1010.31L1014.25 358.772L1014.8 359.388H1014.95V354.768H1017.64V363H1015.3L1011.24 358.954L1010.7 358.296H1010.56V363H1007.87ZM1019.46 363V355.888L1019.32 354.768H1025.82C1026.95 354.768 1027.79 354.992 1028.35 355.44C1028.92 355.888 1029.21 356.588 1029.21 357.54V360.214C1029.21 361.185 1028.93 361.894 1028.37 362.342C1027.81 362.781 1026.96 363 1025.82 363H1019.46ZM1022.19 361.068H1025.4C1026.12 361.068 1026.48 360.737 1026.49 360.074V357.652C1026.49 357.381 1026.41 357.153 1026.25 356.966C1026.1 356.77 1025.81 356.672 1025.4 356.672H1022.19V361.068ZM1033.12 363V354.768H1035.81V363H1033.12ZM1037.62 363V355.888L1037.48 354.768H1040.06L1044.01 358.772L1044.55 359.388H1044.71V354.768H1047.39V363H1045.06L1041 358.954L1040.45 358.296H1040.31V363H1037.62ZM1049.22 363V355.888L1049.08 354.768H1055.57C1056.7 354.768 1057.55 354.992 1058.11 355.44C1058.68 355.888 1058.96 356.588 1058.96 357.54V360.214C1058.96 361.185 1058.68 361.894 1058.12 362.342C1057.56 362.781 1056.71 363 1055.57 363H1049.22ZM1051.95 361.068H1055.15C1055.87 361.068 1056.24 360.737 1056.24 360.074V357.652C1056.24 357.381 1056.17 357.153 1056.01 356.966C1055.85 356.77 1055.56 356.672 1055.15 356.672H1051.95V361.068ZM1062.99 363.14C1062.06 363.14 1061.35 362.921 1060.86 362.482C1060.38 362.043 1060.15 361.334 1060.15 360.354V354.768H1062.88V360.102C1062.88 360.541 1062.98 360.835 1063.2 360.984C1063.41 361.133 1063.68 361.208 1064 361.208H1065.8C1066.1 361.208 1066.36 361.133 1066.59 360.984C1066.81 360.825 1066.92 360.531 1066.92 360.102V354.768H1069.61V360.354C1069.61 361.334 1069.37 362.043 1068.9 362.482C1068.43 362.921 1067.73 363.14 1066.78 363.14H1062.99ZM1072.66 363C1072.02 363 1071.56 362.972 1071.26 362.916C1070.96 362.86 1070.81 362.795 1070.81 362.72L1071.65 360.914C1071.86 360.951 1072.31 360.989 1072.98 361.026C1073.65 361.054 1074.52 361.068 1075.6 361.068H1076.7C1077.03 361.068 1077.25 361.021 1077.36 360.928C1077.47 360.835 1077.53 360.699 1077.53 360.522V360.382C1077.53 360.158 1077.47 360.004 1077.36 359.92C1077.25 359.836 1077.03 359.794 1076.7 359.794H1073.5C1072.56 359.794 1071.87 359.621 1071.44 359.276C1071.01 358.921 1070.8 358.347 1070.8 357.554V357.05C1070.8 356.639 1070.87 356.261 1071.02 355.916C1071.18 355.571 1071.44 355.295 1071.82 355.09C1072.19 354.875 1072.7 354.768 1073.36 354.768H1078.01C1078.58 354.768 1079.05 354.801 1079.42 354.866C1079.8 354.931 1079.99 355.001 1079.99 355.076L1079.57 356.812C1079.31 356.784 1078.82 356.756 1078.09 356.728C1077.37 356.691 1076.46 356.672 1075.35 356.672L1074.34 356.658C1074.05 356.658 1073.84 356.7 1073.72 356.784C1073.6 356.859 1073.54 357.003 1073.53 357.218V357.316C1073.53 357.531 1073.59 357.68 1073.72 357.764C1073.85 357.848 1074.06 357.89 1074.35 357.89H1077.43C1078.03 357.89 1078.54 357.951 1078.96 358.072C1079.38 358.193 1079.7 358.417 1079.92 358.744C1080.15 359.061 1080.26 359.533 1080.26 360.158V360.662C1080.26 361.362 1080.08 361.927 1079.71 362.356C1079.36 362.785 1078.74 363 1077.85 363H1072.66ZM1084.15 363V356.658H1080.82V354.754H1090.24V356.658H1086.87V363H1084.15ZM1100.16 363.14C1099.79 363.14 1099.38 363.084 1098.92 362.972C1098.46 362.851 1098.01 362.561 1097.56 362.104L1096.97 361.516C1096.69 361.236 1096.42 361.007 1096.16 360.83C1095.91 360.653 1095.62 360.522 1095.29 360.438C1094.97 360.345 1094.56 360.298 1094.06 360.298H1093.95V363H1091.22V355.888L1091.08 354.754H1097.56C1098.16 354.754 1098.64 354.829 1099 354.978C1099.38 355.118 1099.66 355.309 1099.86 355.552C1100.06 355.785 1100.2 356.051 1100.28 356.35C1100.35 356.649 1100.39 356.952 1100.39 357.26V357.526C1100.39 358.086 1100.24 358.59 1099.95 359.038C1099.67 359.477 1099.23 359.789 1098.61 359.976C1098.84 360.116 1099.06 360.261 1099.27 360.41C1099.48 360.55 1099.73 360.699 1100 360.858C1100.3 361.035 1100.59 361.166 1100.85 361.25C1101.12 361.325 1101.35 361.371 1101.52 361.39C1101.7 361.409 1101.8 361.418 1101.83 361.418L1101.41 363C1101.3 363.028 1101.13 363.056 1100.89 363.084C1100.67 363.121 1100.43 363.14 1100.16 363.14ZM1095.57 358.436C1095.81 358.436 1096.03 358.431 1096.24 358.422C1096.47 358.413 1096.67 358.399 1096.85 358.38C1097.16 358.343 1097.38 358.245 1097.49 358.086C1097.61 357.918 1097.67 357.717 1097.67 357.484V357.33C1097.67 357.125 1097.61 356.966 1097.49 356.854C1097.38 356.742 1097.17 356.686 1096.86 356.686H1093.95V358.38C1094.18 358.389 1094.44 358.403 1094.72 358.422C1095 358.431 1095.28 358.436 1095.57 358.436ZM1102.54 363V354.768H1105.22V363H1102.54ZM1105.89 363L1109.99 354.768H1113.63L1117.72 363H1114.71L1114.02 361.502H1109.6L1108.83 363H1105.89ZM1110.37 359.57H1113.24L1111.88 356.588H1111.74L1110.37 359.57ZM1118.4 363L1118.54 361.88V354.768H1121.22V361.082H1126.18L1127.02 362.846C1127.02 362.883 1126.89 362.921 1126.64 362.958C1126.39 362.986 1125.96 363 1125.34 363H1118.4ZM1130.24 363V355.888L1130.1 354.768H1133.49L1135.95 359.668L1138.47 354.768H1141.68V363H1139.01V358.282H1138.85L1138.26 359.794L1137.24 362.16H1134.69L1133.63 359.794L1133.06 358.282H1132.92V363H1130.24ZM1143.36 363V354.768H1152.35V356.672H1146.09V357.834H1150.73V359.78H1146.09V361.082H1152.13L1152.97 362.846C1152.97 362.883 1152.84 362.921 1152.59 362.958C1152.34 362.986 1151.9 363 1151.29 363H1143.36ZM1156.3 363V356.658H1152.97V354.754H1162.39V356.658H1159.02V363H1156.3ZM1160.83 363L1164.93 354.768H1168.57L1172.66 363H1169.65L1168.96 361.502H1164.54L1163.77 363H1160.83ZM1165.31 359.57H1168.18L1166.82 356.588H1166.68L1165.31 359.57ZM1174.87 363L1171.09 354.782H1174.05L1176.12 359.738L1176.5 360.886H1176.62L1176.99 359.738L1179.1 354.782H1181.98L1181.76 355.622L1178.25 363H1174.87ZM1182.55 363V354.768H1191.54V356.672H1185.28V357.834H1189.91V359.78H1185.28V361.082H1191.31L1192.15 362.846C1192.15 362.883 1192.03 362.921 1191.78 362.958C1191.52 362.986 1191.09 363 1190.47 363H1182.55ZM1202.08 363.14C1201.71 363.14 1201.29 363.084 1200.84 362.972C1200.38 362.851 1199.93 362.561 1199.48 362.104L1198.89 361.516C1198.61 361.236 1198.34 361.007 1198.08 360.83C1197.83 360.653 1197.54 360.522 1197.21 360.438C1196.88 360.345 1196.47 360.298 1195.98 360.298H1195.87V363H1193.14V355.888L1193 354.754H1199.48C1200.07 354.754 1200.56 354.829 1200.92 354.978C1201.29 355.118 1201.58 355.309 1201.77 355.552C1201.98 355.785 1202.12 356.051 1202.19 356.35C1202.27 356.649 1202.31 356.952 1202.31 357.26V357.526C1202.31 358.086 1202.16 358.59 1201.87 359.038C1201.59 359.477 1201.14 359.789 1200.53 359.976C1200.76 360.116 1200.98 360.261 1201.19 360.41C1201.4 360.55 1201.64 360.699 1201.91 360.858C1202.22 361.035 1202.51 361.166 1202.77 361.25C1203.04 361.325 1203.26 361.371 1203.44 361.39C1203.62 361.409 1203.72 361.418 1203.75 361.418L1203.33 363C1203.22 363.028 1203.04 363.056 1202.81 363.084C1202.59 363.121 1202.34 363.14 1202.08 363.14ZM1197.49 358.436C1197.72 358.436 1197.95 358.431 1198.16 358.422C1198.39 358.413 1198.59 358.399 1198.76 358.38C1199.08 358.343 1199.3 358.245 1199.41 358.086C1199.53 357.918 1199.59 357.717 1199.59 357.484V357.33C1199.59 357.125 1199.53 356.966 1199.41 356.854C1199.3 356.742 1199.09 356.686 1198.78 356.686H1195.87V358.38C1196.1 358.389 1196.36 358.403 1196.64 358.422C1196.92 358.431 1197.2 358.436 1197.49 358.436ZM1206.03 363C1205.4 363 1204.93 362.972 1204.63 362.916C1204.34 362.86 1204.19 362.795 1204.19 362.72L1205.03 360.914C1205.24 360.951 1205.68 360.989 1206.36 361.026C1207.03 361.054 1207.9 361.068 1208.97 361.068H1210.08C1210.41 361.068 1210.63 361.021 1210.74 360.928C1210.85 360.835 1210.91 360.699 1210.91 360.522V360.382C1210.91 360.158 1210.85 360.004 1210.74 359.92C1210.63 359.836 1210.41 359.794 1210.08 359.794H1206.87C1205.93 359.794 1205.25 359.621 1204.82 359.276C1204.39 358.921 1204.17 358.347 1204.17 357.554V357.05C1204.17 356.639 1204.25 356.261 1204.4 355.916C1204.56 355.571 1204.82 355.295 1205.19 355.09C1205.57 354.875 1206.08 354.768 1206.73 354.768H1211.38C1211.95 354.768 1212.42 354.801 1212.8 354.866C1213.18 354.931 1213.37 355.001 1213.37 355.076L1212.95 356.812C1212.69 356.784 1212.19 356.756 1211.47 356.728C1210.75 356.691 1209.83 356.672 1208.72 356.672L1207.71 356.658C1207.43 356.658 1207.22 356.7 1207.1 356.784C1206.98 356.859 1206.91 357.003 1206.9 357.218V357.316C1206.9 357.531 1206.97 357.68 1207.1 357.764C1207.23 357.848 1207.44 357.89 1207.73 357.89H1210.81C1211.41 357.89 1211.91 357.951 1212.33 358.072C1212.75 358.193 1213.08 358.417 1213.3 358.744C1213.52 359.061 1213.64 359.533 1213.64 360.158V360.662C1213.64 361.362 1213.45 361.927 1213.09 362.356C1212.74 362.785 1212.12 363 1211.23 363H1206.03ZM1215.04 363V354.768H1224.02V356.672H1217.77V357.834H1222.4V359.78H1217.77V361.082H1223.8L1224.64 362.846C1224.64 362.883 1224.51 362.921 1224.26 362.958C1224.01 362.986 1223.58 363 1222.96 363H1215.04Z" fill="white"/>
<path d="M953.848 445.1C953.474 445.1 953.138 445.043 952.838 444.93C952.544 444.817 952.301 444.647 952.108 444.42C951.914 444.187 951.778 443.897 951.698 443.55H952.638C952.731 443.783 952.878 443.96 953.078 444.08C953.284 444.2 953.541 444.26 953.848 444.26C954.168 444.26 954.454 444.18 954.708 444.02C954.968 443.86 955.174 443.59 955.328 443.21C955.488 442.83 955.574 442.31 955.588 441.65C955.401 441.977 955.141 442.21 954.808 442.35C954.481 442.483 954.161 442.55 953.848 442.55C953.381 442.55 952.974 442.463 952.628 442.29C952.288 442.11 952.021 441.853 951.828 441.52C951.641 441.18 951.548 440.77 951.548 440.29V440.19C951.548 439.743 951.654 439.35 951.868 439.01C952.081 438.663 952.364 438.393 952.718 438.2C953.078 438 953.471 437.9 953.898 437.9C954.424 437.9 954.878 438.013 955.258 438.24C955.638 438.467 955.931 438.817 956.138 439.29C956.344 439.757 956.448 440.36 956.448 441.1V441.3C956.448 442.22 956.328 442.96 956.088 443.52C955.848 444.073 955.531 444.477 955.138 444.73C954.744 444.977 954.314 445.1 953.848 445.1ZM953.978 441.71C954.464 441.71 954.834 441.587 955.088 441.34C955.341 441.093 955.468 440.74 955.468 440.28V440.18C955.468 439.727 955.338 439.373 955.078 439.12C954.824 438.867 954.458 438.74 953.978 438.74C953.491 438.74 953.121 438.863 952.868 439.11C952.614 439.35 952.488 439.707 952.488 440.18V440.28C952.488 440.74 952.614 441.093 952.868 441.34C953.121 441.587 953.491 441.71 953.978 441.71Z" fill="white"/>
<path d="M968.398 445L970.918 438.82H967.198V438H971.898V438.77L969.398 445H968.398ZM972.75 445V444.18H974.42V439.03L972.75 440.22V439.2L974.44 438H975.38V444.18H976.75V445H972.75ZM977.354 445V444.23L980.154 441.8C980.44 441.56 980.66 441.35 980.814 441.17C980.967 440.983 981.07 440.807 981.124 440.64C981.184 440.473 981.214 440.293 981.214 440.1C981.214 439.707 981.097 439.383 980.864 439.13C980.63 438.87 980.31 438.74 979.904 438.74C979.417 438.74 979.044 438.873 978.784 439.14C978.524 439.4 978.394 439.77 978.394 440.25H977.454C977.454 439.79 977.554 439.383 977.754 439.03C977.96 438.677 978.247 438.4 978.614 438.2C978.987 438 979.417 437.9 979.904 437.9C980.377 437.9 980.78 437.997 981.114 438.19C981.454 438.377 981.71 438.637 981.884 438.97C982.064 439.297 982.154 439.673 982.154 440.1C982.154 440.42 982.09 440.713 981.964 440.98C981.837 441.24 981.66 441.487 981.434 441.72C981.214 441.953 980.957 442.197 980.664 442.45L978.574 444.18H982.254V445H977.354ZM985.505 445.1C984.998 445.1 984.565 445.013 984.205 444.84C983.851 444.66 983.578 444.42 983.385 444.12C983.198 443.813 983.105 443.473 983.105 443.1H984.045C984.045 443.44 984.161 443.72 984.395 443.94C984.628 444.153 984.998 444.26 985.505 444.26C986.011 444.26 986.381 444.15 986.615 443.93C986.848 443.703 986.965 443.41 986.965 443.05C986.965 442.677 986.845 442.377 986.605 442.15C986.371 441.917 986.005 441.8 985.505 441.8H984.755V441H985.505C985.985 441 986.331 440.9 986.545 440.7C986.758 440.493 986.865 440.21 986.865 439.85C986.865 439.503 986.761 439.233 986.555 439.04C986.348 438.84 985.998 438.74 985.505 438.74C985.031 438.74 984.685 438.843 984.465 439.05C984.251 439.25 984.145 439.5 984.145 439.8H983.205C983.205 439.447 983.295 439.127 983.475 438.84C983.655 438.553 983.915 438.327 984.255 438.16C984.601 437.987 985.018 437.9 985.505 437.9C985.998 437.9 986.415 437.987 986.755 438.16C987.101 438.327 987.361 438.55 987.535 438.83C987.715 439.11 987.805 439.417 987.805 439.75C987.805 440.15 987.698 440.49 987.485 440.77C987.278 441.043 986.985 441.237 986.605 441.35C987.005 441.477 987.321 441.683 987.555 441.97C987.788 442.257 987.905 442.65 987.905 443.15C987.905 443.503 987.811 443.83 987.625 444.13C987.438 444.423 987.165 444.66 986.805 444.84C986.451 445.013 986.018 445.1 985.505 445.1ZM992.164 445V443.31H988.604V442.59L992.064 438H993.104V442.49H994.004V443.31H993.104V445H992.164ZM989.604 442.49H992.164V439.1L989.604 442.49Z" fill="white"/>
<path d="M1125.1 445.1C1124.76 445.1 1124.44 445.043 1124.14 444.93C1123.84 444.81 1123.57 444.613 1123.34 444.34C1123.1 444.067 1122.92 443.7 1122.79 443.24C1122.66 442.773 1122.6 442.193 1122.6 441.5V441.3C1122.6 440.653 1122.66 440.113 1122.79 439.68C1122.92 439.24 1123.1 438.89 1123.34 438.63C1123.57 438.37 1123.84 438.183 1124.14 438.07C1124.44 437.957 1124.76 437.9 1125.1 437.9C1125.44 437.9 1125.76 437.957 1126.06 438.07C1126.36 438.183 1126.62 438.37 1126.86 438.63C1127.09 438.89 1127.27 439.24 1127.4 439.68C1127.53 440.113 1127.6 440.653 1127.6 441.3V441.5C1127.6 442.193 1127.53 442.773 1127.4 443.24C1127.27 443.7 1127.09 444.067 1126.86 444.34C1126.62 444.613 1126.36 444.81 1126.06 444.93C1125.76 445.043 1125.44 445.1 1125.1 445.1ZM1125.1 444.28C1125.31 444.28 1125.51 444.243 1125.7 444.17C1125.88 444.09 1126.05 443.95 1126.19 443.75C1126.33 443.543 1126.45 443.26 1126.53 442.9C1126.61 442.533 1126.66 442.067 1126.66 441.5V441.3C1126.66 440.607 1126.58 440.073 1126.44 439.7C1126.3 439.327 1126.11 439.07 1125.87 438.93C1125.63 438.79 1125.38 438.72 1125.1 438.72C1124.82 438.72 1124.56 438.79 1124.32 438.93C1124.08 439.07 1123.89 439.327 1123.75 439.7C1123.61 440.073 1123.54 440.607 1123.54 441.3V441.5C1123.54 442.067 1123.58 442.533 1123.66 442.9C1123.74 443.26 1123.86 443.543 1124 443.75C1124.14 443.95 1124.31 444.09 1124.5 444.17C1124.69 444.243 1124.89 444.28 1125.1 444.28ZM1130.95 445.1C1130.44 445.1 1130.01 445.013 1129.65 444.84C1129.3 444.66 1129.02 444.42 1128.83 444.12C1128.64 443.813 1128.55 443.473 1128.55 443.1H1129.49C1129.49 443.44 1129.61 443.72 1129.84 443.94C1130.07 444.153 1130.44 444.26 1130.95 444.26C1131.46 444.26 1131.83 444.15 1132.06 443.93C1132.29 443.703 1132.41 443.41 1132.41 443.05C1132.41 442.677 1132.29 442.377 1132.05 442.15C1131.82 441.917 1131.45 441.8 1130.95 441.8H1130.2V441H1130.95C1131.43 441 1131.78 440.9 1131.99 440.7C1132.2 440.493 1132.31 440.21 1132.31 439.85C1132.31 439.503 1132.21 439.233 1132 439.04C1131.79 438.84 1131.44 438.74 1130.95 438.74C1130.48 438.74 1130.13 438.843 1129.91 439.05C1129.7 439.25 1129.59 439.5 1129.59 439.8H1128.65C1128.65 439.447 1128.74 439.127 1128.92 438.84C1129.1 438.553 1129.36 438.327 1129.7 438.16C1130.05 437.987 1130.46 437.9 1130.95 437.9C1131.44 437.9 1131.86 437.987 1132.2 438.16C1132.55 438.327 1132.81 438.55 1132.98 438.83C1133.16 439.11 1133.25 439.417 1133.25 439.75C1133.25 440.15 1133.14 440.49 1132.93 440.77C1132.72 441.043 1132.43 441.237 1132.05 441.35C1132.45 441.477 1132.77 441.683 1133 441.97C1133.23 442.257 1133.35 442.65 1133.35 443.15C1133.35 443.503 1133.26 443.83 1133.07 444.13C1132.88 444.423 1132.61 444.66 1132.25 444.84C1131.9 445.013 1131.46 445.1 1130.95 445.1ZM1135.25 445L1137.77 438.82H1134.05V438H1138.75V438.77L1136.25 445H1135.25ZM1141.9 445.1C1141.39 445.1 1140.96 445.013 1140.6 444.84C1140.25 444.66 1139.97 444.42 1139.78 444.12C1139.59 443.813 1139.5 443.473 1139.5 443.1H1140.44C1140.44 443.44 1140.56 443.72 1140.79 443.94C1141.02 444.153 1141.39 444.26 1141.9 444.26C1142.41 444.26 1142.78 444.15 1143.01 443.93C1143.24 443.703 1143.36 443.41 1143.36 443.05C1143.36 442.677 1143.24 442.377 1143 442.15C1142.77 441.917 1142.4 441.8 1141.9 441.8H1141.15V441H1141.9C1142.38 441 1142.73 440.9 1142.94 440.7C1143.15 440.493 1143.26 440.21 1143.26 439.85C1143.26 439.503 1143.16 439.233 1142.95 439.04C1142.74 438.84 1142.39 438.74 1141.9 438.74C1141.43 438.74 1141.08 438.843 1140.86 439.05C1140.65 439.25 1140.54 439.5 1140.54 439.8H1139.6C1139.6 439.447 1139.69 439.127 1139.87 438.84C1140.05 438.553 1140.31 438.327 1140.65 438.16C1141 437.987 1141.41 437.9 1141.9 437.9C1142.39 437.9 1142.81 437.987 1143.15 438.16C1143.5 438.327 1143.76 438.55 1143.93 438.83C1144.11 439.11 1144.2 439.417 1144.2 439.75C1144.2 440.15 1144.09 440.49 1143.88 440.77C1143.67 441.043 1143.38 441.237 1143 441.35C1143.4 441.477 1143.72 441.683 1143.95 441.97C1144.18 442.257 1144.3 442.65 1144.3 443.15C1144.3 443.503 1144.21 443.83 1144.02 444.13C1143.83 444.423 1143.56 444.66 1143.2 444.84C1142.85 445.013 1142.41 445.1 1141.9 445.1ZM1148.56 445V443.31H1145V442.59L1148.46 438H1149.5V442.49H1150.4V443.31H1149.5V445H1148.56ZM1146 442.49H1148.56V439.1L1146 442.49ZM1153.85 445.1C1153.3 445.1 1152.84 445.017 1152.46 444.85C1152.1 444.677 1151.82 444.443 1151.63 444.15C1151.45 443.85 1151.35 443.517 1151.35 443.15C1151.35 442.75 1151.48 442.393 1151.73 442.08C1151.99 441.76 1152.36 441.533 1152.85 441.4C1152.49 441.28 1152.19 441.077 1151.93 440.79C1151.68 440.503 1151.55 440.157 1151.55 439.75C1151.55 439.403 1151.64 439.09 1151.81 438.81C1151.99 438.53 1152.25 438.31 1152.59 438.15C1152.94 437.983 1153.36 437.9 1153.85 437.9C1154.35 437.9 1154.77 437.983 1155.11 438.15C1155.45 438.31 1155.71 438.53 1155.88 438.81C1156.06 439.09 1156.15 439.403 1156.15 439.75C1156.15 440.15 1156.03 440.49 1155.77 440.77C1155.53 441.05 1155.22 441.26 1154.85 441.4C1155.35 441.567 1155.73 441.787 1155.97 442.06C1156.23 442.333 1156.35 442.697 1156.35 443.15C1156.35 443.517 1156.26 443.85 1156.07 444.15C1155.89 444.443 1155.61 444.677 1155.23 444.85C1154.87 445.017 1154.41 445.1 1153.85 445.1ZM1153.85 444.26C1154.24 444.26 1154.55 444.207 1154.77 444.1C1155 443.993 1155.16 443.853 1155.26 443.68C1155.36 443.5 1155.41 443.303 1155.41 443.09C1155.41 442.717 1155.27 442.413 1154.97 442.18C1154.68 441.947 1154.31 441.803 1153.85 441.75C1153.4 441.803 1153.03 441.943 1152.73 442.17C1152.44 442.397 1152.29 442.703 1152.29 443.09C1152.29 443.303 1152.34 443.5 1152.44 443.68C1152.54 443.853 1152.71 443.993 1152.93 444.1C1153.16 444.207 1153.47 444.26 1153.85 444.26ZM1153.85 441.05C1154.25 440.997 1154.58 440.87 1154.83 440.67C1155.09 440.463 1155.21 440.173 1155.21 439.8C1155.21 439.46 1155.1 439.2 1154.87 439.02C1154.65 438.833 1154.31 438.74 1153.85 438.74C1153.39 438.74 1153.04 438.833 1152.82 439.02C1152.6 439.2 1152.49 439.46 1152.49 439.8C1152.49 440.173 1152.62 440.463 1152.87 440.67C1153.13 440.87 1153.45 440.997 1153.85 441.05ZM1157.21 445V444.23L1160.01 441.8C1160.29 441.56 1160.51 441.35 1160.67 441.17C1160.82 440.983 1160.92 440.807 1160.98 440.64C1161.04 440.473 1161.07 440.293 1161.07 440.1C1161.07 439.707 1160.95 439.383 1160.72 439.13C1160.48 438.87 1160.16 438.74 1159.76 438.74C1159.27 438.74 1158.9 438.873 1158.64 439.14C1158.38 439.4 1158.25 439.77 1158.25 440.25H1157.31C1157.31 439.79 1157.41 439.383 1157.61 439.03C1157.81 438.677 1158.1 438.4 1158.47 438.2C1158.84 438 1159.27 437.9 1159.76 437.9C1160.23 437.9 1160.63 437.997 1160.97 438.19C1161.31 438.377 1161.56 438.637 1161.74 438.97C1161.92 439.297 1162.01 439.673 1162.01 440.1C1162.01 440.42 1161.94 440.713 1161.82 440.98C1161.69 441.24 1161.51 441.487 1161.29 441.72C1161.07 441.953 1160.81 442.197 1160.52 442.45L1158.43 444.18H1162.11V445H1157.21Z" fill="white"/>
<path d="M1175.85 445.1C1175.34 445.1 1174.91 445.013 1174.55 444.84C1174.19 444.66 1173.92 444.42 1173.73 444.12C1173.54 443.813 1173.45 443.473 1173.45 443.1H1174.39C1174.39 443.44 1174.5 443.72 1174.74 443.94C1174.97 444.153 1175.34 444.26 1175.85 444.26C1176.35 444.26 1176.72 444.15 1176.96 443.93C1177.19 443.703 1177.31 443.41 1177.31 443.05C1177.31 442.677 1177.19 442.377 1176.95 442.15C1176.71 441.917 1176.35 441.8 1175.85 441.8H1175.1V441H1175.85C1176.33 441 1176.67 440.9 1176.89 440.7C1177.1 440.493 1177.21 440.21 1177.21 439.85C1177.21 439.503 1177.1 439.233 1176.9 439.04C1176.69 438.84 1176.34 438.74 1175.85 438.74C1175.37 438.74 1175.03 438.843 1174.81 439.05C1174.59 439.25 1174.49 439.5 1174.49 439.8H1173.55C1173.55 439.447 1173.64 439.127 1173.82 438.84C1174 438.553 1174.26 438.327 1174.6 438.16C1174.94 437.987 1175.36 437.9 1175.85 437.9C1176.34 437.9 1176.76 437.987 1177.1 438.16C1177.44 438.327 1177.7 438.55 1177.88 438.83C1178.06 439.11 1178.15 439.417 1178.15 439.75C1178.15 440.15 1178.04 440.49 1177.83 440.77C1177.62 441.043 1177.33 441.237 1176.95 441.35C1177.35 441.477 1177.66 441.683 1177.9 441.97C1178.13 442.257 1178.25 442.65 1178.25 443.15C1178.25 443.503 1178.15 443.83 1177.97 444.13C1177.78 444.423 1177.51 444.66 1177.15 444.84C1176.79 445.013 1176.36 445.1 1175.85 445.1ZM1182.51 445V443.31H1178.95V442.59L1182.41 438H1183.45V442.49H1184.35V443.31H1183.45V445H1182.51ZM1179.95 442.49H1182.51V439.1L1179.95 442.49Z" fill="white"/>
<path d="M1196.4 445L1198.92 438.82H1195.2V438H1199.9V438.77L1197.4 445H1196.4ZM1203.35 445.1C1202.58 445.1 1201.96 444.843 1201.49 444.33C1201.03 443.81 1200.8 443 1200.8 441.9V441.7C1200.8 440.78 1200.92 440.043 1201.16 439.49C1201.4 438.93 1201.72 438.527 1202.12 438.28C1202.52 438.027 1202.96 437.9 1203.45 437.9C1203.81 437.9 1204.13 437.957 1204.42 438.07C1204.71 438.183 1204.95 438.357 1205.14 438.59C1205.33 438.817 1205.47 439.103 1205.55 439.45H1204.61C1204.52 439.217 1204.37 439.04 1204.18 438.92C1203.99 438.8 1203.74 438.74 1203.45 438.74C1203.12 438.74 1202.82 438.82 1202.55 438.98C1202.29 439.14 1202.08 439.41 1201.92 439.79C1201.77 440.163 1201.68 440.683 1201.66 441.35C1201.85 441.023 1202.11 440.793 1202.44 440.66C1202.77 440.52 1203.09 440.45 1203.4 440.45C1203.87 440.45 1204.27 440.54 1204.61 440.72C1204.96 440.893 1205.22 441.147 1205.41 441.48C1205.6 441.813 1205.7 442.223 1205.7 442.71V442.81C1205.7 443.25 1205.59 443.643 1205.38 443.99C1205.17 444.337 1204.88 444.61 1204.53 444.81C1204.18 445.003 1203.78 445.1 1203.35 445.1ZM1203.27 444.26C1203.76 444.26 1204.13 444.137 1204.38 443.89C1204.63 443.643 1204.76 443.287 1204.76 442.82V442.72C1204.76 442.26 1204.63 441.907 1204.38 441.66C1204.13 441.413 1203.76 441.29 1203.27 441.29C1202.78 441.29 1202.41 441.413 1202.16 441.66C1201.91 441.907 1201.78 442.26 1201.78 442.72V442.82C1201.78 443.28 1201.91 443.637 1202.16 443.89C1202.41 444.137 1202.78 444.26 1203.27 444.26ZM1206.55 445V444.23L1209.35 441.8C1209.64 441.56 1209.86 441.35 1210.01 441.17C1210.17 440.983 1210.27 440.807 1210.32 440.64C1210.38 440.473 1210.41 440.293 1210.41 440.1C1210.41 439.707 1210.3 439.383 1210.06 439.13C1209.83 438.87 1209.51 438.74 1209.1 438.74C1208.62 438.74 1208.24 438.873 1207.98 439.14C1207.72 439.4 1207.59 439.77 1207.59 440.25H1206.65C1206.65 439.79 1206.75 439.383 1206.95 439.03C1207.16 438.677 1207.45 438.4 1207.81 438.2C1208.19 438 1208.62 437.9 1209.1 437.9C1209.58 437.9 1209.98 437.997 1210.31 438.19C1210.65 438.377 1210.91 438.637 1211.08 438.97C1211.26 439.297 1211.35 439.673 1211.35 440.1C1211.35 440.42 1211.29 440.713 1211.16 440.98C1211.04 441.24 1210.86 441.487 1210.63 441.72C1210.41 441.953 1210.16 442.197 1209.86 442.45L1207.77 444.18H1211.45V445H1206.55ZM1212.41 445V444.18H1214.08V439.03L1212.41 440.22V439.2L1214.1 438H1215.04V444.18H1216.41V445H1212.41ZM1220.37 445V443.31H1216.81V442.59L1220.27 438H1221.31V442.49H1222.21V443.31H1221.31V445H1220.37ZM1217.81 442.49H1220.37V439.1L1217.81 442.49ZM1225.46 445.1C1224.96 445.1 1224.52 445.013 1224.16 444.84C1223.81 444.66 1223.54 444.42 1223.34 444.12C1223.16 443.813 1223.06 443.473 1223.06 443.1H1224C1224 443.44 1224.12 443.72 1224.35 443.94C1224.59 444.153 1224.96 444.26 1225.46 444.26C1225.97 444.26 1226.34 444.15 1226.57 443.93C1226.81 443.703 1226.92 443.41 1226.92 443.05C1226.92 442.677 1226.8 442.377 1226.56 442.15C1226.33 441.917 1225.96 441.8 1225.46 441.8H1224.71V441H1225.46C1225.94 441 1226.29 440.9 1226.5 440.7C1226.72 440.493 1226.82 440.21 1226.82 439.85C1226.82 439.503 1226.72 439.233 1226.51 439.04C1226.31 438.84 1225.96 438.74 1225.46 438.74C1224.99 438.74 1224.64 438.843 1224.42 439.05C1224.21 439.25 1224.1 439.5 1224.1 439.8H1223.16C1223.16 439.447 1223.25 439.127 1223.43 438.84C1223.61 438.553 1223.87 438.327 1224.21 438.16C1224.56 437.987 1224.98 437.9 1225.46 437.9C1225.96 437.9 1226.37 437.987 1226.71 438.16C1227.06 438.327 1227.32 438.55 1227.49 438.83C1227.67 439.11 1227.76 439.417 1227.76 439.75C1227.76 440.15 1227.66 440.49 1227.44 440.77C1227.24 441.043 1226.94 441.237 1226.56 441.35C1226.96 441.477 1227.28 441.683 1227.51 441.97C1227.75 442.257 1227.86 442.65 1227.86 443.15C1227.86 443.503 1227.77 443.83 1227.58 444.13C1227.4 444.423 1227.12 444.66 1226.76 444.84C1226.41 445.013 1225.98 445.1 1225.46 445.1ZM1229.76 445L1232.28 438.82H1228.56V438H1233.26V438.77L1230.76 445H1229.76Z" fill="white"/>
<rect x="954.537" y="379" width="1.17917" height="54" fill="white"/>
<rect x="963.966" y="379" width="1.17917" height="54" fill="white"/>
<rect x="966.326" y="379" width="1.17917" height="54" fill="white"/>
<rect x="968.685" y="379" width="1.17917" height="54" fill="white"/>
<rect x="981.654" y="379" width="1.17917" height="54" fill="white"/>
<rect x="984.013" y="379" width="1.17917" height="54" fill="white"/>
<rect x="986.373" y="379" width="1.17917" height="54" fill="white"/>
<rect x="988.732" y="379" width="1.17917" height="54" fill="white"/>
<rect x="991.091" y="379" width="1.17917" height="54" fill="white"/>
<rect x="1169.14" y="379" width="1.17917" height="54" fill="white"/>
<rect x="993.451" y="379" width="1.17917" height="54" fill="white"/>
<rect x="1171.5" y="379" width="1.17917" height="54" fill="white"/>
<rect x="1002.88" y="379" width="1.17917" height="54" fill="white"/>
<rect x="1180.94" y="379" width="1.17917" height="54" fill="white"/>
<rect x="1005.24" y="379" width="1.17917" height="54" fill="white"/>
<rect x="1183.29" y="379" width="1.17917" height="54" fill="white"/>
<rect x="1007.6" y="379" width="1.17917" height="54" fill="white"/>
<rect x="1185.65" y="379" width="1.17917" height="54" fill="white"/>
<rect x="1017.03" y="379" width="1.17917" height="54" fill="white"/>
<rect x="1195.08" y="379" width="1.17917" height="54" fill="white"/>
<rect x="1019.39" y="379" width="1.17917" height="54" fill="white"/>
<rect x="1197.44" y="379" width="1.17917" height="54" fill="white"/>
<rect x="1021.75" y="379" width="1.17917" height="54" fill="white"/>
<rect x="1199.8" y="379" width="1.17917" height="54" fill="white"/>
<rect x="1028.83" y="379" width="1.17917" height="54" fill="white"/>
<rect x="1206.87" y="379" width="1.17917" height="54" fill="white"/>
<rect x="1038.26" y="379" width="1.17917" height="54" fill="white"/>
<rect x="1216.31" y="379" width="1.17917" height="54" fill="white"/>
<rect x="1031.19" y="379" width="1.17917" height="54" fill="white"/>
<rect x="1209.23" y="379" width="1.17917" height="54" fill="white"/>
<rect x="1040.61" y="379" width="1.17917" height="54" fill="white"/>
<rect x="1218.67" y="379" width="1.17917" height="54" fill="white"/>
<rect x="1033.54" y="379" width="1.17917" height="54" fill="white"/>
<rect x="1211.59" y="379" width="1.17917" height="54" fill="white"/>
<rect x="1042.97" y="379" width="1.17917" height="54" fill="white"/>
<rect x="1221.03" y="379" width="1.17917" height="54" fill="white"/>
<rect x="1035.9" y="379" width="1.17917" height="54" fill="white"/>
<rect x="1213.95" y="379" width="1.17917" height="54" fill="white"/>
<rect x="1045.33" y="379" width="1.17917" height="54" fill="white"/>
<rect x="1223.39" y="379" width="1.17917" height="54" fill="white"/>
<rect x="1047.69" y="379" width="1.17917" height="54" fill="white"/>
<rect x="1225.75" y="379" width="1.17917" height="54" fill="white"/>
<rect x="1061.84" y="379" width="1.17917" height="54" fill="white"/>
<rect x="995.81" y="379" width="2.35833" height="54" fill="white"/>
<rect x="1173.86" y="379" width="2.35833" height="54" fill="white"/>
<rect x="999.341" y="379" width="2.35833" height="54" fill="white"/>
<rect x="1177.4" y="379" width="2.35833" height="54" fill="white"/>
<rect x="1024.11" y="379" width="3.5375" height="54" fill="white"/>
<rect x="1202.16" y="379" width="3.5375" height="54" fill="white"/>
<rect x="1057.12" y="379" width="3.5375" height="54" fill="white"/>
<rect x="978.123" y="379" width="2.35833" height="54" fill="white"/>
<rect x="956.888" y="379" width="5.89583" height="54" fill="white"/>
<rect x="971.044" y="379" width="5.89583" height="54" fill="white"/>
<rect x="1009.95" y="379" width="5.89583" height="54" fill="white"/>
<rect x="1188.01" y="379" width="5.89583" height="54" fill="white"/>
<rect x="1050.04" y="379" width="5.89583" height="54" fill="white"/>
<rect x="1228.11" y="379" width="5.89583" height="54" fill="white"/>
<rect x="1071.27" y="379" width="1.17917" height="54" fill="white"/>
<rect x="1073.63" y="379" width="1.17917" height="54" fill="white"/>
<rect x="1075.99" y="379" width="1.17917" height="54" fill="white"/>
<rect x="1088.96" y="379" width="1.17917" height="54" fill="white"/>
<rect x="1091.32" y="379" width="1.17917" height="54" fill="white"/>
<rect x="1093.68" y="379" width="1.17917" height="54" fill="white"/>
<rect x="1096.04" y="379" width="1.17917" height="54" fill="white"/>
<rect x="1098.39" y="379" width="1.17917" height="54" fill="white"/>
<rect x="1100.75" y="379" width="1.17917" height="54" fill="white"/>
<rect x="1110.19" y="379" width="1.17917" height="54" fill="white"/>
<rect x="1112.54" y="379" width="1.17917" height="54" fill="white"/>
<rect x="1114.9" y="379" width="1.17917" height="54" fill="white"/>
<rect x="1124.33" y="379" width="1.17917" height="54" fill="white"/>
<rect x="1126.69" y="379" width="1.17917" height="54" fill="white"/>
<rect x="1129.05" y="379" width="1.17917" height="54" fill="white"/>
<rect x="1136.12" y="379" width="1.17917" height="54" fill="white"/>
<rect x="1145.56" y="379" width="1.17917" height="54" fill="white"/>
<rect x="1138.48" y="379" width="1.17917" height="54" fill="white"/>
<rect x="1147.92" y="379" width="1.17917" height="54" fill="white"/>
<rect x="1140.84" y="379" width="1.17917" height="54" fill="white"/>
<rect x="1150.28" y="379" width="1.17917" height="54" fill="white"/>
<rect x="1143.2" y="379" width="1.17917" height="54" fill="white"/>
<rect x="1152.64" y="379" width="1.17917" height="54" fill="white"/>
<rect x="1155" y="379" width="1.17917" height="54" fill="white"/>
<rect x="950.998" y="379" width="2.35833" height="54" fill="white"/>
<rect x="1103.11" y="379" width="2.35833" height="54" fill="white"/>
<rect x="1106.65" y="379" width="2.35833" height="54" fill="white"/>
<rect x="1131.41" y="379" width="3.5375" height="54" fill="white"/>
<rect x="1164.43" y="379" width="3.5375" height="54" fill="white"/>
<rect x="1085.42" y="379" width="2.35833" height="54" fill="white"/>
<rect x="1064.2" y="379" width="5.89583" height="54" fill="white"/>
<rect x="1078.35" y="379" width="5.89583" height="54" fill="white"/>
<rect x="1117.26" y="379" width="5.89583" height="54" fill="white"/>
<rect x="1157.36" y="379" width="5.89583" height="54" fill="white"/>
<rect x="1444" y="382" width="63" height="63" rx="31.5" fill="white" fill-opacity="0.5"/>
<path d="M1476 424C1481.52 424 1486 419.523 1486 414C1486 408.477 1481.52 404 1476 404C1470.48 404 1466 408.477 1466 414C1466 419.523 1470.48 424 1476 424Z" stroke="white" stroke-width="2" stroke-linecap="round" stroke-linejoin="round"/>
<path d="M1466 414H1486" stroke="white" stroke-width="2" stroke-linecap="round" stroke-linejoin="round"/>
<path d="M1476 404C1478.5 406.738 1479.92 410.292 1480 414C1479.92 417.708 1478.5 421.262 1476 424C1473.5 421.262 1472.08 417.708 1472 414C1472.08 410.292 1473.5 406.738 1476 404Z" stroke="white" stroke-width="2" stroke-linecap="round" stroke-linejoin="round"/>
<path d="M1645.36 420.5L1640 420.5L1645.64 406.5L1651 406.5L1645.36 420.5Z" fill="white" fill-opacity="0.5"/>
<path d="M1600.36 420.5L1595 420.5L1600.64 406.5L1606 406.5L1600.36 420.5Z" fill="white" fill-opacity="0.5"/>
<path d="M1586.36 420.5L1581 420.5L1586.64 406.5L1592 406.5L1586.36 420.5Z" fill="white" fill-opacity="0.5"/>
<path d="M1638.36 420.5L1633 420.5L1638.64 406.5L1644 406.5L1638.36 420.5Z" fill="white" fill-opacity="0.5"/>
<path d="M1593.36 420.5L1588 420.5L1593.64 406.5L1599 406.5L1593.36 420.5Z" fill="white" fill-opacity="0.5"/>
<path d="M1579.36 420.5L1574 420.5L1579.64 406.5L1585 406.5L1579.36 420.5Z" fill="white" fill-opacity="0.5"/>
<path d="M1631.12 420.5L1602 420.5L1607.88 406.5L1637 406.5L1631.12 420.5Z" fill="white" fill-opacity="0.5"/>
<rect x="1718" y="382" width="63" height="63" rx="31.5" fill="white" fill-opacity="0.5"/>
<path d="M1758 417.998V409.998C1758 409.647 1757.91 409.303 1757.73 408.999C1757.56 408.695 1757.3 408.443 1757 408.268L1750 404.268C1749.7 404.092 1749.35 404 1749 404C1748.65 404 1748.3 404.092 1748 404.268L1741 408.268C1740.7 408.443 1740.44 408.695 1740.27 408.999C1740.09 409.303 1740 409.647 1740 409.998V417.998C1740 418.349 1740.09 418.693 1740.27 418.997C1740.44 419.3 1740.7 419.553 1741 419.728L1748 423.728C1748.3 423.903 1748.65 423.996 1749 423.996C1749.35 423.996 1749.7 423.903 1750 423.728L1757 419.728C1757.3 419.553 1757.56 419.3 1757.73 418.997C1757.91 418.693 1758 418.349 1758 417.998Z" stroke="white" stroke-width="2" stroke-linecap="round" stroke-linejoin="round"/>
<path d="M1744.5 406.211L1749 408.811L1753.5 406.211" stroke="white" stroke-width="2" stroke-linecap="round" stroke-linejoin="round"/>
<path d="M1744.5 421.79V416.6L1740 414" stroke="white" stroke-width="2" stroke-linecap="round" stroke-linejoin="round"/>
<path d="M1758 414L1753.5 416.6V421.79" stroke="white" stroke-width="2" stroke-linecap="round" stroke-linejoin="round"/>
<path d="M1740.27 408.961L1749 414.011L1757.73 408.961" stroke="white" stroke-width="2" stroke-linecap="round" stroke-linejoin="round"/>
<path d="M1749 424.08V414" stroke="white" stroke-width="2" stroke-linecap="round" stroke-linejoin="round"/>
<rect x="1789" y="382" width="63" height="63" rx="31.5" fill="white" fill-opacity="0.5"/>
<path d="M1820 404L1830 410.5V417.5L1820 424L1810 417.5V410.5L1820 404Z" stroke="white" stroke-width="2" stroke-linecap="round" stroke-linejoin="round"/>
<path d="M1820 424V417.5" stroke="white" stroke-width="2" stroke-linecap="round" stroke-linejoin="round"/>
<path d="M1830 410.5L1820 417.5L1810 410.5" stroke="white" stroke-width="2" stroke-linecap="round" stroke-linejoin="round"/>
<path d="M1810 417.5L1820 410.5L1830 417.5" stroke="white" stroke-width="2" stroke-linecap="round" stroke-linejoin="round"/>
<path d="M1820 404V410.5" stroke="white" stroke-width="2" stroke-linecap="round" stroke-linejoin="round"/>
</svg>
