<svg width="1727" height="1253" viewBox="0 0 1727 1253" fill="none" xmlns="http://www.w3.org/2000/svg">
<path fill-rule="evenodd" clip-rule="evenodd" d="M609.119 0.318138C613.423 1.61303 622.09 7.62281 627.592 13.1284C632.06 17.5984 639.822 29.2804 643.88 37.638C648.322 46.7884 649.208 48.6624 653.858 62.6764C656.007 69.1559 664.618 94.2849 671.029 113.048C677.441 131.81 690.611 170.431 700.297 198.871C709.982 227.311 727.323 278.213 738.833 311.985C750.343 345.758 762.285 380.823 765.371 389.908C768.458 398.994 783.509 443.27 798.82 488.3C832.16 586.362 841.84 616.571 841.333 617.337C840.472 617.337 801.517 616.855 753.314 616.855C660.358 616.855 605.469 616.772 598.396 613.5C594.016 611.473 586.536 605.559 582.214 600.703C575.074 592.683 567.34 578.703 561.352 562.991C559.032 556.904 550.439 531.9 530.995 474.654C513.633 423.539 475.596 311.762 463.665 276.794C459.015 263.167 451.461 241.028 446.878 227.598C442.295 214.168 431.429 182.173 422.73 156.498C414.032 130.823 406.755 109.493 406.56 109.098C405.317 106.585 368.359 1.42248 368.381 0.316775C369.354 0.315939 606.745 -0.396458 609.119 0.318138Z" fill="url(#paint0_radial_2001_7516)" fill-opacity="0.4"/>
<path d="M345.868 0.311158H368.39L392.644 69.8174L382.41 40.3767C376.223 22.579 363.015 8.09784 345.868 0.311158Z" fill="url(#paint1_radial_2001_7516)" fill-opacity="0.4"/>
<path d="M863.874 617.337H841.353L817.098 547.831L827.333 577.271C833.52 595.069 846.727 609.55 863.874 617.337Z" fill="url(#paint2_radial_2001_7516)" fill-opacity="0.4"/>
<path fill-rule="evenodd" clip-rule="evenodd" d="M1119.13 0.318138C1114.83 1.61303 1106.16 7.62281 1100.66 13.1284C1096.19 17.5984 1088.43 29.2804 1084.37 37.638C1079.93 46.7884 1079.05 48.6624 1074.4 62.6764C1072.25 69.1559 1063.64 94.2849 1057.22 113.048C1050.81 131.81 1037.64 170.431 1027.96 198.871C1018.27 227.311 1000.93 278.213 989.421 311.985C977.911 345.758 965.969 380.823 962.883 389.908C959.796 398.994 944.744 443.27 929.434 488.3C896.093 586.362 886.413 616.571 886.921 617.337C887.782 617.337 926.736 616.855 974.939 616.855C1067.9 616.855 1122.78 616.772 1129.86 613.5C1134.24 611.473 1141.72 605.559 1146.04 600.703C1153.18 592.683 1160.91 578.703 1166.9 562.991C1169.22 556.904 1177.81 531.9 1197.26 474.654C1214.62 423.539 1252.66 311.762 1264.59 276.794C1269.24 263.167 1276.79 241.028 1281.38 227.598C1285.96 214.168 1296.82 182.173 1305.52 156.498C1314.22 130.823 1321.5 109.493 1321.69 109.098C1322.94 106.585 1359.89 1.42248 1359.87 0.316775C1358.9 0.315939 1121.51 -0.396458 1119.13 0.318138Z" fill="url(#paint3_radial_2001_7516)" fill-opacity="0.4"/>
<path d="M1382.39 0.311158H1359.86L1335.61 69.8174L1345.84 40.3767C1352.03 22.579 1365.24 8.09784 1382.39 0.311158Z" fill="url(#paint4_radial_2001_7516)" fill-opacity="0.4"/>
<path d="M864.379 617.337H886.901L911.155 547.831L900.921 577.271C894.734 595.069 881.527 609.55 864.379 617.337Z" fill="url(#paint5_radial_2001_7516)" fill-opacity="0.4"/>
<path fill-rule="evenodd" clip-rule="evenodd" d="M1119.13 1252.68C1114.83 1251.39 1106.16 1245.38 1100.66 1239.87C1096.19 1235.4 1088.43 1223.72 1084.37 1215.36C1079.93 1206.21 1079.05 1204.34 1074.4 1190.32C1072.25 1183.84 1063.64 1158.72 1057.22 1139.95C1050.81 1121.19 1037.64 1082.57 1027.96 1054.13C1018.27 1025.69 1000.93 974.787 989.421 941.015C977.911 907.242 965.969 872.177 962.883 863.092C959.796 854.006 944.744 809.73 929.434 764.7C896.093 666.638 886.413 636.429 886.921 635.663C887.782 635.663 926.736 636.145 974.939 636.145C1067.9 636.145 1122.78 636.228 1129.86 639.5C1134.24 641.527 1141.72 647.441 1146.04 652.297C1153.18 660.317 1160.91 674.297 1166.9 690.009C1169.22 696.096 1177.81 721.1 1197.26 778.346C1214.62 829.461 1252.66 941.238 1264.59 976.206C1269.24 989.834 1276.79 1011.97 1281.38 1025.4C1285.96 1038.83 1296.82 1070.83 1305.52 1096.5C1314.22 1122.18 1321.5 1143.51 1321.69 1143.9C1322.94 1146.42 1359.89 1251.58 1359.87 1252.68C1358.9 1252.68 1121.51 1253.4 1119.13 1252.68Z" fill="url(#paint6_radial_2001_7516)" fill-opacity="0.4"/>
<path d="M1382.39 1252.69H1359.86L1335.61 1183.18L1345.84 1212.62C1352.03 1230.42 1365.24 1244.9 1382.39 1252.69Z" fill="url(#paint7_radial_2001_7516)" fill-opacity="0.4"/>
<path d="M864.379 635.663H886.901L911.155 705.169L900.921 675.729C894.734 657.931 881.527 643.45 864.379 635.663Z" fill="url(#paint8_radial_2001_7516)" fill-opacity="0.4"/>
<path fill-rule="evenodd" clip-rule="evenodd" d="M607.875 1252.68C612.179 1251.39 620.846 1245.38 626.348 1239.87C630.816 1235.4 638.579 1223.72 642.636 1215.36C647.078 1206.21 647.965 1204.34 652.614 1190.32C654.763 1183.84 663.374 1158.72 669.786 1139.95C676.198 1121.19 689.368 1082.57 699.053 1054.13C708.738 1025.69 726.079 974.787 737.589 941.015C749.099 907.242 761.041 872.177 764.127 863.092C767.214 854.006 782.266 809.73 797.576 764.7C830.917 666.638 840.597 636.429 840.089 635.663C839.228 635.663 800.274 636.145 752.071 636.145C659.114 636.145 604.225 636.228 597.152 639.5C592.772 641.527 585.293 647.441 580.971 652.297C573.83 660.317 566.097 674.297 560.109 690.009C557.789 696.096 549.196 721.1 529.751 778.346C512.389 829.461 474.352 941.238 462.421 976.206C457.771 989.834 450.218 1011.97 445.634 1025.4C441.052 1038.83 430.185 1070.83 421.486 1096.5C412.788 1122.18 405.512 1143.51 405.316 1143.9C404.073 1146.42 367.116 1251.58 367.138 1252.68C368.111 1252.68 605.501 1253.4 607.875 1252.68Z" fill="url(#paint9_radial_2001_7516)" fill-opacity="0.4"/>
<path d="M344.625 1252.69H367.146L391.4 1183.18L381.166 1212.62C374.979 1230.42 361.772 1244.9 344.625 1252.69Z" fill="url(#paint10_radial_2001_7516)" fill-opacity="0.4"/>
<path d="M862.63 635.663H840.109L815.855 705.169L826.089 675.729C832.276 657.931 845.483 643.45 862.63 635.663Z" fill="url(#paint11_radial_2001_7516)" fill-opacity="0.4"/>
<path fill-rule="evenodd" clip-rule="evenodd" d="M368.471 86.3672C372.175 87.4816 379.634 92.6532 384.368 97.3911C388.213 101.238 394.893 111.291 398.385 118.483C402.207 126.357 402.97 127.97 406.971 140.029C408.821 145.605 416.231 167.23 421.748 183.376C427.266 199.522 438.6 232.757 446.934 257.231C455.269 281.705 470.192 325.508 480.096 354.571C490.001 383.634 500.278 413.809 502.933 421.627C505.59 429.445 518.542 467.547 531.717 506.297C560.409 590.684 568.739 616.68 568.302 617.339C567.561 617.339 534.039 616.925 492.558 616.925C412.565 616.925 365.33 616.853 359.244 614.037C355.475 612.293 349.038 607.204 345.319 603.025C339.174 596.123 332.519 584.093 327.366 570.572C325.37 565.334 317.975 543.817 301.242 494.555C286.301 450.567 253.569 354.378 243.302 324.287C239.3 312.56 232.8 293.509 228.856 281.952C224.912 270.395 215.561 242.861 208.076 220.767C200.591 198.672 194.329 180.317 194.16 179.977C193.091 177.814 161.287 87.3176 161.306 86.3661C162.143 86.3653 366.428 85.7523 368.471 86.3672Z" fill="url(#paint12_radial_2001_7516)" fill-opacity="0.4"/>
<path d="M141.939 86.3657H161.319L182.191 146.179L173.384 120.844C168.06 105.528 156.694 93.0665 141.939 86.3657Z" fill="url(#paint13_radial_2001_7516)" fill-opacity="0.4"/>
<path d="M587.702 617.337H568.321L547.45 557.524L556.257 582.859C561.581 598.175 572.946 610.636 587.702 617.337Z" fill="url(#paint14_radial_2001_7516)" fill-opacity="0.4"/>
<path fill-rule="evenodd" clip-rule="evenodd" d="M1359.77 86.3672C1356.07 87.4816 1348.61 92.6532 1343.88 97.3911C1340.03 101.238 1333.35 111.291 1329.86 118.483C1326.04 126.357 1325.27 127.97 1321.27 140.029C1319.42 145.605 1312.01 167.23 1306.5 183.376C1300.98 199.522 1289.64 232.757 1281.31 257.231C1272.98 281.705 1258.05 325.508 1248.15 354.571C1238.24 383.634 1227.97 413.809 1225.31 421.627C1222.65 429.445 1209.7 467.547 1196.53 506.297C1167.84 590.684 1159.51 616.68 1159.94 617.339C1160.68 617.339 1194.2 616.925 1235.69 616.925C1315.68 616.925 1362.91 616.853 1369 614.037C1372.77 612.293 1379.21 607.204 1382.92 603.025C1389.07 596.123 1395.72 584.093 1400.88 570.572C1402.87 565.334 1410.27 543.817 1427 494.555C1441.94 450.567 1474.67 354.378 1484.94 324.287C1488.94 312.56 1495.44 293.509 1499.39 281.952C1503.33 270.395 1512.68 242.861 1520.17 220.767C1527.65 198.672 1533.92 180.317 1534.08 179.977C1535.15 177.814 1566.96 87.3176 1566.94 86.3661C1566.1 86.3653 1361.82 85.7523 1359.77 86.3672Z" fill="url(#paint15_radial_2001_7516)" fill-opacity="0.4"/>
<path d="M1586.31 86.3657H1566.92L1546.05 146.179L1554.86 120.844C1560.18 105.528 1571.55 93.0665 1586.31 86.3657Z" fill="url(#paint16_radial_2001_7516)" fill-opacity="0.4"/>
<path d="M1140.54 617.337H1159.92L1180.79 557.524L1171.99 582.859C1166.66 598.175 1155.3 610.636 1140.54 617.337Z" fill="url(#paint17_radial_2001_7516)" fill-opacity="0.4"/>
<path fill-rule="evenodd" clip-rule="evenodd" d="M1359.77 1166.63C1356.07 1165.52 1348.61 1160.35 1343.88 1155.61C1340.03 1151.76 1333.35 1141.71 1329.86 1134.52C1326.04 1126.64 1325.27 1125.03 1321.27 1112.97C1319.42 1107.39 1312.01 1085.77 1306.5 1069.62C1300.98 1053.48 1289.64 1020.24 1281.31 995.769C1272.98 971.295 1258.05 927.492 1248.15 898.429C1238.24 869.367 1227.97 839.191 1225.31 831.373C1222.65 823.555 1209.7 785.453 1196.53 746.703C1167.84 662.316 1159.51 636.32 1159.94 635.661C1160.68 635.661 1194.2 636.075 1235.69 636.075C1315.68 636.075 1362.91 636.147 1369 638.963C1372.77 640.707 1379.21 645.796 1382.92 649.975C1389.07 656.877 1395.72 668.907 1400.88 682.428C1402.87 687.666 1410.27 709.183 1427 758.445C1441.94 802.433 1474.67 898.622 1484.94 928.713C1488.94 940.44 1495.44 959.491 1499.39 971.048C1503.33 982.605 1512.68 1010.14 1520.17 1032.23C1527.65 1054.33 1533.92 1072.68 1534.08 1073.02C1535.15 1075.19 1566.96 1165.68 1566.94 1166.63C1566.1 1166.63 1361.82 1167.25 1359.77 1166.63Z" fill="url(#paint18_radial_2001_7516)" fill-opacity="0.4"/>
<path d="M1586.31 1166.63H1566.92L1546.05 1106.82L1554.86 1132.16C1560.18 1147.47 1571.55 1159.93 1586.31 1166.63Z" fill="url(#paint19_radial_2001_7516)" fill-opacity="0.4"/>
<path d="M1140.54 635.663H1159.92L1180.79 695.476L1171.99 670.141C1166.66 654.825 1155.3 642.364 1140.54 635.663Z" fill="url(#paint20_radial_2001_7516)" fill-opacity="0.4"/>
<path fill-rule="evenodd" clip-rule="evenodd" d="M367.228 1166.63C370.931 1165.52 378.39 1160.35 383.124 1155.61C386.969 1151.76 393.65 1141.71 397.141 1134.52C400.964 1126.64 401.727 1125.03 405.728 1112.97C407.577 1107.39 414.987 1085.77 420.505 1069.62C426.022 1053.48 437.356 1020.24 445.69 995.769C454.025 971.295 468.948 927.492 478.852 898.429C488.757 869.367 499.034 839.191 501.69 831.373C504.346 823.555 517.299 785.453 530.474 746.703C559.165 662.316 567.495 636.32 567.058 635.661C566.317 635.661 532.795 636.075 491.315 636.075C411.321 636.075 364.087 636.147 358 638.963C354.231 640.707 347.794 645.796 344.075 649.975C337.93 656.877 331.276 668.907 326.123 682.428C324.126 687.666 316.732 709.183 299.999 758.445C285.058 802.433 252.325 898.622 242.058 928.713C238.057 940.44 231.556 959.491 227.612 971.048C223.669 982.605 214.318 1010.14 206.832 1032.23C199.347 1054.33 193.085 1072.68 192.917 1073.02C191.847 1075.19 160.044 1165.68 160.062 1166.63C160.9 1166.63 365.185 1167.25 367.228 1166.63Z" fill="url(#paint21_radial_2001_7516)" fill-opacity="0.4"/>
<path d="M140.695 1166.63H160.076L180.947 1106.82L172.14 1132.16C166.816 1147.47 155.451 1159.93 140.695 1166.63Z" fill="url(#paint22_radial_2001_7516)" fill-opacity="0.4"/>
<path d="M586.458 635.663H567.078L546.206 695.476L555.013 670.141C560.337 654.825 571.703 642.364 586.458 635.663Z" fill="url(#paint23_radial_2001_7516)" fill-opacity="0.4"/>
<path fill-rule="evenodd" clip-rule="evenodd" d="M176.744 205.994C179.613 206.858 185.391 210.864 189.059 214.535C192.038 217.515 197.213 225.303 199.918 230.874C202.879 236.975 203.47 238.224 206.57 247.567C208.003 251.886 213.743 268.639 218.018 281.147C222.292 293.656 231.073 319.403 237.529 338.363C243.986 357.323 255.547 391.257 263.22 413.772C270.893 436.288 278.855 459.665 280.912 465.721C282.97 471.778 293.004 501.295 303.211 531.316C325.438 596.69 331.892 616.829 331.553 617.34C330.979 617.34 305.01 617.019 272.874 617.019C210.904 617.019 174.311 616.964 169.595 614.782C166.675 613.431 161.689 609.488 158.808 606.251C154.047 600.904 148.892 591.584 144.9 581.11C143.353 577.052 137.624 560.382 124.661 522.219C113.087 488.142 87.7286 413.623 79.7747 390.312C76.6747 381.227 71.639 366.468 68.5835 357.514C65.5283 348.561 58.284 327.231 52.4849 310.114C46.6861 292.997 41.835 278.777 41.7046 278.514C40.8759 276.839 16.2378 206.731 16.2523 205.993C16.901 205.993 175.161 205.518 176.744 205.994Z" fill="url(#paint24_radial_2001_7516)" fill-opacity="0.4"/>
<path d="M1.24371 205.986H16.2581L32.4275 252.324L25.6047 232.697C21.4801 220.832 12.6751 211.178 1.24371 205.986Z" fill="url(#paint25_radial_2001_7516)" fill-opacity="0.4"/>
<path d="M346.578 617.337H331.563L315.394 571L322.217 590.627C326.341 602.492 335.146 612.146 346.578 617.337Z" fill="url(#paint26_radial_2001_7516)" fill-opacity="0.4"/>
<path fill-rule="evenodd" clip-rule="evenodd" d="M1551.51 205.994C1548.64 206.858 1542.86 210.864 1539.19 214.535C1536.22 217.515 1531.04 225.303 1528.34 230.874C1525.37 236.975 1524.78 238.224 1521.68 247.567C1520.25 251.886 1514.51 268.639 1510.24 281.147C1505.96 293.656 1497.18 319.403 1490.72 338.363C1484.27 357.323 1472.71 391.257 1465.03 413.772C1457.36 436.288 1449.4 459.665 1447.34 465.721C1445.28 471.778 1435.25 501.295 1425.04 531.316C1402.82 596.69 1396.36 616.829 1396.7 617.34C1397.27 617.34 1423.24 617.019 1455.38 617.019C1517.35 617.019 1553.94 616.964 1558.66 614.782C1561.58 613.431 1566.56 609.488 1569.45 606.251C1574.21 600.904 1579.36 591.584 1583.35 581.11C1584.9 577.052 1590.63 560.382 1603.59 522.219C1615.17 488.142 1640.52 413.623 1648.48 390.312C1651.58 381.227 1656.61 366.468 1659.67 357.514C1662.73 348.561 1669.97 327.231 1675.77 310.114C1681.57 292.997 1686.42 278.777 1686.55 278.514C1687.38 276.839 1712.02 206.731 1712 205.993C1711.35 205.993 1553.09 205.518 1551.51 205.994Z" fill="url(#paint27_radial_2001_7516)" fill-opacity="0.4"/>
<path d="M1727 205.986H1711.99L1695.82 252.324L1702.64 232.697C1706.76 220.832 1715.57 211.178 1727 205.986Z" fill="url(#paint28_radial_2001_7516)" fill-opacity="0.4"/>
<path d="M1381.67 617.337H1396.68L1412.85 571L1406.03 590.627C1401.9 602.492 1393.1 612.146 1381.67 617.337Z" fill="url(#paint29_radial_2001_7516)" fill-opacity="0.4"/>
<path fill-rule="evenodd" clip-rule="evenodd" d="M1551.51 1047.01C1548.64 1046.14 1542.86 1042.14 1539.19 1038.47C1536.22 1035.49 1531.04 1027.7 1528.34 1022.13C1525.37 1016.03 1524.78 1014.78 1521.68 1005.43C1520.25 1001.11 1514.51 984.361 1510.24 971.853C1505.96 959.344 1497.18 933.597 1490.72 914.637C1484.27 895.677 1472.71 861.743 1465.03 839.228C1457.36 816.712 1449.4 793.335 1447.34 787.279C1445.28 781.222 1435.25 751.705 1425.04 721.684C1402.82 656.31 1396.36 636.171 1396.7 635.66C1397.27 635.66 1423.24 635.981 1455.38 635.981C1517.35 635.981 1553.94 636.036 1558.66 638.218C1561.58 639.569 1566.56 643.512 1569.45 646.749C1574.21 652.096 1579.36 661.416 1583.35 671.89C1584.9 675.948 1590.63 692.618 1603.59 730.781C1615.17 764.858 1640.52 839.376 1648.48 862.688C1651.58 871.773 1656.61 886.532 1659.67 895.486C1662.73 904.439 1669.97 925.769 1675.77 942.886C1681.57 960.003 1686.42 974.223 1686.55 974.486C1687.38 976.161 1712.02 1046.27 1712 1047.01C1711.35 1047.01 1553.09 1047.48 1551.51 1047.01Z" fill="url(#paint30_radial_2001_7516)" fill-opacity="0.4"/>
<path d="M1727 1047.01H1711.99L1695.82 1000.68L1702.64 1020.3C1706.76 1032.17 1715.57 1041.82 1727 1047.01Z" fill="url(#paint31_radial_2001_7516)" fill-opacity="0.4"/>
<path d="M1381.67 635.663H1396.68L1412.85 682L1406.03 662.373C1401.9 650.508 1393.1 640.854 1381.67 635.663Z" fill="url(#paint32_radial_2001_7516)" fill-opacity="0.4"/>
<path fill-rule="evenodd" clip-rule="evenodd" d="M175.5 1047.01C178.37 1046.14 184.148 1042.14 187.816 1038.47C190.794 1035.49 195.969 1027.7 198.674 1022.13C201.636 1016.03 202.227 1014.78 205.326 1005.43C206.759 1001.11 212.5 984.361 216.774 971.853C221.049 959.344 229.829 933.597 236.286 914.637C242.742 895.677 254.303 861.743 261.976 839.228C269.649 816.712 277.611 793.335 279.668 787.279C281.726 781.222 291.761 751.705 301.967 721.684C324.195 656.31 330.648 636.171 330.309 635.66C329.735 635.66 303.766 635.981 271.631 635.981C209.66 635.981 173.067 636.036 168.352 638.218C165.432 639.569 160.445 643.512 157.564 646.749C152.803 652.096 147.648 661.416 143.656 671.89C142.109 675.948 136.381 692.618 123.418 730.781C111.843 764.858 86.4849 839.376 78.5309 862.688C75.431 871.773 70.3952 886.532 67.3397 895.486C64.2846 904.439 57.0403 925.769 51.2412 942.886C45.4424 960.003 40.5913 974.223 40.4609 974.486C39.6322 976.161 14.9941 1046.27 15.0086 1047.01C15.6573 1047.01 173.918 1047.48 175.5 1047.01Z" fill="url(#paint33_radial_2001_7516)" fill-opacity="0.4"/>
<path d="M0 1047.01H15.0144L31.1838 1000.68L24.361 1020.3C20.2364 1032.17 11.4314 1041.82 0 1047.01Z" fill="url(#paint34_radial_2001_7516)" fill-opacity="0.4"/>
<path d="M345.334 635.663H330.32L314.15 682L320.973 662.373C325.098 650.508 333.903 640.854 345.334 635.663Z" fill="url(#paint35_radial_2001_7516)" fill-opacity="0.4"/>
<defs>
<radialGradient id="paint0_radial_2001_7516" cx="0" cy="0" r="1" gradientUnits="userSpaceOnUse" gradientTransform="translate(863.5 636.5) rotate(90) scale(983 1312.95)">
<stop stop-color="#D9E1E2"/>
<stop offset="0.743138" stop-color="white"/>
</radialGradient>
<radialGradient id="paint1_radial_2001_7516" cx="0" cy="0" r="1" gradientUnits="userSpaceOnUse" gradientTransform="translate(863.5 636.5) rotate(90) scale(983 1312.95)">
<stop stop-color="#D9E1E2"/>
<stop offset="0.743138" stop-color="white"/>
</radialGradient>
<radialGradient id="paint2_radial_2001_7516" cx="0" cy="0" r="1" gradientUnits="userSpaceOnUse" gradientTransform="translate(863.5 636.5) rotate(90) scale(983 1312.95)">
<stop stop-color="#D9E1E2"/>
<stop offset="0.743138" stop-color="white"/>
</radialGradient>
<radialGradient id="paint3_radial_2001_7516" cx="0" cy="0" r="1" gradientUnits="userSpaceOnUse" gradientTransform="translate(863.5 636.5) rotate(90) scale(983 1312.95)">
<stop stop-color="#D9E1E2"/>
<stop offset="0.743138" stop-color="white"/>
</radialGradient>
<radialGradient id="paint4_radial_2001_7516" cx="0" cy="0" r="1" gradientUnits="userSpaceOnUse" gradientTransform="translate(863.5 636.5) rotate(90) scale(983 1312.95)">
<stop stop-color="#D9E1E2"/>
<stop offset="0.743138" stop-color="white"/>
</radialGradient>
<radialGradient id="paint5_radial_2001_7516" cx="0" cy="0" r="1" gradientUnits="userSpaceOnUse" gradientTransform="translate(863.5 636.5) rotate(90) scale(983 1312.95)">
<stop stop-color="#D9E1E2"/>
<stop offset="0.743138" stop-color="white"/>
</radialGradient>
<radialGradient id="paint6_radial_2001_7516" cx="0" cy="0" r="1" gradientUnits="userSpaceOnUse" gradientTransform="translate(863.5 636.5) rotate(90) scale(983 1312.95)">
<stop stop-color="#D9E1E2"/>
<stop offset="0.743138" stop-color="white"/>
</radialGradient>
<radialGradient id="paint7_radial_2001_7516" cx="0" cy="0" r="1" gradientUnits="userSpaceOnUse" gradientTransform="translate(863.5 636.5) rotate(90) scale(983 1312.95)">
<stop stop-color="#D9E1E2"/>
<stop offset="0.743138" stop-color="white"/>
</radialGradient>
<radialGradient id="paint8_radial_2001_7516" cx="0" cy="0" r="1" gradientUnits="userSpaceOnUse" gradientTransform="translate(863.5 636.5) rotate(90) scale(983 1312.95)">
<stop stop-color="#D9E1E2"/>
<stop offset="0.743138" stop-color="white"/>
</radialGradient>
<radialGradient id="paint9_radial_2001_7516" cx="0" cy="0" r="1" gradientUnits="userSpaceOnUse" gradientTransform="translate(863.5 636.5) rotate(90) scale(983 1312.95)">
<stop stop-color="#D9E1E2"/>
<stop offset="0.743138" stop-color="white"/>
</radialGradient>
<radialGradient id="paint10_radial_2001_7516" cx="0" cy="0" r="1" gradientUnits="userSpaceOnUse" gradientTransform="translate(863.5 636.5) rotate(90) scale(983 1312.95)">
<stop stop-color="#D9E1E2"/>
<stop offset="0.743138" stop-color="white"/>
</radialGradient>
<radialGradient id="paint11_radial_2001_7516" cx="0" cy="0" r="1" gradientUnits="userSpaceOnUse" gradientTransform="translate(863.5 636.5) rotate(90) scale(983 1312.95)">
<stop stop-color="#D9E1E2"/>
<stop offset="0.743138" stop-color="white"/>
</radialGradient>
<radialGradient id="paint12_radial_2001_7516" cx="0" cy="0" r="1" gradientUnits="userSpaceOnUse" gradientTransform="translate(863.5 636.5) rotate(90) scale(983 1312.95)">
<stop stop-color="#D9E1E2"/>
<stop offset="0.743138" stop-color="white"/>
</radialGradient>
<radialGradient id="paint13_radial_2001_7516" cx="0" cy="0" r="1" gradientUnits="userSpaceOnUse" gradientTransform="translate(863.5 636.5) rotate(90) scale(983 1312.95)">
<stop stop-color="#D9E1E2"/>
<stop offset="0.743138" stop-color="white"/>
</radialGradient>
<radialGradient id="paint14_radial_2001_7516" cx="0" cy="0" r="1" gradientUnits="userSpaceOnUse" gradientTransform="translate(863.5 636.5) rotate(90) scale(983 1312.95)">
<stop stop-color="#D9E1E2"/>
<stop offset="0.743138" stop-color="white"/>
</radialGradient>
<radialGradient id="paint15_radial_2001_7516" cx="0" cy="0" r="1" gradientUnits="userSpaceOnUse" gradientTransform="translate(863.5 636.5) rotate(90) scale(983 1312.95)">
<stop stop-color="#D9E1E2"/>
<stop offset="0.743138" stop-color="white"/>
</radialGradient>
<radialGradient id="paint16_radial_2001_7516" cx="0" cy="0" r="1" gradientUnits="userSpaceOnUse" gradientTransform="translate(863.5 636.5) rotate(90) scale(983 1312.95)">
<stop stop-color="#D9E1E2"/>
<stop offset="0.743138" stop-color="white"/>
</radialGradient>
<radialGradient id="paint17_radial_2001_7516" cx="0" cy="0" r="1" gradientUnits="userSpaceOnUse" gradientTransform="translate(863.5 636.5) rotate(90) scale(983 1312.95)">
<stop stop-color="#D9E1E2"/>
<stop offset="0.743138" stop-color="white"/>
</radialGradient>
<radialGradient id="paint18_radial_2001_7516" cx="0" cy="0" r="1" gradientUnits="userSpaceOnUse" gradientTransform="translate(863.5 636.5) rotate(90) scale(983 1312.95)">
<stop stop-color="#D9E1E2"/>
<stop offset="0.743138" stop-color="white"/>
</radialGradient>
<radialGradient id="paint19_radial_2001_7516" cx="0" cy="0" r="1" gradientUnits="userSpaceOnUse" gradientTransform="translate(863.5 636.5) rotate(90) scale(983 1312.95)">
<stop stop-color="#D9E1E2"/>
<stop offset="0.743138" stop-color="white"/>
</radialGradient>
<radialGradient id="paint20_radial_2001_7516" cx="0" cy="0" r="1" gradientUnits="userSpaceOnUse" gradientTransform="translate(863.5 636.5) rotate(90) scale(983 1312.95)">
<stop stop-color="#D9E1E2"/>
<stop offset="0.743138" stop-color="white"/>
</radialGradient>
<radialGradient id="paint21_radial_2001_7516" cx="0" cy="0" r="1" gradientUnits="userSpaceOnUse" gradientTransform="translate(863.5 636.5) rotate(90) scale(983 1312.95)">
<stop stop-color="#D9E1E2"/>
<stop offset="0.743138" stop-color="white"/>
</radialGradient>
<radialGradient id="paint22_radial_2001_7516" cx="0" cy="0" r="1" gradientUnits="userSpaceOnUse" gradientTransform="translate(863.5 636.5) rotate(90) scale(983 1312.95)">
<stop stop-color="#D9E1E2"/>
<stop offset="0.743138" stop-color="white"/>
</radialGradient>
<radialGradient id="paint23_radial_2001_7516" cx="0" cy="0" r="1" gradientUnits="userSpaceOnUse" gradientTransform="translate(863.5 636.5) rotate(90) scale(983 1312.95)">
<stop stop-color="#D9E1E2"/>
<stop offset="0.743138" stop-color="white"/>
</radialGradient>
<radialGradient id="paint24_radial_2001_7516" cx="0" cy="0" r="1" gradientUnits="userSpaceOnUse" gradientTransform="translate(863.5 636.5) rotate(90) scale(983 1312.95)">
<stop stop-color="#D9E1E2"/>
<stop offset="0.743138" stop-color="white"/>
</radialGradient>
<radialGradient id="paint25_radial_2001_7516" cx="0" cy="0" r="1" gradientUnits="userSpaceOnUse" gradientTransform="translate(863.5 636.5) rotate(90) scale(983 1312.95)">
<stop stop-color="#D9E1E2"/>
<stop offset="0.743138" stop-color="white"/>
</radialGradient>
<radialGradient id="paint26_radial_2001_7516" cx="0" cy="0" r="1" gradientUnits="userSpaceOnUse" gradientTransform="translate(863.5 636.5) rotate(90) scale(983 1312.95)">
<stop stop-color="#D9E1E2"/>
<stop offset="0.743138" stop-color="white"/>
</radialGradient>
<radialGradient id="paint27_radial_2001_7516" cx="0" cy="0" r="1" gradientUnits="userSpaceOnUse" gradientTransform="translate(863.5 636.5) rotate(90) scale(983 1312.95)">
<stop stop-color="#D9E1E2"/>
<stop offset="0.743138" stop-color="white"/>
</radialGradient>
<radialGradient id="paint28_radial_2001_7516" cx="0" cy="0" r="1" gradientUnits="userSpaceOnUse" gradientTransform="translate(863.5 636.5) rotate(90) scale(983 1312.95)">
<stop stop-color="#D9E1E2"/>
<stop offset="0.743138" stop-color="white"/>
</radialGradient>
<radialGradient id="paint29_radial_2001_7516" cx="0" cy="0" r="1" gradientUnits="userSpaceOnUse" gradientTransform="translate(863.5 636.5) rotate(90) scale(983 1312.95)">
<stop stop-color="#D9E1E2"/>
<stop offset="0.743138" stop-color="white"/>
</radialGradient>
<radialGradient id="paint30_radial_2001_7516" cx="0" cy="0" r="1" gradientUnits="userSpaceOnUse" gradientTransform="translate(863.5 636.5) rotate(90) scale(983 1312.95)">
<stop stop-color="#D9E1E2"/>
<stop offset="0.743138" stop-color="white"/>
</radialGradient>
<radialGradient id="paint31_radial_2001_7516" cx="0" cy="0" r="1" gradientUnits="userSpaceOnUse" gradientTransform="translate(863.5 636.5) rotate(90) scale(983 1312.95)">
<stop stop-color="#D9E1E2"/>
<stop offset="0.743138" stop-color="white"/>
</radialGradient>
<radialGradient id="paint32_radial_2001_7516" cx="0" cy="0" r="1" gradientUnits="userSpaceOnUse" gradientTransform="translate(863.5 636.5) rotate(90) scale(983 1312.95)">
<stop stop-color="#D9E1E2"/>
<stop offset="0.743138" stop-color="white"/>
</radialGradient>
<radialGradient id="paint33_radial_2001_7516" cx="0" cy="0" r="1" gradientUnits="userSpaceOnUse" gradientTransform="translate(863.5 636.5) rotate(90) scale(983 1312.95)">
<stop stop-color="#D9E1E2"/>
<stop offset="0.743138" stop-color="white"/>
</radialGradient>
<radialGradient id="paint34_radial_2001_7516" cx="0" cy="0" r="1" gradientUnits="userSpaceOnUse" gradientTransform="translate(863.5 636.5) rotate(90) scale(983 1312.95)">
<stop stop-color="#D9E1E2"/>
<stop offset="0.743138" stop-color="white"/>
</radialGradient>
<radialGradient id="paint35_radial_2001_7516" cx="0" cy="0" r="1" gradientUnits="userSpaceOnUse" gradientTransform="translate(863.5 636.5) rotate(90) scale(983 1312.95)">
<stop stop-color="#D9E1E2"/>
<stop offset="0.743138" stop-color="white"/>
</radialGradient>
</defs>
</svg>
