<svg width="102" height="26" viewBox="0 0 102 26" fill="none" xmlns="http://www.w3.org/2000/svg">
<g clip-path="url(#clip0_461_7084)">
<path d="M90.4447 12.9989H82.7388L91.802 0.407227L81.5937 0.407227C79.9112 0.407227 78.3396 1.20621 77.3718 2.54737L71.6347 10.5201L65.8977 2.54737C64.9356 1.20812 63.3563 0.407227 61.6815 0.407227L51.0993 0.407227L51.8978 1.48966L58.8325 10.9025C59.7984 12.2189 61.3583 12.9989 63.0155 12.9989H69.8509L61.962 23.9621C61.7049 24.3197 61.1635 24.3197 60.9065 23.9621L59.6484 22.21L45.4947 2.54927C44.5346 1.20812 42.9553 0.407227 41.2786 0.407227L31.0625 0.407227L47.6446 23.4504C48.6106 24.7915 50.1841 25.5905 51.8666 25.5905L71.0018 25.5905C72.6766 25.5905 74.2559 24.7915 75.216 23.4504L81.3152 14.9735L87.5937 23.4941C88.5596 24.8106 90.1195 25.5905 91.7767 25.5905H102.18L94.6589 15.139C93.6988 13.7979 92.1194 12.9989 90.4447 12.9989Z" fill="#DF450F"/>
<path d="M24.8099 2.54737C23.8498 1.20621 22.2705 0.407227 20.5957 0.407227L10.3797 0.407227L19.4429 13.0008L11.7351 13.0008C10.0603 13.0008 8.48094 13.7998 7.52087 15.1409L0 25.5924H10.403C12.0583 25.5924 13.6182 24.8125 14.5861 23.496L20.8645 14.9735L26.9637 23.4485C27.9297 24.7896 29.5032 25.5886 31.1857 25.5886L41.3882 25.5886L40.2217 23.964L24.8099 2.54737Z" fill="#DF450F"/>
</g>
<defs>
<clipPath id="clip0_461_7084">
<rect width="102" height="25.1852" fill="white" transform="translate(0 0.407227)"/>
</clipPath>
</defs>
</svg>
