<svg width="525" height="214" viewBox="0 0 525 214" fill="none" xmlns="http://www.w3.org/2000/svg">
<path d="M366.547 189.344V173.164H369.187V189.344H366.547Z" fill="#424344"/>
<path d="M374.812 189.346V173.166H377.362L384.742 183.306C384.832 183.396 384.943 183.536 385.062 183.706C385.182 183.876 385.292 184.056 385.402 184.226C385.512 184.396 385.593 184.536 385.643 184.646H385.763V173.156H388.312V189.336H385.862L378.383 179.076C378.253 178.886 378.103 178.646 377.913 178.356C377.723 178.066 377.582 177.846 377.492 177.686H377.372V189.336H374.823L374.812 189.346Z" fill="#424344"/>
<path d="M393.906 189.344V173.164H400.156C401.826 173.164 403.246 173.454 404.426 174.024C405.606 174.594 406.516 175.474 407.146 176.664C407.776 177.854 408.106 179.384 408.106 181.254C408.106 183.124 407.786 184.634 407.146 185.834C406.506 187.034 405.606 187.914 404.426 188.484C403.246 189.054 401.826 189.344 400.156 189.344H393.906ZM396.546 187.084H400.136C400.966 187.084 401.716 186.974 402.366 186.754C403.016 186.534 403.566 186.194 404.016 185.744C404.466 185.294 404.806 184.714 405.026 184.014C405.256 183.314 405.366 182.484 405.366 181.524V181.024C405.366 180.054 405.256 179.214 405.026 178.514C404.796 177.814 404.456 177.234 404.016 176.784C403.576 176.334 403.016 175.994 402.366 175.774C401.716 175.554 400.966 175.444 400.136 175.444H396.546V187.094V187.084Z" fill="#424344"/>
<path d="M419.518 189.64C418.138 189.64 416.938 189.42 415.938 188.97C414.928 188.52 414.158 187.83 413.628 186.88C413.098 185.93 412.828 184.74 412.828 183.3V173.18H415.468V183.37C415.468 184.71 415.818 185.71 416.528 186.39C417.238 187.07 418.238 187.4 419.528 187.4C420.818 187.4 421.848 187.06 422.578 186.39C423.308 185.72 423.678 184.71 423.678 183.37V173.18H426.318V183.3C426.318 184.75 426.048 185.94 425.508 186.88C424.968 187.82 424.188 188.52 423.178 188.97C422.168 189.42 420.948 189.64 419.538 189.64H419.518Z" fill="#424344"/>
<path d="M437.727 189.636C436.847 189.636 435.997 189.546 435.177 189.366C434.357 189.186 433.637 188.896 433.007 188.496C432.377 188.096 431.887 187.586 431.517 186.966C431.157 186.346 430.977 185.606 430.977 184.736C430.977 184.646 430.977 184.556 430.987 184.466C430.987 184.376 430.997 184.306 430.997 184.246H433.637C433.637 184.246 433.637 184.366 433.627 184.456C433.627 184.546 433.617 184.626 433.617 184.696C433.617 185.276 433.787 185.776 434.137 186.186C434.487 186.596 434.967 186.906 435.587 187.106C436.207 187.316 436.917 187.416 437.717 187.416C438.157 187.416 438.577 187.386 438.987 187.336C439.397 187.286 439.767 187.196 440.107 187.076C440.447 186.956 440.737 186.806 440.987 186.626C441.237 186.446 441.437 186.226 441.577 185.976C441.717 185.726 441.787 185.436 441.787 185.106C441.787 184.606 441.637 184.186 441.347 183.856C441.057 183.526 440.667 183.256 440.167 183.026C439.667 182.806 439.117 182.606 438.497 182.436C437.877 182.266 437.237 182.086 436.577 181.916C435.917 181.746 435.277 181.536 434.657 181.306C434.037 181.066 433.477 180.786 432.987 180.446C432.487 180.106 432.097 179.686 431.807 179.176C431.517 178.666 431.367 178.036 431.367 177.296C431.367 176.556 431.517 175.956 431.817 175.406C432.117 174.856 432.547 174.396 433.117 174.026C433.687 173.656 434.357 173.376 435.147 173.186C435.937 172.996 436.817 172.906 437.817 172.906C438.667 172.906 439.467 172.996 440.227 173.176C440.977 173.356 441.647 173.636 442.207 174.016C442.777 174.396 443.217 174.876 443.537 175.456C443.857 176.036 444.017 176.726 444.017 177.536V177.816H441.397V177.506C441.397 177.006 441.247 176.576 440.947 176.236C440.647 175.896 440.227 175.626 439.697 175.436C439.157 175.246 438.537 175.156 437.837 175.156C437.007 175.156 436.307 175.236 435.737 175.406C435.167 175.576 434.747 175.796 434.447 176.086C434.147 176.376 434.007 176.726 434.007 177.136C434.007 177.596 434.157 177.966 434.457 178.256C434.757 178.546 435.157 178.796 435.647 178.996C436.137 179.196 436.697 179.386 437.317 179.546C437.937 179.716 438.577 179.886 439.227 180.066C439.877 180.246 440.517 180.456 441.137 180.686C441.757 180.926 442.317 181.216 442.807 181.556C443.307 181.906 443.697 182.336 443.997 182.846C444.297 183.356 444.447 183.986 444.447 184.726C444.447 185.886 444.157 186.836 443.577 187.566C442.997 188.296 442.197 188.826 441.187 189.156C440.177 189.486 439.017 189.656 437.707 189.656L437.727 189.636Z" fill="#424344"/>
<path d="M453.225 189.344V175.424H447.875V173.164H461.275V175.424H455.875V189.344H453.235H453.225Z" fill="#424344"/>
<path d="M465.369 189.344V173.164H473.879C475.029 173.164 475.979 173.374 476.729 173.774C477.479 174.184 478.049 174.754 478.429 175.484C478.809 176.214 478.999 177.064 478.999 178.044C478.999 179.124 478.759 180.074 478.269 180.874C477.779 181.674 477.089 182.264 476.189 182.644L479.559 189.344H476.679L473.609 183.094H467.999V189.344H465.359H465.369ZM468.009 180.874H473.669C474.519 180.874 475.179 180.624 475.639 180.124C476.099 179.624 476.339 178.924 476.339 178.024C476.339 177.474 476.239 177.004 476.029 176.624C475.829 176.234 475.529 175.944 475.129 175.744C474.739 175.544 474.249 175.434 473.669 175.434H468.009V180.884V180.874Z" fill="#424344"/>
<path d="M484.156 189.344V173.164H486.796V189.344H484.156Z" fill="#424344"/>
<path d="M490.76 189.344L497.1 173.164H500.47L506.84 189.344H504.01L502.57 185.594H494.9L493.46 189.344H490.75H490.76ZM495.76 183.354H501.7L499.88 178.614C499.83 178.474 499.76 178.274 499.67 178.024C499.58 177.774 499.48 177.494 499.38 177.194C499.28 176.894 499.17 176.594 499.07 176.284C498.97 175.974 498.88 175.694 498.8 175.444H498.66C498.57 175.744 498.45 176.094 498.31 176.504C498.17 176.914 498.03 177.304 497.9 177.684C497.77 178.064 497.65 178.364 497.56 178.604L495.77 183.344L495.76 183.354Z" fill="#424344"/>
<path d="M510.812 189.344V173.164H513.453V187.054H521.523V189.344H510.812Z" fill="#424344"/>
<path d="M366.547 212.938V196.758H370.677L373.817 206.568C373.907 206.848 374.007 207.178 374.097 207.538C374.187 207.898 374.277 208.248 374.367 208.578C374.457 208.908 374.517 209.198 374.567 209.448H374.757C374.787 209.208 374.847 208.928 374.927 208.598C375.007 208.268 375.087 207.918 375.177 207.558C375.267 207.198 375.357 206.858 375.447 206.548L378.607 196.758H382.667V212.938H380.047V204.068C380.047 203.468 380.047 202.848 380.067 202.208C380.087 201.568 380.097 200.988 380.117 200.488C380.137 199.988 380.137 199.658 380.137 199.518H379.947C379.917 199.688 379.837 199.988 379.727 200.398C379.607 200.818 379.487 201.258 379.357 201.728C379.227 202.198 379.117 202.608 379.007 202.958L375.727 212.938H373.397L370.117 202.988C370.027 202.688 369.917 202.338 369.807 201.928C369.697 201.518 369.587 201.098 369.477 200.678C369.367 200.258 369.277 199.868 369.197 199.518H369.007C369.027 199.898 369.037 200.358 369.047 200.908C369.047 201.458 369.067 202.018 369.087 202.568C369.107 203.128 369.107 203.628 369.107 204.068V212.938H366.557H366.547Z" fill="#424344"/>
<path d="M388.281 212.938V196.758H400.831V199.018H390.921V203.518H399.791V205.778H390.921V210.658H400.971V212.918H388.281V212.938Z" fill="#424344"/>
<path d="M409.991 212.938V199.018H404.641V196.758H418.041V199.018H412.641V212.938H410.001H409.991Z" fill="#424344"/>
<path d="M418.596 212.938L424.936 196.758H428.306L434.676 212.938H431.846L430.406 209.188H422.736L421.296 212.938H418.586H418.596ZM423.596 206.948H429.536L427.716 202.208C427.666 202.068 427.596 201.868 427.506 201.618C427.416 201.368 427.316 201.088 427.216 200.788C427.116 200.488 427.006 200.188 426.906 199.878C426.806 199.568 426.716 199.288 426.636 199.038H426.496C426.406 199.338 426.286 199.688 426.146 200.098C426.006 200.508 425.866 200.898 425.736 201.278C425.606 201.658 425.486 201.958 425.396 202.198L423.606 206.938L423.596 206.948Z" fill="#424344"/>
<path d="M441.501 212.938L435.531 196.758H438.381L442.391 208.058C442.471 208.248 442.551 208.468 442.631 208.718C442.711 208.968 442.791 209.208 442.871 209.438C442.951 209.668 443.021 209.868 443.081 210.038H443.201C443.261 209.868 443.331 209.668 443.411 209.448C443.491 209.228 443.571 208.998 443.651 208.768C443.731 208.528 443.811 208.308 443.891 208.088L447.851 196.768H450.611L444.621 212.948H441.511L441.501 212.938Z" fill="#424344"/>
<path d="M454.578 212.938V196.758H467.128V199.018H457.218V203.518H466.088V205.778H457.218V210.658H467.268V212.918H454.578V212.938Z" fill="#424344"/>
<path d="M472.182 212.938V196.758H480.692C481.842 196.758 482.792 196.968 483.542 197.368C484.292 197.778 484.862 198.348 485.242 199.078C485.622 199.808 485.812 200.658 485.812 201.638C485.812 202.718 485.572 203.668 485.082 204.468C484.592 205.268 483.902 205.858 483.002 206.238L486.372 212.938H483.492L480.422 206.688H474.812V212.938H472.172H472.182ZM474.822 204.468H480.482C481.332 204.468 481.992 204.218 482.452 203.718C482.912 203.218 483.152 202.518 483.152 201.618C483.152 201.068 483.052 200.598 482.842 200.218C482.642 199.828 482.342 199.538 481.942 199.338C481.552 199.138 481.062 199.028 480.482 199.028H474.822V204.478V204.468Z" fill="#424344"/>
<path d="M496.781 213.214C495.901 213.214 495.051 213.124 494.231 212.944C493.411 212.764 492.691 212.474 492.061 212.074C491.431 211.674 490.941 211.164 490.571 210.544C490.211 209.924 490.031 209.184 490.031 208.314C490.031 208.224 490.031 208.134 490.041 208.044C490.041 207.954 490.051 207.884 490.051 207.824H492.691C492.691 207.824 492.691 207.944 492.681 208.034C492.681 208.124 492.671 208.204 492.671 208.274C492.671 208.854 492.841 209.354 493.191 209.764C493.541 210.174 494.021 210.484 494.641 210.684C495.261 210.894 495.971 210.994 496.771 210.994C497.211 210.994 497.631 210.964 498.041 210.914C498.451 210.864 498.821 210.774 499.161 210.654C499.501 210.534 499.791 210.384 500.041 210.204C500.291 210.024 500.491 209.804 500.631 209.554C500.771 209.304 500.841 209.014 500.841 208.684C500.841 208.184 500.691 207.764 500.401 207.434C500.111 207.104 499.721 206.834 499.221 206.604C498.721 206.384 498.171 206.184 497.551 206.014C496.931 205.844 496.291 205.664 495.631 205.494C494.971 205.324 494.331 205.114 493.711 204.884C493.091 204.644 492.531 204.364 492.041 204.024C491.541 203.684 491.151 203.264 490.861 202.754C490.571 202.244 490.421 201.614 490.421 200.874C490.421 200.134 490.571 199.534 490.871 198.984C491.171 198.434 491.601 197.974 492.171 197.604C492.741 197.234 493.411 196.954 494.201 196.764C494.991 196.574 495.871 196.484 496.871 196.484C497.721 196.484 498.521 196.574 499.281 196.754C500.031 196.934 500.701 197.214 501.261 197.594C501.831 197.974 502.271 198.454 502.591 199.034C502.911 199.614 503.071 200.304 503.071 201.114V201.394H500.451V201.084C500.451 200.584 500.301 200.154 500.001 199.814C499.701 199.474 499.281 199.204 498.751 199.014C498.211 198.824 497.591 198.734 496.891 198.734C496.061 198.734 495.361 198.814 494.791 198.984C494.221 199.154 493.801 199.374 493.501 199.664C493.201 199.954 493.061 200.304 493.061 200.714C493.061 201.174 493.211 201.544 493.511 201.834C493.811 202.124 494.211 202.374 494.701 202.574C495.191 202.774 495.751 202.964 496.371 203.124C496.991 203.294 497.631 203.464 498.281 203.644C498.931 203.824 499.571 204.034 500.191 204.264C500.811 204.504 501.371 204.794 501.861 205.134C502.361 205.484 502.751 205.914 503.051 206.424C503.351 206.934 503.501 207.564 503.501 208.304C503.501 209.464 503.211 210.414 502.631 211.144C502.051 211.874 501.251 212.404 500.241 212.734C499.231 213.064 498.071 213.234 496.761 213.234L496.781 213.214Z" fill="#424344"/>
<path d="M508.367 212.938V196.758H520.917V199.018H511.007V203.518H519.877V205.778H511.007V210.658H521.057V212.918H508.367V212.938Z" fill="#424344"/>
<path d="M464.43 66.1978H424.86L471.4 0.0078125H418.98C410.34 0.0078125 402.27 4.20781 397.3 11.2578L367.84 53.1678L338.38 11.2578C333.44 4.21781 325.33 0.0078125 316.73 0.0078125H262.39L266.49 5.69781L302.1 55.1778C307.06 62.0978 315.07 66.1978 323.58 66.1978H358.68L318.17 123.828C316.85 125.708 314.07 125.708 312.75 123.828L306.29 114.618L233.61 11.2678C228.68 4.21781 220.57 0.0078125 211.96 0.0078125H159.5L244.65 121.138C249.61 128.188 257.69 132.388 266.33 132.388H364.59C373.19 132.388 381.3 128.188 386.23 121.138L417.55 76.5778L449.79 121.368C454.75 128.288 462.76 132.388 471.27 132.388H524.69L486.07 77.4478C481.14 70.3978 473.03 66.1978 464.43 66.1978Z" fill="#424344"/>
<path d="M424.861 66.1978H464.431C473.031 66.1978 481.141 70.3978 486.071 77.4478L524.691 132.388H471.271C462.761 132.388 454.751 128.288 449.791 121.368L417.551 76.5778L386.231 121.138C381.301 128.188 373.191 132.388 364.591 132.388H315.461L315.501 125.238C316.512 125.226 317.519 124.756 318.171 123.828L358.681 66.1978H323.581C315.071 66.1978 307.061 62.0978 302.101 55.1778L266.491 5.69781L262.391 0.0078125H316.731C325.331 0.0078125 333.441 4.21781 338.381 11.2578L367.841 53.1678L397.301 11.2578C402.271 4.20781 410.341 0.0078125 418.981 0.0078125H471.401L424.861 66.1978Z" fill="#424344"/>
<path d="M127.4 11.25C122.47 4.2 114.36 0 105.76 0H53.3L99.84 66.2H60.26C51.66 66.2 43.55 70.4 38.62 77.45L0 132.39H53.42C61.92 132.39 69.93 128.29 74.9 121.37L107.14 76.57L138.46 121.12C143.42 128.17 151.5 132.37 160.14 132.37H212.53L206.54 123.83L127.4 11.25Z" fill="#424344"/>
<path d="M18.4931 205.999H55.2731C60.9131 205.999 63.2531 209.169 66.9331 212.849C45.5531 212.849 24.2931 212.879 2.95312 212.879V171.609H18.4931V205.999Z" fill="#424344"/>
<path d="M86.0256 212.981L112.836 171.711H133.266L160.106 212.981H141.936L135.626 203.281H108.796L112.146 199.831C114.106 197.801 116.586 196.651 119.436 196.461H131.196L119.816 178.971L98.3256 212.981H86.0156H86.0256Z" fill="#424344"/>
<path d="M192.992 171.703C201.212 171.703 205.082 175.923 210.562 180.823L232.962 200.833V171.723H240.582V212.923H222.262L186.862 180.063V212.923H179.242V171.723H192.992V171.703Z" fill="#424344"/>
<path d="M278.259 212.91H262.719V171.68H313.379C324.709 171.68 333.989 180.94 333.989 192.27C333.989 203.6 324.719 212.88 313.379 212.88H278.259V212.91ZM307.319 178.52H278.259V206.04H306.709C313.509 206.04 318.449 199.57 318.449 192.28C318.449 184.99 312.929 178.52 307.319 178.52Z" fill="#424344"/>
<path d="M424.47 66.19H464.04C472.64 66.19 480.75 70.39 485.68 77.44L524.3 132.38H470.88C462.37 132.38 454.36 128.28 449.4 121.36L417.16 76.57L385.84 121.13C380.91 128.18 372.8 132.38 364.2 132.38H314.925V125.227C315.998 125.273 317.089 124.804 317.78 123.82L358.29 66.19H323.19C314.68 66.19 306.67 62.09 301.71 55.17L266.1 5.69L262 0H316.34C324.94 0 333.05 4.21 337.99 11.25L367.45 53.16L396.91 11.25C401.88 4.2 409.95 0 418.59 0H471.01L424.47 66.19Z" fill="#DF450F"/>
</svg>
