<svg width="26" height="103" viewBox="0 0 26 103" fill="none" xmlns="http://www.w3.org/2000/svg">
<path d="M12.5916 11.735L12.5916 19.4409L-2.65501e-06 10.3777L-2.20879e-06 20.586C-2.13524e-06 22.2685 0.798984 23.8401 2.14014 24.8079L10.1129 30.545L2.14014 36.282C0.800887 37.2441 -1.41161e-06 38.8234 -1.3384e-06 40.4982L-8.75838e-07 51.0804L1.08244 50.2819L10.4953 43.3472C11.8117 42.3813 12.5916 40.8214 12.5916 39.1642L12.5916 32.3288L23.5549 40.2177C23.9125 40.4748 23.9125 41.0162 23.5549 41.2732L21.8028 42.5313L2.14204 56.685C0.800888 57.6451 -5.19851e-07 59.2244 -4.46559e-07 60.9011L0 71.1172L23.0431 54.535C24.3843 53.5691 25.1833 51.9956 25.1833 50.3131L25.1833 31.1779C25.1833 29.5031 24.3843 27.9238 23.0431 26.9637L14.5663 20.8644L23.0869 14.586C24.4033 13.6201 25.1833 12.0602 25.1833 10.403L25.1833 -3.92478e-05L14.7318 7.52083C13.3906 8.4809 12.5916 10.0602 12.5916 11.735Z" fill="white"/>
<path d="M2.14014 77.3698C0.798985 78.3298 -9.73475e-07 79.9092 -9.00268e-07 81.584L-4.53709e-07 91.8L12.5935 82.7368L12.5935 90.4446C12.5935 92.1194 13.3925 93.6987 14.7337 94.6588L25.1852 102.18L25.1852 91.7767C25.1852 90.1214 24.4052 88.5615 23.0888 87.5936L14.5663 81.3152L23.0412 75.2159C24.3824 74.25 25.1814 72.6765 25.1814 70.994L25.1814 60.7915L23.5568 61.958L2.14014 77.3698Z" fill="white"/>
</svg>
