<svg width="49" height="30" viewBox="0 0 49 30" fill="none" xmlns="http://www.w3.org/2000/svg">
<path fill-rule="evenodd" clip-rule="evenodd" d="M8.88956 14.5645C8.75131 14.535 8.47288 14.3978 8.29614 14.2722C8.15261 14.1702 7.90324 13.9036 7.7729 13.7129C7.63021 13.5041 7.60172 13.4613 7.45237 13.1415C7.38333 12.9937 7.10671 12.4202 6.90075 11.9921C6.69477 11.5639 6.27169 10.6826 5.96056 10.0336C5.64943 9.38463 5.09237 8.22308 4.72263 7.4524C4.35289 6.68172 3.96925 5.88154 3.87011 5.67423C3.77096 5.46691 3.28744 4.45654 2.79561 3.42897C1.72457 1.19124 1.41361 0.501886 1.42992 0.4844C1.45758 0.4844 2.70895 0.495392 4.25742 0.495392C7.24355 0.495392 9.00682 0.497293 9.23403 0.57196C9.37474 0.618209 9.61501 0.75317 9.75385 0.863975C9.98323 1.047 10.2317 1.36601 10.424 1.72455C10.4985 1.86346 10.7746 2.43405 11.3992 3.74036C11.957 4.90679 13.1789 7.4575 13.5621 8.25545C13.7115 8.56643 13.9542 9.07161 14.1014 9.37808C14.2486 9.68455 14.5977 10.4147 14.8771 11.0006C15.1565 11.5865 15.3903 12.0732 15.3966 12.0822C15.4365 12.1396 16.6237 14.5393 16.623 14.5645C16.5918 14.5646 8.96583 14.5808 8.88956 14.5645Z" fill="#DF450F"/>
<path d="M17.347 14.5643H16.6236L15.8444 12.9782L16.086 13.4719C16.3406 13.9922 16.7958 14.3865 17.347 14.5643Z" fill="#DF450F"/>
<path d="M0.705444 0.485962H1.42893L2.20807 2.07207L1.96647 1.57836C1.71188 1.05812 1.25667 0.663777 0.705444 0.485962Z" fill="#DF450F"/>
<path fill-rule="evenodd" clip-rule="evenodd" d="M8.88956 15.3498C8.75131 15.3793 8.47288 15.5165 8.29614 15.6421C8.15261 15.7441 7.90324 16.0107 7.7729 16.2014C7.63021 16.4102 7.60172 16.453 7.45237 16.7728C7.38333 16.9206 7.10671 17.4941 6.90075 17.9222C6.69477 18.3504 6.27169 19.2317 5.96056 19.8807C5.64943 20.5297 5.09237 21.6912 4.72263 22.4619C4.35289 23.2326 3.96925 24.0328 3.87011 24.2401C3.77096 24.4474 3.28744 25.4578 2.79561 26.4853C1.72457 28.7231 1.41361 29.4124 1.42992 29.4299C1.45758 29.4299 2.70895 29.4189 4.25742 29.4189C7.24355 29.4189 9.00682 29.417 9.23403 29.3423C9.37474 29.2961 9.61501 29.1611 9.75385 29.0503C9.98323 28.8673 10.2317 28.5483 10.424 28.1898C10.4985 28.0509 10.7746 27.4803 11.3992 26.1739C11.957 25.0075 13.1789 22.4568 13.5621 21.6589C13.7115 21.3479 13.9542 20.8427 14.1014 20.5362C14.2486 20.2298 14.5977 19.4996 14.8771 18.9137C15.1565 18.3278 15.3903 17.8411 15.3966 17.8321C15.4365 17.7747 16.6237 15.375 16.623 15.3498C16.5918 15.3497 8.96583 15.3335 8.88956 15.3498Z" fill="#DF450F"/>
<path d="M17.347 15.35H16.6236L15.8444 16.9361L16.086 16.4424C16.3406 15.9221 16.7958 15.5278 17.347 15.35Z" fill="#DF450F"/>
<path d="M0.705444 29.4283H1.42893L2.20807 27.8422L1.96647 28.3359C1.71188 28.8562 1.25667 29.2505 0.705444 29.4283Z" fill="#DF450F"/>
<path d="M20.6513 20.4572V9.27506H23.1615V20.4572H20.6513ZM25.4434 20.4572V9.27506H27.9537V20.4572H25.4434Z" fill="#424344"/>
<path fill-rule="evenodd" clip-rule="evenodd" d="M40.3702 14.5645C40.5085 14.535 40.7869 14.3978 40.9636 14.2722C41.1072 14.1702 41.3565 13.9036 41.4869 13.7129C41.6296 13.5041 41.658 13.4613 41.8074 13.1415C41.8764 12.9937 42.1531 12.4202 42.359 11.9921C42.565 11.5639 42.9881 10.6826 43.2992 10.0336C43.6103 9.38463 44.1674 8.22308 44.5371 7.4524C44.9069 6.68172 45.2905 5.88154 45.3897 5.67423C45.4888 5.46691 45.9723 4.45654 46.4642 3.42897C47.5352 1.19124 47.8462 0.501886 47.8298 0.4844C47.8022 0.4844 46.5508 0.495392 45.0023 0.495392C42.0162 0.495392 40.2529 0.497293 40.0257 0.57196C39.885 0.618209 39.6448 0.75317 39.5059 0.863975C39.2765 1.047 39.0281 1.36601 38.8358 1.72455C38.7612 1.86346 38.4852 2.43405 37.8605 3.74036C37.3028 4.90679 36.0809 7.4575 35.6976 8.25545C35.5483 8.56643 35.3056 9.07161 35.1584 9.37808C35.0112 9.68455 34.6621 10.4147 34.3826 11.0006C34.1032 11.5865 33.8695 12.0732 33.8632 12.0822C33.8233 12.1396 32.636 14.5393 32.6367 14.5645C32.668 14.5646 40.2939 14.5808 40.3702 14.5645Z" fill="#DF450F"/>
<path d="M31.9127 14.5643H32.6362L33.4153 12.9782L33.1737 13.4719C32.9192 13.9922 32.4639 14.3865 31.9127 14.5643Z" fill="#DF450F"/>
<path d="M48.5543 0.485962H47.8308L47.0517 2.07207L47.2933 1.57836C47.5479 1.05812 48.0031 0.663777 48.5543 0.485962Z" fill="#DF450F"/>
<path fill-rule="evenodd" clip-rule="evenodd" d="M40.3702 15.3498C40.5085 15.3793 40.7869 15.5165 40.9636 15.6421C41.1072 15.7441 41.3565 16.0107 41.4869 16.2014C41.6296 16.4102 41.658 16.453 41.8074 16.7728C41.8764 16.9206 42.1531 17.4941 42.359 17.9222C42.565 18.3504 42.9881 19.2317 43.2992 19.8807C43.6103 20.5297 44.1674 21.6912 44.5371 22.4619C44.9069 23.2326 45.2905 24.0328 45.3897 24.2401C45.4888 24.4474 45.9723 25.4578 46.4642 26.4853C47.5352 28.7231 47.8462 29.4124 47.8298 29.4299C47.8022 29.4299 46.5508 29.4189 45.0023 29.4189C42.0162 29.4189 40.2529 29.417 40.0257 29.3423C39.885 29.2961 39.6448 29.1611 39.5059 29.0503C39.2765 28.8673 39.0281 28.5483 38.8358 28.1898C38.7612 28.0509 38.4852 27.4803 37.8605 26.1739C37.3028 25.0075 36.0809 22.4568 35.6976 21.6589C35.5483 21.3479 35.3056 20.8427 35.1584 20.5362C35.0112 20.2298 34.6621 19.4996 34.3826 18.9137C34.1032 18.3278 33.8695 17.8411 33.8632 17.8321C33.8233 17.7747 32.636 15.375 32.6367 15.3498C32.668 15.3497 40.2939 15.3335 40.3702 15.3498Z" fill="#DF450F"/>
<path d="M31.9127 15.35H32.6362L33.4153 16.9361L33.1737 16.4424C32.9192 15.9221 32.4639 15.5278 31.9127 15.35Z" fill="#DF450F"/>
<path d="M48.5543 29.4283H47.8308L47.0517 27.8422L47.2933 28.3359C47.5479 28.8562 48.0031 29.2505 48.5543 29.4283Z" fill="#DF450F"/>
</svg>
