<svg width="43" height="30" viewBox="0 0 43 30" fill="none" xmlns="http://www.w3.org/2000/svg">
<path fill-rule="evenodd" clip-rule="evenodd" d="M8.26213 14.5645C8.12387 14.535 7.84544 14.3978 7.66871 14.2722C7.52517 14.1702 7.27581 13.9036 7.14547 13.7129C7.00278 13.5041 6.97429 13.4613 6.82493 13.1415C6.75589 12.9937 6.47928 12.4202 6.27331 11.9921C6.06733 11.5639 5.64425 10.6826 5.33313 10.0336C5.022 9.38463 4.46493 8.22308 4.09519 7.4524C3.72545 6.68172 3.34182 5.88154 3.24268 5.67423C3.14352 5.46691 2.66 4.45654 2.16818 3.42897C1.09713 1.19124 0.786177 0.501886 0.802489 0.4844C0.830147 0.4844 2.08151 0.495392 3.62998 0.495392C6.61611 0.495392 8.37938 0.497293 8.6066 0.57196C8.7473 0.618209 8.98757 0.75317 9.12641 0.863975C9.3558 1.047 9.60422 1.36601 9.79658 1.72455C9.8711 1.86346 10.1471 2.43405 10.7718 3.74036C11.3295 4.90679 12.5514 7.4575 12.9347 8.25545C13.0841 8.56643 13.3267 9.07161 13.474 9.37808C13.6212 9.68455 13.9702 10.4147 14.2497 11.0006C14.5291 11.5865 14.7629 12.0732 14.7691 12.0822C14.8091 12.1396 15.9963 14.5393 15.9956 14.5645C15.9643 14.5646 8.3384 14.5808 8.26213 14.5645Z" fill="#DF450F"/>
<path d="M16.7196 14.5645H15.9961L15.2169 12.9783L15.4585 13.4721C15.7131 13.9923 16.1683 14.3866 16.7196 14.5645Z" fill="#DF450F"/>
<path d="M0.0780182 0.48584H0.801504L1.58064 2.07194L1.33904 1.57824C1.08445 1.05799 0.629244 0.663655 0.0780182 0.48584Z" fill="#DF450F"/>
<path fill-rule="evenodd" clip-rule="evenodd" d="M8.26213 15.3498C8.12387 15.3793 7.84544 15.5165 7.66871 15.6421C7.52517 15.7441 7.27581 16.0107 7.14547 16.2014C7.00278 16.4102 6.97429 16.453 6.82493 16.7728C6.75589 16.9206 6.47928 17.4941 6.27331 17.9222C6.06733 18.3504 5.64425 19.2317 5.33313 19.8807C5.022 20.5297 4.46493 21.6912 4.09519 22.4619C3.72545 23.2326 3.34182 24.0328 3.24268 24.2401C3.14352 24.4474 2.66 25.4578 2.16818 26.4853C1.09713 28.7231 0.786177 29.4124 0.802489 29.4299C0.830147 29.4299 2.08151 29.4189 3.62998 29.4189C6.61611 29.4189 8.37938 29.417 8.6066 29.3423C8.7473 29.2961 8.98757 29.1611 9.12641 29.0503C9.3558 28.8673 9.60422 28.5483 9.79658 28.1898C9.8711 28.0509 10.1471 27.4803 10.7718 26.1739C11.3295 25.0075 12.5514 22.4568 12.9347 21.6589C13.0841 21.3479 13.3267 20.8427 13.474 20.5362C13.6212 20.2298 13.9702 19.4996 14.2497 18.9137C14.5291 18.3278 14.7629 17.8411 14.7691 17.8321C14.8091 17.7747 15.9963 15.375 15.9956 15.3498C15.9643 15.3497 8.3384 15.3335 8.26213 15.3498Z" fill="#DF450F"/>
<path d="M16.7196 15.3499H15.9961L15.2169 16.936L15.4585 16.4423C15.7131 15.922 16.1683 15.5277 16.7196 15.3499Z" fill="#DF450F"/>
<path d="M0.0780182 29.4285H0.801504L1.58064 27.8424L1.33904 28.3361C1.08445 28.8563 0.629244 29.2507 0.0780182 29.4285Z" fill="#DF450F"/>
<path d="M20.0238 20.457V9.27494H22.5341V20.457H20.0238Z" fill="#25282A"/>
<path fill-rule="evenodd" clip-rule="evenodd" d="M34.7427 14.5645C34.881 14.535 35.1594 14.3978 35.3361 14.2722C35.4797 14.1702 35.729 13.9036 35.8594 13.7129C36.0021 13.5041 36.0306 13.4613 36.1799 13.1415C36.2489 12.9937 36.5256 12.4202 36.7315 11.9921C36.9375 11.5639 37.3606 10.6826 37.6717 10.0336C37.9828 9.38463 38.5399 8.22308 38.9097 7.4524C39.2794 6.68172 39.663 5.88154 39.7622 5.67423C39.8613 5.46691 40.3448 4.45654 40.8367 3.42897C41.9077 1.19124 42.2187 0.501886 42.2024 0.4844C42.1747 0.4844 40.9233 0.495392 39.3749 0.495392C36.3887 0.495392 34.6255 0.497293 34.3982 0.57196C34.2575 0.618209 34.0173 0.75317 33.8784 0.863975C33.649 1.047 33.4006 1.36601 33.2083 1.72455C33.1337 1.86346 32.8577 2.43405 32.2331 3.74036C31.6753 4.90679 30.4534 7.4575 30.0701 8.25545C29.9208 8.56643 29.6781 9.07161 29.5309 9.37808C29.3837 9.68455 29.0346 10.4147 28.7552 11.0006C28.4757 11.5865 28.242 12.0732 28.2357 12.0822C28.1958 12.1396 27.0086 14.5393 27.0093 14.5645C27.0405 14.5646 34.6664 14.5808 34.7427 14.5645Z" fill="#DF450F"/>
<path d="M26.2853 14.5645H27.0088L27.7879 12.9783L27.5463 13.4721C27.2917 13.9923 26.8365 14.3866 26.2853 14.5645Z" fill="#DF450F"/>
<path d="M42.9268 0.48584H42.2033L41.4242 2.07194L41.6658 1.57824C41.9204 1.05799 42.3756 0.663655 42.9268 0.48584Z" fill="#DF450F"/>
<path fill-rule="evenodd" clip-rule="evenodd" d="M34.7427 15.3498C34.881 15.3793 35.1594 15.5165 35.3361 15.6421C35.4797 15.7441 35.729 16.0107 35.8594 16.2014C36.0021 16.4102 36.0306 16.453 36.1799 16.7728C36.2489 16.9206 36.5256 17.4941 36.7315 17.9222C36.9375 18.3504 37.3606 19.2317 37.6717 19.8807C37.9828 20.5297 38.5399 21.6912 38.9097 22.4619C39.2794 23.2326 39.663 24.0328 39.7622 24.2401C39.8613 24.4474 40.3448 25.4578 40.8367 26.4853C41.9077 28.7231 42.2187 29.4124 42.2024 29.4299C42.1747 29.4299 40.9233 29.4189 39.3749 29.4189C36.3887 29.4189 34.6255 29.417 34.3982 29.3423C34.2575 29.2961 34.0173 29.1611 33.8784 29.0503C33.649 28.8673 33.4006 28.5483 33.2083 28.1898C33.1337 28.0509 32.8577 27.4803 32.2331 26.1739C31.6753 25.0075 30.4534 22.4568 30.0701 21.6589C29.9208 21.3479 29.6781 20.8427 29.5309 20.5362C29.3837 20.2298 29.0346 19.4996 28.7552 18.9137C28.4757 18.3278 28.242 17.8411 28.2357 17.8321C28.1958 17.7747 27.0086 15.375 27.0093 15.3498C27.0405 15.3497 34.6664 15.3335 34.7427 15.3498Z" fill="#DF450F"/>
<path d="M26.2853 15.3499H27.0088L27.7879 16.936L27.5463 16.4423C27.2917 15.922 26.8365 15.5277 26.2853 15.3499Z" fill="#DF450F"/>
<path d="M42.9268 29.4285H42.2033L41.4242 27.8424L41.6658 28.3361C41.9204 28.8563 42.3756 29.2507 42.9268 29.4285Z" fill="#DF450F"/>
</svg>
