<svg width="54" height="30" viewBox="0 0 54 30" fill="none" xmlns="http://www.w3.org/2000/svg">
<path fill-rule="evenodd" clip-rule="evenodd" d="M8.76212 14.5645C8.62386 14.5349 8.34544 14.3978 8.1687 14.2722C8.02517 14.1702 7.7758 13.9036 7.64546 13.7129C7.50277 13.5041 7.47428 13.4613 7.32493 13.1415C7.25589 12.9936 6.97927 12.4202 6.77331 11.992C6.56732 11.5639 6.14425 10.6826 5.83312 10.0336C5.52199 9.3846 4.96492 8.22305 4.59518 7.45237C4.22545 6.68169 3.84181 5.88151 3.74267 5.6742C3.64352 5.46688 3.16 4.45651 2.66817 3.42894C1.59713 1.19121 1.28617 0.501856 1.30248 0.484369C1.33014 0.484369 2.58151 0.495361 4.12998 0.495361C7.11611 0.495361 8.87938 0.497263 9.10659 0.57193C9.2473 0.618178 9.48757 0.753139 9.6264 0.863944C9.85579 1.04697 10.1042 1.36598 10.2966 1.72451C10.3711 1.86343 10.6471 2.43402 11.2718 3.74033C11.8295 4.90676 13.0514 7.45747 13.4347 8.25542C13.5841 8.5664 13.8267 9.07158 13.9739 9.37805C14.1212 9.68452 14.4702 10.4146 14.7497 11.0005C15.0291 11.5864 15.2629 12.0732 15.2691 12.0822C15.3091 12.1395 16.4963 14.5393 16.4956 14.5645C16.4643 14.5645 8.83839 14.5808 8.76212 14.5645Z" fill="#DF450F"/>
<path d="M17.2196 14.5644H16.4961L15.717 12.9783L15.9586 13.472C16.2132 13.9922 16.6684 14.3865 17.2196 14.5644Z" fill="#DF450F"/>
<path d="M0.578003 0.485901H1.30149L2.08063 2.072L1.83903 1.5783C1.58444 1.05806 1.12923 0.663716 0.578003 0.485901Z" fill="#DF450F"/>
<path fill-rule="evenodd" clip-rule="evenodd" d="M8.76212 15.3498C8.62386 15.3793 8.34544 15.5164 8.1687 15.6421C8.02517 15.7441 7.7758 16.0107 7.64546 16.2014C7.50277 16.4102 7.47428 16.453 7.32493 16.7727C7.25589 16.9206 6.97927 17.494 6.77331 17.9222C6.56732 18.3504 6.14425 19.2317 5.83312 19.8806C5.52199 20.5296 4.96492 21.6912 4.59518 22.4619C4.22545 23.2326 3.84181 24.0327 3.74267 24.24C3.64352 24.4474 3.16 25.4577 2.66817 26.4853C1.59713 28.723 1.28617 29.4124 1.30248 29.4299C1.33014 29.4299 2.58151 29.4189 4.12998 29.4189C7.11611 29.4189 8.87938 29.417 9.10659 29.3423C9.2473 29.2961 9.48757 29.1611 9.6264 29.0503C9.85579 28.8673 10.1042 28.5483 10.2966 28.1897C10.3711 28.0508 10.6471 27.4802 11.2718 26.1739C11.8295 25.0075 13.0514 22.4568 13.4347 21.6588C13.5841 21.3478 13.8267 20.8427 13.9739 20.5362C14.1212 20.2297 14.4702 19.4996 14.7497 18.9137C15.0291 18.3278 15.2629 17.8411 15.2691 17.8321C15.3091 17.7747 16.4963 15.375 16.4956 15.3497C16.4643 15.3497 8.83839 15.3335 8.76212 15.3498Z" fill="#DF450F"/>
<path d="M17.2196 15.3499H16.4961L15.717 16.936L15.9586 16.4423C16.2132 15.922 16.6684 15.5277 17.2196 15.3499Z" fill="#DF450F"/>
<path d="M0.578003 29.4283H1.30149L2.08063 27.8422L1.83903 28.3359C1.58444 28.8562 1.12923 29.2505 0.578003 29.4283Z" fill="#DF450F"/>
<path d="M20.5238 20.4571V9.27503H23.0341V20.4571H20.5238ZM25.316 20.4571V9.27503H27.8263V20.4571H25.316ZM30.1082 20.4571V9.27503H32.6184V20.4571H30.1082Z" fill="#424344"/>
<path fill-rule="evenodd" clip-rule="evenodd" d="M45.2428 14.5645C45.381 14.5349 45.6594 14.3978 45.8362 14.2722C45.9797 14.1702 46.2291 13.9036 46.3594 13.7129C46.5021 13.5041 46.5306 13.4613 46.68 13.1415C46.749 12.9936 47.0256 12.4202 47.2316 11.992C47.4376 11.5639 47.8606 10.6826 48.1718 10.0336C48.4829 9.3846 49.04 8.22305 49.4097 7.45237C49.7794 6.68169 50.1631 5.88151 50.2622 5.6742C50.3614 5.46688 50.8449 4.45651 51.3367 3.42894C52.4078 1.19121 52.7187 0.501856 52.7024 0.484369C52.6747 0.484369 51.4234 0.495361 49.8749 0.495361C46.8888 0.495361 45.1255 0.497263 44.8983 0.57193C44.7576 0.618178 44.5173 0.753139 44.3785 0.863944C44.1491 1.04697 43.9007 1.36598 43.7083 1.72451C43.6338 1.86343 43.3577 2.43402 42.7331 3.74033C42.1754 4.90676 40.9535 7.45747 40.5702 8.25542C40.4208 8.5664 40.1782 9.07158 40.0309 9.37805C39.8837 9.68452 39.5346 10.4146 39.2552 11.0005C38.9758 11.5864 38.742 12.0732 38.7357 12.0822C38.6958 12.1395 37.5086 14.5393 37.5093 14.5645C37.5406 14.5645 45.1665 14.5808 45.2428 14.5645Z" fill="#DF450F"/>
<path d="M36.7853 14.5644H37.5088L38.2879 12.9783L38.0463 13.472C37.7917 13.9922 37.3365 14.3865 36.7853 14.5644Z" fill="#DF450F"/>
<path d="M53.4269 0.485901H52.7034L51.9243 2.072L52.1659 1.5783C52.4204 1.05806 52.8757 0.663716 53.4269 0.485901Z" fill="#DF450F"/>
<path fill-rule="evenodd" clip-rule="evenodd" d="M45.2428 15.3498C45.381 15.3793 45.6594 15.5164 45.8362 15.6421C45.9797 15.7441 46.2291 16.0107 46.3594 16.2014C46.5021 16.4102 46.5306 16.453 46.68 16.7727C46.749 16.9206 47.0256 17.494 47.2316 17.9222C47.4376 18.3504 47.8606 19.2317 48.1718 19.8806C48.4829 20.5296 49.04 21.6912 49.4097 22.4619C49.7794 23.2326 50.1631 24.0327 50.2622 24.24C50.3614 24.4474 50.8449 25.4577 51.3367 26.4853C52.4078 28.723 52.7187 29.4124 52.7024 29.4299C52.6747 29.4299 51.4234 29.4189 49.8749 29.4189C46.8888 29.4189 45.1255 29.417 44.8983 29.3423C44.7576 29.2961 44.5173 29.1611 44.3785 29.0503C44.1491 28.8673 43.9007 28.5483 43.7083 28.1897C43.6338 28.0508 43.3577 27.4802 42.7331 26.1739C42.1754 25.0075 40.9535 22.4568 40.5702 21.6588C40.4208 21.3478 40.1782 20.8427 40.0309 20.5362C39.8837 20.2297 39.5346 19.4996 39.2552 18.9137C38.9758 18.3278 38.742 17.8411 38.7357 17.8321C38.6958 17.7747 37.5086 15.375 37.5093 15.3497C37.5406 15.3497 45.1665 15.3335 45.2428 15.3498Z" fill="#DF450F"/>
<path d="M36.7853 15.3499H37.5088L38.2879 16.936L38.0463 16.4423C37.7917 15.922 37.3365 15.5277 36.7853 15.3499Z" fill="#DF450F"/>
<path d="M53.4269 29.4283H52.7034L51.9243 27.8422L52.1659 28.3359C52.4204 28.8562 52.8757 29.2505 53.4269 29.4283Z" fill="#DF450F"/>
</svg>
