<svg width="562" height="634" viewBox="0 0 562 634" fill="none" xmlns="http://www.w3.org/2000/svg">
<path d="M143.754 553.962L143.751 553.96L16.288 480.727C10.2346 477.249 6.50241 470.8 6.50241 463.819V169.933C6.50241 162.971 10.2151 156.536 16.2432 153.051L270.261 6.20861C276.29 2.72366 283.719 2.71781 289.753 6.19325L544.735 153.057C550.778 156.538 554.502 162.981 554.502 169.955V463.855C554.502 470.817 550.79 477.252 544.763 480.737L417.253 554.46L417.252 554.461L289.784 627.688C283.734 631.164 276.287 631.142 270.257 627.63L143.754 553.962Z" fill="white" stroke="#B0B7B9"/>
<path d="M363.002 47.8828L476.62 113.146L470.994 103.012L374.592 47.3546L363.002 47.8828Z" fill="#DF450F"/>
<path d="M555.002 251L555.292 382.027L561.255 372.088L561.255 260.773L555.002 251Z" fill="#DF450F"/>
<path d="M6.25241 251L5.9633 382.027L-7.58167e-06 372.088L-1.24474e-05 260.773L6.25241 251Z" fill="#DF450F"/>
<path d="M363.002 585.984L476.619 520.388L471.531 529.553C471.179 530.187 470.661 530.713 470.034 531.076L375.551 585.625C374.923 585.988 374.208 586.173 373.484 586.161L363.002 585.984Z" fill="#DF450F"/>
<path d="M197.502 47.8828L84.0024 113.383L89.6097 103.008L186.011 47.3507L197.502 47.8828Z" fill="#DF450F"/>
<path d="M197.598 585.783L84.0009 520.185L89.6076 530.321L186.009 585.978L197.598 585.783Z" fill="#DF450F"/>
</svg>
