<svg width="1142" height="181" viewBox="0 0 1142 181" fill="none" xmlns="http://www.w3.org/2000/svg">
<path d="M570.566 0V24H561.566L570.566 0Z" fill="#E03C31"/>
<path d="M575.566 0V24H584.566L575.566 0Z" fill="#E03C31"/>
<path fill-rule="evenodd" clip-rule="evenodd" d="M1042.1 163H1141.13C1137.65 160.991 1134.14 159 1130.59 157.027C1057.05 116.121 969.74 83.6716 873.65 61.5331C777.56 39.3945 674.572 28 570.565 28C466.558 28 363.569 39.3946 267.479 61.5331C171.39 83.6716 84.0802 116.121 10.5362 157.027C6.9886 159 3.47642 160.991 0 163H99.0318C157.047 135.299 222.678 112.841 293.532 96.517C381.362 76.2814 475.498 65.8663 570.565 65.8663C665.632 65.8663 759.767 76.2814 847.598 96.517C918.451 112.841 984.082 135.299 1042.1 163Z" fill="url(#paint0_radial_2001_19148)"/>
<path fill-rule="evenodd" clip-rule="evenodd" d="M570.562 28C466.52 28 363.494 39.2645 267.366 61.1518C171.239 83.039 83.8841 115.122 10.293 155.574L10.7747 156.45C84.2715 116.05 171.536 83.9969 267.588 62.1269C363.64 40.257 466.591 29 570.562 29C674.534 29 777.485 40.257 873.537 62.1268C969.589 83.9968 1056.85 116.05 1130.35 156.45L1130.83 155.574C1057.24 115.122 969.886 83.039 873.759 61.1518C777.63 39.2645 674.605 28 570.562 28ZM293.64 96.7C381.432 76.7108 475.531 66.4217 570.562 66.4217C665.594 66.4217 759.693 76.7108 847.484 96.7C917.917 112.737 983.179 134.763 1040.92 161.914H1043.26C984.976 134.313 918.979 111.953 847.706 95.725C759.838 75.7183 665.664 65.4217 570.562 65.4217C475.46 65.4217 381.287 75.7183 293.418 95.725C222.146 111.953 156.148 134.313 97.8612 161.914H100.204C157.946 134.764 223.208 112.737 293.64 96.7Z" fill="url(#paint1_radial_2001_19148)"/>
<path d="M1068.57 180C920.707 112.431 750.887 74 570.276 74C391.528 74 223.348 111.643 76.5664 177.919" stroke="url(#paint2_radial_2001_19148)" stroke-dasharray="2 2"/>
<defs>
<radialGradient id="paint0_radial_2001_19148" cx="0" cy="0" r="1" gradientUnits="userSpaceOnUse" gradientTransform="translate(570.565 95.5) scale(570.565 256.957)">
<stop stop-color="#D9E1E2"/>
<stop offset="1" stop-color="#EAEAEA"/>
</radialGradient>
<radialGradient id="paint1_radial_2001_19148" cx="0" cy="0" r="1" gradientUnits="userSpaceOnUse" gradientTransform="translate(575.564 49.6368) rotate(4.66606) scale(557.115 383.789)">
<stop stop-color="#D8D8D8"/>
<stop offset="1" stop-color="#EAEAEA"/>
</radialGradient>
<radialGradient id="paint2_radial_2001_19148" cx="0" cy="0" r="1" gradientUnits="userSpaceOnUse" gradientTransform="translate(572.566 127) scale(496 159.882)">
<stop stop-color="#D9D9D9"/>
<stop offset="1" stop-color="#666666" stop-opacity="0"/>
</radialGradient>
</defs>
</svg>
