<svg width="518" height="477" viewBox="0 0 518 477" fill="none" xmlns="http://www.w3.org/2000/svg">
<path fill-rule="evenodd" clip-rule="evenodd" d="M106.184 0.0519563L49.3963 3.35322e-06C47.215 -0.00199223 45.1275 0.886808 43.6171 2.4606L2.22808 45.587C0.798355 47.0767 0 49.0616 0 51.1264V362.931V425.736C0 427.801 0.798353 429.786 2.22808 431.276L42.8104 473.562C44.3153 475.13 46.3934 476.018 48.5668 476.022L107.217 476.135L119.296 468.236C120.597 467.385 122.119 466.931 123.674 466.931H394.1C395.634 466.931 397.136 467.373 398.427 468.203L411.677 476.724L468.623 476.834C470.807 476.838 472.898 475.949 474.411 474.373L515.272 431.797C516.702 430.307 517.5 428.322 517.5 426.257V362.154L509.271 349.358C508.441 348.068 508 346.566 508 345.031L508 125.606C508 124.05 508.453 122.529 509.305 121.227L517.5 108.696V50.6054C517.5 48.5406 516.702 46.5557 515.272 45.066L474.751 2.84447C473.244 1.27434 471.163 0.385859 468.987 0.383868L411.378 0.331165L398.427 8.66009C397.136 9.49008 395.634 9.93138 394.1 9.93138H123.674C122.119 9.93138 120.597 9.47799 119.296 8.62669L106.184 0.0519563ZM0 362.931L8.72872 349.358C9.5587 348.068 10 346.566 10 345.031L10 125.606C10 124.05 9.54662 122.529 8.69532 121.227L8.96084e-06 107.931L0 362.931Z" fill="white"/>
</svg>
