<svg width="518" height="477" viewBox="0 0 518 477" fill="none" xmlns="http://www.w3.org/2000/svg">
<path fill-rule="evenodd" clip-rule="evenodd" d="M49.3963 3.35322e-06L106.184 0.0519563L119.296 8.62669C120.597 9.47799 122.119 9.93138 123.674 9.93138H394.1C395.634 9.93138 397.136 9.49008 398.427 8.66009L411.378 0.331165L468.987 0.383868C471.163 0.385859 473.244 1.27434 474.751 2.84447L515.272 45.066C516.702 46.5557 517.5 48.5406 517.5 50.6054V108.696L509.305 121.227C508.453 122.529 508 124.05 508 125.606L508 345.031C508 346.566 508.441 348.068 509.271 349.358L517.5 362.154V426.257C517.5 428.322 516.702 430.307 515.272 431.797L474.411 474.373C472.898 475.949 470.807 476.838 468.623 476.834L411.677 476.724L398.427 468.203C397.136 467.373 395.634 466.931 394.1 466.931H123.674C122.119 466.931 120.597 467.385 119.296 468.236L107.217 476.135L48.5668 476.022C46.3934 476.018 44.3153 475.13 42.8104 473.562L2.22808 431.276C0.798353 429.786 0 427.801 0 425.736V362.931L8.72872 349.358C9.5587 348.068 10 346.566 10 345.031L10 125.606C10 124.05 9.54662 122.529 8.69532 121.227L8.96084e-06 107.931L0 362.931V51.1264C0 49.0616 0.798355 47.0767 2.22808 45.587L43.6171 2.4606C45.1275 0.886808 47.215 -0.00199223 49.3963 3.35322e-06ZM48 10.9314C49.6569 10.9314 51 12.2745 51 13.9314C51 15.5882 49.6569 16.9314 48 16.9314C46.3431 16.9314 45 15.5882 45 13.9314C45 12.2745 46.3431 10.9314 48 10.9314ZM48 462.931C49.6569 462.931 51 461.588 51 459.931C51 458.275 49.6569 456.931 48 456.931C46.3431 456.931 45 458.275 45 459.931C45 461.588 46.3431 462.931 48 462.931ZM510 49.9314C510 51.5882 508.657 52.9314 507 52.9314C505.343 52.9314 504 51.5882 504 49.9314C504 48.2745 505.343 46.9314 507 46.9314C508.657 46.9314 510 48.2745 510 49.9314ZM508 418.931C509.657 418.931 511 420.275 511 421.931C511 423.588 509.657 424.931 508 424.931C506.343 424.931 505 423.588 505 421.931C505 420.275 506.343 418.931 508 418.931ZM17 49.9314C17 48.2745 15.6569 46.9314 14 46.9314C12.3431 46.9314 11 48.2745 11 49.9314C11 51.5882 12.3431 52.9314 14 52.9314C15.6569 52.9314 17 51.5882 17 49.9314ZM14 422.931C15.6569 422.931 17 421.588 17 419.931C17 418.275 15.6569 416.931 14 416.931C12.3431 416.931 11 418.275 11 419.931C11 421.588 12.3431 422.931 14 422.931ZM475 13.9314C475 15.5882 473.657 16.9314 472 16.9314C470.343 16.9314 469 15.5882 469 13.9314C469 12.2745 470.343 10.9314 472 10.9314C473.657 10.9314 475 12.2745 475 13.9314ZM470 454.931C471.657 454.931 473 456.275 473 457.931C473 459.588 471.657 460.931 470 460.931C468.343 460.931 467 459.588 467 457.931C467 456.275 468.343 454.931 470 454.931Z" fill="white"/>
</svg>
