<svg width="562" height="634" viewBox="0 0 562 634" fill="none" xmlns="http://www.w3.org/2000/svg">
<path d="M143.752 553.962L143.749 553.96L16.2856 480.727C10.2322 477.249 6.5 470.8 6.5 463.819V169.933C6.5 162.971 10.2126 156.536 16.2408 153.051L270.259 6.20861C276.288 2.72366 283.717 2.71781 289.751 6.19325L544.733 153.057C550.776 156.538 554.5 162.981 554.5 169.955V463.855C554.5 470.817 550.788 477.252 544.76 480.737L417.251 554.46L417.25 554.461L289.782 627.688C283.731 631.164 276.285 631.142 270.255 627.63L143.752 553.962Z" fill="white" stroke="#21B48C"/>
<path d="M363 47.8828L476.617 113.146L470.992 103.012L374.59 47.3546L363 47.8828Z" fill="#21B48C"/>
<path d="M555 251L555.289 382.027L561.252 372.088L561.252 260.773L555 251Z" fill="#21B48C"/>
<path d="M6.25391 251L5.9648 382.027L0.00148778 372.088L0.00148291 260.773L6.25391 251Z" fill="#21B48C"/>
<path d="M363 585.984L476.616 520.388L470.991 530.522L374.589 586.179L363 585.984Z" fill="#21B48C"/>
<path d="M197.5 47.8828L84 113.383L89.6073 103.008L186.009 47.3507L197.5 47.8828Z" fill="#21B48C"/>
<path d="M197.6 585.783L84.0023 520.185L89.6091 530.321L186.011 585.978L197.6 585.783Z" fill="#21B48C"/>
<path fill-rule="evenodd" clip-rule="evenodd" d="M285.293 37.1322C282.252 35.4247 278.542 35.4247 275.501 37.1322L212.413 72.5575L206.893 82.5211L110.535 138.255L99.3443 137.895L40.6507 172.723C37.6515 174.503 35.7962 177.716 35.7545 181.203L34.9171 251.287L40.9859 260.773L40.9858 372.088L35.0225 382.027L34.5781 353.936L35.7545 452.385C35.7962 455.872 37.6515 459.086 40.6507 460.865L99.4382 495.75L110.535 495.392L206.893 551.126L212.366 561.004L275.501 596.456C278.542 598.164 282.252 598.164 285.293 596.456L348.071 561.205L353.655 551.126L450.013 495.392L461.343 495.757L520.143 460.865C523.143 459.086 524.998 455.872 525.04 452.385L525.882 381.914L519.986 372.088V260.773L525.88 251.56L525.04 181.203C524.998 177.716 523.143 174.503 520.143 172.723L461.437 137.887L450.013 138.255L353.655 82.5211L348.038 72.3829L351.45 74.2812L285.293 37.1322Z" fill="#F7F7F7"/>
<circle cx="3" cy="3" r="3" transform="matrix(1 0 0 -1 277 48.3828)" fill="white"/>
<circle cx="3" cy="3" r="3" transform="matrix(1 0 0 -1 41 183.383)" fill="white"/>
<circle cx="3" cy="3" r="3" transform="matrix(1 0 0 -1 514 183.383)" fill="white"/>
<circle cx="3" cy="3" r="3" transform="matrix(1 0 0 -1 41 455.383)" fill="white"/>
<circle cx="3" cy="3" r="3" transform="matrix(1 0 0 -1 514 455.383)" fill="white"/>
<circle cx="3" cy="3" r="3" transform="matrix(1 0 0 -1 277 591.383)" fill="white"/>
</svg>
