<svg width="1920" height="380" viewBox="0 0 1920 380" fill="none" xmlns="http://www.w3.org/2000/svg">
<path d="M1002.5 16.1229L1102.34 115.963C1106.09 119.714 1111.18 121.821 1116.48 121.821H1731.84C1737.14 121.821 1742.23 123.927 1745.98 127.675L1900 281.615M1900 265.043L1795 159.805M1004.27 2.54688L1106.6 104.876C1110.35 108.627 1115.44 110.734 1120.75 110.734L1727.55 110.734" stroke="#B0B7B9"/>
<path d="M913.5 16.1221L813.66 115.962C809.91 119.713 804.823 121.82 799.518 121.82H184.162C178.86 121.82 173.774 123.926 170.024 127.674L20 277.617M20.0368 264.004L124 159.805M910.727 2.54688L808.397 104.876C804.646 108.627 799.559 110.734 794.255 110.734L187.454 110.734" stroke="#B0B7B9"/>
<path d="M2027 379C1708.92 233.663 1343.6 151 955.073 151C570.548 151 208.758 231.968 -107 374.524" stroke="#B0B7B9" stroke-dasharray="2 2"/>
<circle cx="2.5" cy="2.5" r="2.5" transform="matrix(1 0 0 -1 1791 160.797)" fill="#DF450F"/>
<circle cx="124.5" cy="158.297" r="2.5" transform="rotate(180 124.5 158.297)" fill="#DF450F"/>
<path d="M1731 110.797C1731 109.416 1729.88 108.297 1728.5 108.297C1727.12 108.297 1726 109.416 1726 110.797C1726 112.178 1727.12 113.297 1728.5 113.297C1729.88 113.297 1731 112.178 1731 110.797Z" fill="#DF450F"/>
<path d="M184 110.797C184 109.416 185.119 108.297 186.5 108.297C187.881 108.297 189 109.416 189 110.797C189 112.178 187.881 113.297 186.5 113.297C185.119 113.297 184 112.178 184 110.797Z" fill="#DF450F"/>
<path d="M1004 14.5C1004 13.1193 1002.88 12 1001.5 12C1000.12 12 999 13.1193 999 14.5C999 15.8807 1000.12 17 1001.5 17C1002.88 17 1004 15.8807 1004 14.5Z" fill="#DF450F"/>
<path d="M1006 2.5C1006 1.11929 1004.88 0 1003.5 0C1002.12 0 1001 1.11929 1001 2.5C1001 3.88071 1002.12 5 1003.5 5C1004.88 5 1006 3.88071 1006 2.5Z" fill="#DF450F"/>
<path d="M912 14.5C912 13.1193 913.119 12 914.5 12C915.881 12 917 13.1193 917 14.5C917 15.8807 915.881 17 914.5 17C913.119 17 912 15.8807 912 14.5Z" fill="#DF450F"/>
<path d="M908 2.5C908 1.11929 909.119 0 910.5 0C911.881 0 913 1.11929 913 2.5C913 3.88071 911.881 5 910.5 5C909.119 5 908 3.88071 908 2.5Z" fill="#DF450F"/>
</svg>
