<svg width="1142" height="181" viewBox="0 0 1142 181" fill="none" xmlns="http://www.w3.org/2000/svg">
<path d="M1070.27 180C922.413 112.431 752.592 74 571.982 74C393.234 74 225.054 111.643 78.272 177.919" stroke="url(#paint0_radial_2028_7642)" stroke-dasharray="2 2"/>
<path d="M568 0V24H559L568 0Z" fill="#DF450F"/>
<path d="M573 0V24H582L573 0Z" fill="#DF450F"/>
<path fill-rule="evenodd" clip-rule="evenodd" d="M1042.1 163H1141.13C1137.65 160.991 1134.14 159 1130.59 157.027C1057.05 116.121 969.74 83.6716 873.65 61.5331C777.56 39.3945 674.572 28 570.565 28C466.558 28 363.569 39.3946 267.479 61.5331C171.39 83.6716 84.0802 116.121 10.5362 157.027C6.9886 159 3.47642 160.991 0 163H99.0318C157.047 135.299 222.678 112.841 293.532 96.517C381.362 76.2814 475.498 65.8663 570.565 65.8663C665.632 65.8663 759.767 76.2814 847.598 96.517C918.451 112.841 984.082 135.299 1042.1 163Z" fill="url(#paint1_radial_2028_7642)"/>
<path fill-rule="evenodd" clip-rule="evenodd" d="M572.269 28C468.227 28 365.201 39.2645 269.073 61.1518C172.946 83.039 85.5911 115.122 12 155.574L12.4817 156.45C85.9786 116.05 173.243 83.9969 269.295 62.1269C365.347 40.257 468.298 29 572.269 29C676.241 29 779.192 40.257 875.244 62.1268C971.296 83.9968 1058.56 116.05 1132.06 156.45L1132.54 155.574C1058.95 115.122 971.593 83.039 875.466 61.1518C779.337 39.2645 676.312 28 572.269 28ZM295.347 96.7C383.139 76.7108 477.238 66.4217 572.269 66.4217C667.301 66.4217 761.4 76.7108 849.191 96.7C919.624 112.737 984.886 134.763 1042.63 161.914H1044.97C986.683 134.313 920.686 111.953 849.413 95.725C761.545 75.7183 667.371 65.4217 572.269 65.4217C477.167 65.4217 382.994 75.7183 295.125 95.725C223.853 111.953 157.855 134.313 99.5682 161.914H101.912C159.653 134.764 224.915 112.737 295.347 96.7Z" fill="url(#paint2_radial_2028_7642)"/>
<defs>
<radialGradient id="paint0_radial_2028_7642" cx="0" cy="0" r="1" gradientUnits="userSpaceOnUse" gradientTransform="translate(574.272 127) scale(496 159.882)">
<stop stop-color="#D9D9D9"/>
<stop offset="1" stop-color="#666666" stop-opacity="0"/>
</radialGradient>
<radialGradient id="paint1_radial_2028_7642" cx="0" cy="0" r="1" gradientUnits="userSpaceOnUse" gradientTransform="translate(570.565 95.5) scale(491.435 221.321)">
<stop stop-color="#F7F7F7"/>
<stop offset="1" stop-color="white"/>
</radialGradient>
<radialGradient id="paint2_radial_2028_7642" cx="0" cy="0" r="1" gradientUnits="userSpaceOnUse" gradientTransform="translate(577.271 49.6368) rotate(4.66606) scale(557.115 383.789)">
<stop stop-color="#D8D8D8"/>
<stop offset="1" stop-color="white"/>
</radialGradient>
</defs>
</svg>
