<svg width="1881" height="183" viewBox="0 0 1881 183" fill="none" xmlns="http://www.w3.org/2000/svg">
<path d="M1880.51 68.4999L1790.68 8.02907C1788.95 6.71253 1786.83 6 1784.65 6L1367.32 6L1159.27 6C1155.6 6 1152.01 7.0081 1148.87 8.9141L945.175 132.853C941.996 134.788 938.005 134.796 934.817 132.876L728.979 8.86868C725.864 6.9918 722.296 6 718.658 6L508.432 6L110.86 6C108.68 6 106.559 6.71253 104.822 8.02907L1 76.4999" stroke="#D9D9D9"/>
<path fill-rule="evenodd" clip-rule="evenodd" d="M1857.46 182.5H1871.19V132.285L1698.29 19.5H1607.59L1857.46 182.5ZM1744.09 182.5H1834.8L1584.93 19.5H1494.22L1744.09 182.5ZM1630.73 182.5H1721.43L1471.56 19.5H1380.85L1630.73 182.5ZM1515.87 182.5H1606.58L1356.71 19.5H1266L1515.87 182.5ZM1720.94 19.5L1871.19 117.514V76L1781.19 19.5H1720.94Z" fill="#D9D9D9" fill-opacity="0.1"/>
<path fill-rule="evenodd" clip-rule="evenodd" d="M32.729 182.5H19V132.285L191.893 19.5H282.6L32.729 182.5ZM146.096 182.5H55.3889L305.26 19.5H395.966L146.096 182.5ZM259.462 182.5H168.756L418.626 19.5H509.333L259.462 182.5ZM374.315 182.5H283.609L533.479 19.5H624.186L374.315 182.5ZM169.251 19.5L19 117.514V76L109 19.5H169.251Z" fill="#D9D9D9" fill-opacity="0.1"/>
<path d="M1632 6.25L1763.03 5.96088L1754.99 1.13763C1753.75 0.39164 1752.32 -0.00242376 1750.87 -0.00242376L1644.11 -0.00242376C1642.59 -0.00242376 1641.09 0.435188 1639.8 1.25865L1632 6.25Z" fill="#F2F2F2"/>
<path d="M262.406 6.25L131.379 5.96088L139.418 1.13763C140.661 0.39164 142.084 -0.00242376 143.534 -0.00242376L250.293 -0.00242376C251.821 -0.00242376 253.317 0.435188 254.604 1.25865L262.406 6.25Z" fill="#F2F2F2"/>
<path d="M875.547 96.4609L763.149 29.1192L772.524 29.0926C773.974 29.0884 775.397 29.4785 776.643 30.2209L868.344 84.8877C869.656 85.6702 870.717 86.8121 871.401 88.1786L875.547 96.4609Z" fill="#F2F2F2"/>
<path d="M1004.2 96.4609L1116.6 29.1192L1107.23 29.0926C1105.78 29.0884 1104.35 29.4785 1103.11 30.2209L1011.41 84.8877C1010.09 85.6702 1009.03 86.8121 1008.35 88.1786L1004.2 96.4609Z" fill="#F2F2F2"/>
<path d="M1813 23.2302L1872.83 62.6829L1868.72 54.2044C1868.1 52.9267 1867.15 51.8369 1865.97 51.0468L1826.59 24.6731C1825.29 23.8062 1823.77 23.3362 1822.21 23.3209L1813 23.2302Z" fill="#F2F2F2"/>
<path d="M81.4065 23.2302L21.5762 62.6829L25.6864 54.2044C26.3058 52.9267 27.2541 51.8369 28.434 51.0468L67.8207 24.6731C69.1154 23.8062 70.635 23.3362 72.193 23.3209L81.4065 23.2302Z" fill="#F2F2F2"/>
</svg>
