<svg width="94" height="49" viewBox="0 0 94 49" fill="none" xmlns="http://www.w3.org/2000/svg">
<path fill-rule="evenodd" clip-rule="evenodd" d="M12.5533 23.6925C12.3206 23.6428 11.8521 23.412 11.5547 23.2006C11.3132 23.029 10.8936 22.5804 10.6743 22.2595C10.4342 21.9081 10.3862 21.8362 10.1349 21.298C10.0188 21.0492 9.5533 20.0843 9.20672 19.3639C8.86012 18.6434 8.14821 17.1605 7.62468 16.0684C7.10115 14.9764 6.16377 13.0218 5.54161 11.725C4.91946 10.4282 4.27392 9.08174 4.1071 8.73289C3.94025 8.38403 3.12664 6.6839 2.29905 4.95482C0.496812 1.1894 -0.0264323 0.0294346 0.00101501 9.73806e-06C0.0475548 9.73806e-06 2.15322 0.0185058 4.75881 0.0185058C9.78355 0.0185058 12.7506 0.0217053 13.1329 0.147347C13.3697 0.225169 13.774 0.452267 14.0076 0.638716C14.3936 0.946698 14.8116 1.48349 15.1353 2.08679C15.2607 2.32054 15.7252 3.28066 16.7763 5.47878C17.7148 7.44153 19.7708 11.7336 20.4158 13.0763C20.6671 13.5996 21.0754 14.4496 21.3232 14.9653C21.5709 15.481 22.1583 16.7096 22.6285 17.6955C23.0987 18.6813 23.492 19.5004 23.5026 19.5155C23.5698 19.612 25.5675 23.6501 25.5663 23.6925C25.5137 23.6926 12.6816 23.7199 12.5533 23.6925Z" fill="#E03C31"/>
<path d="M26.7834 23.6925H25.566L24.255 21.0236L24.6615 21.8543C25.0899 22.7297 25.8559 23.3933 26.7834 23.6925V23.6925Z" fill="#E03C31"/>
<path fill-rule="evenodd" clip-rule="evenodd" d="M12.5533 25.0123C12.3206 25.0621 11.8521 25.2928 11.5547 25.5042C11.3132 25.6759 10.8936 26.1244 10.6743 26.4454C10.4342 26.7967 10.3862 26.8687 10.1349 27.4068C10.0188 27.6556 9.5533 28.6205 9.20672 29.341C8.86012 30.0614 8.14821 31.5444 7.62468 32.6364C7.10115 33.7285 6.16377 35.683 5.54161 36.9798C4.91946 38.2766 4.27392 39.6231 4.1071 39.9719C3.94025 40.3208 3.12664 42.0209 2.29905 43.75C0.496812 47.5154 -0.0264323 48.6754 0.00101501 48.7048C0.0475548 48.7048 2.15322 48.6863 4.75881 48.6863C9.78355 48.6863 12.7506 48.6831 13.1329 48.5575C13.3697 48.4797 13.774 48.2526 14.0076 48.0661C14.3936 47.7581 14.8116 47.2213 15.1353 46.618C15.2607 46.3843 15.7252 45.4242 16.7763 43.2261C17.7148 41.2633 19.7708 36.9713 20.4158 35.6285C20.6671 35.1053 21.0754 34.2552 21.3232 33.7395C21.5709 33.2238 22.1583 31.9953 22.6285 31.0094C23.0987 30.0235 23.492 29.2045 23.5026 29.1893C23.5698 29.0928 25.5675 25.0547 25.5663 25.0123C25.5137 25.0123 12.6816 24.9849 12.5533 25.0123Z" fill="#E03C31"/>
<path d="M26.7834 25.0123H25.566L24.255 27.6813L24.6615 26.8505C25.0899 25.9751 25.8559 25.3115 26.7834 25.0123V25.0123Z" fill="#E03C31"/>
<path d="M32.3434 34.3527V15.5367H36.5674V34.3527H32.3434ZM40.4072 34.3527V15.5367H44.6312V34.3527H40.4072ZM48.4709 34.3527V15.5367H52.6949V34.3527H48.4709ZM56.5347 34.3527V15.5367H60.7587V34.3527H56.5347Z" fill="#25282A"/>
<path fill-rule="evenodd" clip-rule="evenodd" d="M81.0136 23.6925C81.2463 23.6428 81.7148 23.412 82.0122 23.2006C82.2537 23.029 82.6733 22.5804 82.8926 22.2595C83.1327 21.9081 83.1806 21.8362 83.432 21.298C83.5481 21.0492 84.0136 20.0843 84.3602 19.3639C84.7068 18.6434 85.4187 17.1605 85.9422 16.0684C86.4657 14.9764 87.4031 13.0218 88.0253 11.725C88.6474 10.4282 89.293 9.08174 89.4598 8.73289C89.6266 8.38403 90.4403 6.6839 91.2678 4.95482C93.0701 1.1894 93.5933 0.0294346 93.5659 9.73806e-06C93.5193 9.73806e-06 91.4137 0.0185058 88.8081 0.0185058C83.7833 0.0185058 80.8163 0.0217053 80.434 0.147347C80.1972 0.225169 79.7929 0.452267 79.5593 0.638716C79.1733 0.946698 78.7553 1.48349 78.4316 2.08679C78.3062 2.32054 77.8417 3.28066 76.7906 5.47878C75.8521 7.44153 73.796 11.7336 73.1511 13.0763C72.8998 13.5996 72.4915 14.4496 72.2437 14.9653C71.996 15.481 71.4086 16.7096 70.9384 17.6955C70.4682 18.6813 70.0749 19.5004 70.0643 19.5155C69.9971 19.612 67.9994 23.6501 68.0006 23.6925C68.0532 23.6926 80.8853 23.7199 81.0136 23.6925Z" fill="#E03C31"/>
<path d="M66.7834 23.6925H68.0009L69.3119 21.0236L68.9054 21.8543C68.477 22.7297 67.711 23.3933 66.7834 23.6925V23.6925Z" fill="#E03C31"/>
<path fill-rule="evenodd" clip-rule="evenodd" d="M81.0136 25.0123C81.2463 25.0621 81.7148 25.2928 82.0122 25.5042C82.2537 25.6759 82.6733 26.1244 82.8926 26.4454C83.1327 26.7967 83.1806 26.8687 83.432 27.4068C83.5481 27.6556 84.0136 28.6205 84.3602 29.341C84.7068 30.0614 85.4187 31.5444 85.9422 32.6364C86.4657 33.7285 87.4031 35.683 88.0253 36.9798C88.6474 38.2766 89.293 39.6231 89.4598 39.9719C89.6266 40.3208 90.4403 42.0209 91.2678 43.75C93.0701 47.5154 93.5933 48.6754 93.5659 48.7048C93.5193 48.7048 91.4137 48.6863 88.8081 48.6863C83.7833 48.6863 80.8163 48.6831 80.434 48.5575C80.1972 48.4797 79.7929 48.2526 79.5593 48.0661C79.1733 47.7581 78.7553 47.2213 78.4316 46.618C78.3062 46.3843 77.8417 45.4242 76.7906 43.2261C75.8521 41.2633 73.796 36.9713 73.1511 35.6285C72.8998 35.1053 72.4915 34.2552 72.2437 33.7395C71.996 33.2238 71.4086 31.9953 70.9384 31.0094C70.4682 30.0235 70.0749 29.2045 70.0643 29.1893C69.9971 29.0928 67.9994 25.0547 68.0006 25.0123C68.0532 25.0123 80.8853 24.9849 81.0136 25.0123Z" fill="#E03C31"/>
<path d="M66.7834 25.0123H68.0009L69.3119 27.6813L68.9054 26.8505C68.477 25.9751 67.711 25.3115 66.7834 25.0123V25.0123Z" fill="#E03C31"/>
</svg>
